<svg width="1707" height="958" viewBox="0 0 1707 958" fill="none" xmlns="http://www.w3.org/2000/svg">
<path opacity="0.2" d="M229.336 317.844H1649" stroke="#223C78" stroke-width="3.49155" stroke-linecap="round"/>
<path opacity="0.2" d="M229.336 235.758H1649" stroke="#223C78" stroke-width="3.49155" stroke-linecap="round"/>
<path opacity="0.2" d="M229.336 481.375H1649" stroke="#223C78" stroke-width="3.49155" stroke-linecap="round"/>
<path opacity="0.2" d="M229.336 643.805H1649" stroke="#223C78" stroke-width="3.49155" stroke-linecap="round"/>
<path opacity="0.2" d="M229.336 725.234H1649" stroke="#223C78" stroke-width="3.49155" stroke-linecap="round"/>
<path d="M219 73.2422H1689" stroke="#459F63" stroke-width="6" stroke-linecap="round" stroke-dasharray="15 15"/>
<path opacity="0.2" d="M229.336 807.75H1649" stroke="#223C78" stroke-width="3.49155" stroke-linecap="round"/>
<path d="M126.676 243.46C125.456 243.46 124.379 243.243 123.444 242.811C122.515 242.373 121.79 241.773 121.269 241.009C120.748 240.24 120.491 239.364 120.497 238.381C120.491 237.612 120.642 236.902 120.949 236.251C121.257 235.594 121.677 235.046 122.21 234.608C122.749 234.164 123.349 233.883 124.012 233.765V233.658C123.142 233.433 122.45 232.945 121.935 232.194C121.42 231.436 121.166 230.575 121.171 229.61C121.166 228.687 121.399 227.861 121.873 227.133C122.346 226.405 122.997 225.831 123.826 225.411C124.66 224.991 125.61 224.781 126.676 224.781C127.729 224.781 128.67 224.991 129.499 225.411C130.327 225.831 130.978 226.405 131.452 227.133C131.931 227.861 132.174 228.687 132.18 229.61C132.174 230.575 131.911 231.436 131.39 232.194C130.875 232.945 130.191 233.433 129.339 233.658V233.765C129.996 233.883 130.588 234.164 131.115 234.608C131.641 235.046 132.062 235.594 132.375 236.251C132.689 236.902 132.849 237.612 132.855 238.381C132.849 239.364 132.582 240.24 132.056 241.009C131.535 241.773 130.81 242.373 129.881 242.811C128.957 243.243 127.889 243.46 126.676 243.46ZM126.676 241.506C127.498 241.506 128.209 241.373 128.806 241.107C129.404 240.841 129.866 240.465 130.191 239.979C130.517 239.494 130.683 238.926 130.688 238.275C130.683 237.588 130.505 236.982 130.156 236.455C129.807 235.928 129.33 235.514 128.726 235.212C128.129 234.91 127.445 234.759 126.676 234.759C125.9 234.759 125.208 234.91 124.598 235.212C123.995 235.514 123.518 235.928 123.169 236.455C122.826 236.982 122.657 237.588 122.663 238.275C122.657 238.926 122.814 239.494 123.133 239.979C123.459 240.465 123.924 240.841 124.527 241.107C125.131 241.373 125.847 241.506 126.676 241.506ZM126.676 232.877C127.327 232.877 127.904 232.747 128.407 232.487C128.916 232.226 129.315 231.862 129.605 231.395C129.895 230.927 130.043 230.379 130.049 229.752C130.043 229.137 129.898 228.601 129.614 228.145C129.33 227.684 128.937 227.328 128.434 227.08C127.93 226.825 127.344 226.698 126.676 226.698C125.995 226.698 125.4 226.825 124.891 227.08C124.382 227.328 123.989 227.684 123.71 228.145C123.432 228.601 123.296 229.137 123.302 229.752C123.296 230.379 123.435 230.927 123.719 231.395C124.009 231.862 124.409 232.226 124.918 232.487C125.427 232.747 126.013 232.877 126.676 232.877ZM142.188 243.46C140.85 243.46 139.711 243.096 138.77 242.368C137.828 241.634 137.109 240.571 136.612 239.18C136.115 237.784 135.866 236.097 135.866 234.12C135.866 232.155 136.115 230.477 136.612 229.086C137.115 227.69 137.837 226.624 138.778 225.89C139.725 225.15 140.862 224.781 142.188 224.781C143.513 224.781 144.647 225.15 145.588 225.89C146.535 226.624 147.257 227.69 147.754 229.086C148.257 230.477 148.509 232.155 148.509 234.12C148.509 236.097 148.26 237.784 147.763 239.18C147.266 240.571 146.547 241.634 145.605 242.368C144.664 243.096 143.525 243.46 142.188 243.46ZM142.188 241.506C143.513 241.506 144.543 240.867 145.277 239.589C146.011 238.31 146.378 236.487 146.378 234.12C146.378 232.546 146.209 231.205 145.872 230.098C145.54 228.992 145.061 228.148 144.434 227.568C143.812 226.988 143.063 226.698 142.188 226.698C140.874 226.698 139.847 227.346 139.107 228.642C138.367 229.933 137.997 231.759 137.997 234.12C137.997 235.694 138.163 237.032 138.494 238.133C138.826 239.234 139.302 240.071 139.924 240.645C140.551 241.219 141.306 241.506 142.188 241.506Z" fill="#223C78"/>
<path d="M126.445 146.57C127.191 146.576 127.936 146.718 128.682 146.996C129.428 147.274 130.108 147.736 130.724 148.381C131.34 149.02 131.834 149.893 132.207 151C132.579 152.106 132.766 153.494 132.766 155.163C132.766 156.779 132.612 158.214 132.304 159.469C132.002 160.718 131.564 161.771 130.99 162.63C130.422 163.488 129.73 164.139 128.913 164.583C128.102 165.027 127.185 165.249 126.161 165.249C125.143 165.249 124.234 165.047 123.435 164.645C122.642 164.237 121.991 163.671 121.482 162.949C120.979 162.221 120.657 161.378 120.514 160.419H122.681C122.876 161.254 123.264 161.943 123.844 162.488C124.43 163.026 125.202 163.295 126.161 163.295C127.563 163.295 128.67 162.683 129.481 161.458C130.298 160.233 130.706 158.501 130.706 156.264H130.564C130.233 156.761 129.839 157.19 129.383 157.551C128.928 157.913 128.422 158.191 127.865 158.386C127.309 158.581 126.717 158.679 126.09 158.679C125.048 158.679 124.092 158.422 123.222 157.907C122.358 157.386 121.666 156.673 121.145 155.767C120.63 154.856 120.372 153.814 120.372 152.642C120.372 151.529 120.621 150.511 121.118 149.588C121.621 148.659 122.326 147.919 123.231 147.369C124.143 146.818 125.214 146.552 126.445 146.57ZM126.445 148.523C125.699 148.523 125.027 148.709 124.43 149.082C123.838 149.449 123.367 149.946 123.018 150.574C122.675 151.195 122.503 151.884 122.503 152.642C122.503 153.4 122.669 154.089 123 154.711C123.338 155.326 123.796 155.817 124.376 156.184C124.962 156.545 125.628 156.726 126.374 156.726C126.936 156.726 127.46 156.616 127.945 156.397C128.431 156.172 128.854 155.868 129.215 155.483C129.582 155.092 129.869 154.651 130.076 154.16C130.283 153.663 130.387 153.145 130.387 152.607C130.387 151.896 130.215 151.23 129.872 150.609C129.534 149.988 129.067 149.484 128.469 149.1C127.877 148.715 127.202 148.523 126.445 148.523ZM142.188 165.249C140.85 165.249 139.711 164.885 138.77 164.157C137.828 163.423 137.109 162.36 136.612 160.969C136.115 159.573 135.866 157.886 135.866 155.909C135.866 153.944 136.115 152.266 136.612 150.875C137.115 149.479 137.837 148.413 138.778 147.679C139.725 146.94 140.862 146.57 142.188 146.57C143.513 146.57 144.647 146.94 145.588 147.679C146.535 148.413 147.257 149.479 147.754 150.875C148.257 152.266 148.509 153.944 148.509 155.909C148.509 157.886 148.26 159.573 147.763 160.969C147.266 162.36 146.547 163.423 145.605 164.157C144.664 164.885 143.525 165.249 142.188 165.249ZM142.188 163.295C143.513 163.295 144.543 162.656 145.277 161.378C146.011 160.099 146.378 158.277 146.378 155.909C146.378 154.335 146.209 152.994 145.872 151.887C145.54 150.781 145.061 149.937 144.434 149.357C143.812 148.777 143.063 148.487 142.188 148.487C140.874 148.487 139.847 149.135 139.107 150.431C138.367 151.722 137.997 153.548 137.997 155.909C137.997 157.483 138.163 158.821 138.494 159.922C138.826 161.023 139.302 161.86 139.924 162.434C140.551 163.008 141.306 163.295 142.188 163.295Z" fill="#223C78"/>
<path d="M115.403 68.8182V87H113.201V71.1264H113.095L108.656 74.0739V71.8366L113.201 68.8182H115.403ZM126.562 87.2486C125.225 87.2486 124.086 86.8846 123.145 86.1566C122.203 85.4227 121.484 84.3603 120.987 82.9695C120.49 81.5727 120.241 79.8859 120.241 77.9091C120.241 75.9441 120.49 74.2662 120.987 72.8754C121.49 71.4786 122.212 70.4132 123.153 69.6793C124.1 68.9395 125.237 68.5696 126.562 68.5696C127.888 68.5696 129.022 68.9395 129.963 69.6793C130.91 70.4132 131.632 71.4786 132.129 72.8754C132.632 74.2662 132.884 75.9441 132.884 77.9091C132.884 79.8859 132.635 81.5727 132.138 82.9695C131.641 84.3603 130.922 85.4227 129.98 86.1566C129.039 86.8846 127.9 87.2486 126.562 87.2486ZM126.562 85.2955C127.888 85.2955 128.918 84.6562 129.652 83.3778C130.386 82.0994 130.753 80.2765 130.753 77.9091C130.753 76.3348 130.584 74.9942 130.247 73.8874C129.915 72.7807 129.436 71.9373 128.809 71.3572C128.187 70.7772 127.438 70.4872 126.562 70.4872C125.249 70.4872 124.222 71.1353 123.482 72.4315C122.742 73.7217 122.372 75.5476 122.372 77.9091C122.372 79.4834 122.538 80.821 122.869 81.9219C123.201 83.0227 123.677 83.8602 124.299 84.4343C124.926 85.0084 125.681 85.2955 126.562 85.2955ZM142.188 87.2486C140.85 87.2486 139.711 86.8846 138.77 86.1566C137.828 85.4227 137.109 84.3603 136.612 82.9695C136.115 81.5727 135.866 79.8859 135.866 77.9091C135.866 75.9441 136.115 74.2662 136.612 72.8754C137.115 71.4786 137.837 70.4132 138.778 69.6793C139.725 68.9395 140.862 68.5696 142.188 68.5696C143.513 68.5696 144.647 68.9395 145.588 69.6793C146.535 70.4132 147.257 71.4786 147.754 72.8754C148.257 74.2662 148.509 75.9441 148.509 77.9091C148.509 79.8859 148.26 81.5727 147.763 82.9695C147.266 84.3603 146.547 85.4227 145.605 86.1566C144.664 86.8846 143.525 87.2486 142.188 87.2486ZM142.188 85.2955C143.513 85.2955 144.543 84.6562 145.277 83.3778C146.011 82.0994 146.378 80.2765 146.378 77.9091C146.378 76.3348 146.209 74.9942 145.872 73.8874C145.54 72.7807 145.061 71.9373 144.434 71.3572C143.812 70.7772 143.063 70.4872 142.188 70.4872C140.874 70.4872 139.847 71.1353 139.107 72.4315C138.367 73.7217 137.997 75.5476 137.997 77.9091C137.997 79.4834 138.163 80.821 138.494 81.9219C138.826 83.0227 139.302 83.8602 139.924 84.4343C140.551 85.0084 141.306 85.2955 142.188 85.2955Z" fill="#223C78"/>
<path d="M122.934 324.219L131.066 308.132V307.99H121.691V306.037H133.339V308.097L125.242 324.219H122.934ZM142.188 324.467C140.85 324.467 139.711 324.103 138.77 323.375C137.828 322.641 137.109 321.579 136.612 320.188C136.115 318.791 135.866 317.105 135.866 315.128C135.866 313.163 136.115 311.485 136.612 310.094C137.115 308.697 137.837 307.632 138.778 306.898C139.725 306.158 140.862 305.788 142.188 305.788C143.513 305.788 144.647 306.158 145.588 306.898C146.535 307.632 147.257 308.697 147.754 310.094C148.257 311.485 148.509 313.163 148.509 315.128C148.509 317.105 148.26 318.791 147.763 320.188C147.266 321.579 146.547 322.641 145.605 323.375C144.664 324.103 143.525 324.467 142.188 324.467ZM142.188 322.514C143.513 322.514 144.543 321.875 145.277 320.597C146.011 319.318 146.378 317.495 146.378 315.128C146.378 313.554 146.209 312.213 145.872 311.106C145.54 309.999 145.061 309.156 144.434 308.576C143.812 307.996 143.063 307.706 142.188 307.706C140.874 307.706 139.847 308.354 139.107 309.65C138.367 310.94 137.997 312.766 137.997 315.128C137.997 316.702 138.163 318.04 138.494 319.141C138.826 320.241 139.302 321.079 139.924 321.653C140.551 322.227 141.306 322.514 142.188 322.514Z" fill="#223C78"/>
<path d="M126.693 407.639C125.948 407.627 125.202 407.485 124.456 407.213C123.71 406.941 123.03 406.482 122.414 405.837C121.799 405.186 121.305 404.307 120.932 403.2C120.559 402.088 120.372 400.691 120.372 399.01C120.372 397.4 120.523 395.974 120.825 394.731C121.127 393.482 121.565 392.431 122.139 391.579C122.713 390.721 123.406 390.07 124.217 389.626C125.033 389.182 125.954 388.96 126.978 388.96C127.996 388.96 128.901 389.164 129.694 389.573C130.493 389.975 131.144 390.538 131.647 391.26C132.15 391.982 132.476 392.813 132.624 393.754H130.458C130.256 392.937 129.866 392.26 129.286 391.721C128.706 391.183 127.936 390.913 126.978 390.913C125.569 390.913 124.459 391.526 123.648 392.751C122.843 393.976 122.438 395.696 122.432 397.909H122.574C122.906 397.406 123.299 396.977 123.755 396.622C124.217 396.261 124.726 395.983 125.282 395.787C125.838 395.592 126.427 395.494 127.049 395.494C128.09 395.494 129.043 395.755 129.907 396.276C130.771 396.79 131.464 397.504 131.985 398.415C132.505 399.321 132.766 400.359 132.766 401.531C132.766 402.656 132.514 403.686 132.011 404.621C131.508 405.55 130.801 406.29 129.889 406.84C128.984 407.385 127.919 407.651 126.693 407.639ZM126.693 405.686C127.439 405.686 128.108 405.5 128.7 405.127C129.298 404.754 129.768 404.254 130.111 403.626C130.461 402.999 130.635 402.301 130.635 401.531C130.635 400.78 130.467 400.096 130.129 399.48C129.798 398.859 129.339 398.365 128.753 397.998C128.173 397.631 127.51 397.447 126.764 397.447C126.202 397.447 125.678 397.56 125.193 397.785C124.708 398.004 124.282 398.306 123.915 398.69C123.554 399.075 123.27 399.516 123.062 400.013C122.855 400.504 122.752 401.022 122.752 401.567C122.752 402.289 122.92 402.964 123.258 403.591C123.601 404.218 124.069 404.724 124.66 405.109C125.258 405.494 125.936 405.686 126.693 405.686ZM142.188 407.639C140.85 407.639 139.711 407.275 138.77 406.547C137.828 405.813 137.109 404.751 136.612 403.36C136.115 401.963 135.866 400.277 135.866 398.3C135.866 396.335 136.115 394.657 136.612 393.266C137.115 391.869 137.837 390.804 138.778 390.07C139.725 389.33 140.862 388.96 142.188 388.96C143.513 388.96 144.647 389.33 145.588 390.07C146.535 390.804 147.257 391.869 147.754 393.266C148.257 394.657 148.509 396.335 148.509 398.3C148.509 400.277 148.26 401.963 147.763 403.36C147.266 404.751 146.547 405.813 145.605 406.547C144.664 407.275 143.525 407.639 142.188 407.639ZM142.188 405.686C143.513 405.686 144.543 405.047 145.277 403.768C146.011 402.49 146.378 400.667 146.378 398.3C146.378 396.725 146.209 395.385 145.872 394.278C145.54 393.171 145.061 392.328 144.434 391.748C143.812 391.168 143.063 390.878 142.188 390.878C140.874 390.878 139.847 391.526 139.107 392.822C138.367 394.112 137.997 395.938 137.997 398.3C137.997 399.874 138.163 401.212 138.494 402.312C138.826 403.413 139.302 404.251 139.924 404.825C140.551 405.399 141.306 405.686 142.188 405.686Z" fill="#223C78"/>
<path d="M126.729 487.561C125.687 487.561 124.749 487.354 123.915 486.94C123.08 486.525 122.411 485.957 121.908 485.235C121.405 484.513 121.13 483.69 121.083 482.767H123.213C123.296 483.59 123.669 484.27 124.332 484.809C125.001 485.342 125.8 485.608 126.729 485.608C127.475 485.608 128.138 485.433 128.718 485.084C129.304 484.735 129.762 484.256 130.094 483.646C130.431 483.03 130.6 482.335 130.6 481.56C130.6 480.767 130.425 480.059 130.076 479.438C129.733 478.81 129.259 478.316 128.655 477.955C128.052 477.594 127.362 477.411 126.587 477.405C126.031 477.399 125.459 477.485 124.873 477.662C124.288 477.834 123.805 478.056 123.426 478.328L121.367 478.08L122.468 469.131H131.914V471.084H124.314L123.675 476.446H123.782C124.154 476.15 124.622 475.904 125.184 475.709C125.746 475.514 126.332 475.416 126.942 475.416C128.055 475.416 129.046 475.683 129.916 476.215C130.792 476.742 131.479 477.464 131.976 478.381C132.479 479.299 132.73 480.346 132.73 481.524C132.73 482.684 132.47 483.72 131.949 484.631C131.434 485.537 130.724 486.253 129.818 486.78C128.913 487.301 127.883 487.561 126.729 487.561ZM142.188 487.561C140.85 487.561 139.711 487.197 138.77 486.469C137.828 485.735 137.109 484.673 136.612 483.282C136.115 481.885 135.866 480.198 135.866 478.222C135.866 476.257 136.115 474.579 136.612 473.188C137.115 471.791 137.837 470.726 138.778 469.992C139.725 469.252 140.862 468.882 142.188 468.882C143.513 468.882 144.647 469.252 145.588 469.992C146.535 470.726 147.257 471.791 147.754 473.188C148.257 474.579 148.509 476.257 148.509 478.222C148.509 480.198 148.26 481.885 147.763 483.282C147.266 484.673 146.547 485.735 145.605 486.469C144.664 487.197 143.525 487.561 142.188 487.561ZM142.188 485.608C143.513 485.608 144.543 484.969 145.277 483.69C146.011 482.412 146.378 480.589 146.378 478.222C146.378 476.647 146.209 475.307 145.872 474.2C145.54 473.093 145.061 472.25 144.434 471.67C143.812 471.09 143.063 470.8 142.188 470.8C140.874 470.8 139.847 471.448 139.107 472.744C138.367 474.034 137.997 475.86 137.997 478.222C137.997 479.796 138.163 481.134 138.494 482.234C138.826 483.335 139.302 484.173 139.924 484.747C140.551 485.321 141.306 485.608 142.188 485.608Z" fill="#223C78"/>
<path d="M119.791 565.67V563.859L127.781 551.217H129.095V554.022H128.207L122.17 563.575V563.717H132.93V565.67H119.791ZM128.349 569.398V565.119V564.276V551.217H130.444V569.398H128.349ZM142.188 569.647C140.85 569.647 139.711 569.283 138.77 568.555C137.828 567.821 137.109 566.759 136.612 565.368C136.115 563.971 135.866 562.284 135.866 560.308C135.866 558.343 136.115 556.665 136.612 555.274C137.115 553.877 137.837 552.812 138.778 552.078C139.725 551.338 140.862 550.968 142.188 550.968C143.513 550.968 144.647 551.338 145.588 552.078C146.535 552.812 147.257 553.877 147.754 555.274C148.257 556.665 148.509 558.343 148.509 560.308C148.509 562.284 148.26 563.971 147.763 565.368C147.266 566.759 146.547 567.821 145.605 568.555C144.664 569.283 143.525 569.647 142.188 569.647ZM142.188 567.694C143.513 567.694 144.543 567.055 145.277 565.776C146.011 564.498 146.378 562.675 146.378 560.308C146.378 558.733 146.209 557.393 145.872 556.286C145.54 555.179 145.061 554.336 144.434 553.756C143.812 553.176 143.063 552.886 142.188 552.886C140.874 552.886 139.847 553.534 139.107 554.83C138.367 556.12 137.997 557.946 137.997 560.308C137.997 561.882 138.163 563.219 138.494 564.32C138.826 565.421 139.302 566.259 139.924 566.833C140.551 567.407 141.306 567.694 142.188 567.694Z" fill="#223C78"/>
<path d="M126.483 649.577C125.311 649.577 124.266 649.375 123.349 648.973C122.437 648.571 121.712 648.011 121.174 647.295C120.641 646.573 120.351 645.736 120.304 644.783H122.541C122.588 645.369 122.789 645.875 123.145 646.301C123.5 646.721 123.964 647.047 124.538 647.277C125.112 647.508 125.749 647.624 126.447 647.624C127.228 647.624 127.921 647.487 128.525 647.215C129.128 646.943 129.602 646.564 129.945 646.079C130.288 645.594 130.46 645.031 130.46 644.392C130.46 643.723 130.294 643.134 129.963 642.625C129.631 642.11 129.146 641.708 128.507 641.418C127.868 641.128 127.086 640.983 126.163 640.983H124.707V639.03H126.163C126.885 639.03 127.518 638.9 128.063 638.639C128.613 638.379 129.042 638.012 129.35 637.538C129.664 637.065 129.821 636.509 129.821 635.869C129.821 635.254 129.685 634.718 129.412 634.262C129.14 633.807 128.755 633.452 128.258 633.197C127.767 632.943 127.187 632.815 126.518 632.815C125.891 632.815 125.299 632.931 124.743 633.162C124.192 633.386 123.742 633.715 123.393 634.147C123.044 634.573 122.855 635.088 122.825 635.692H120.694C120.73 634.739 121.017 633.904 121.555 633.188C122.094 632.466 122.798 631.904 123.668 631.501C124.544 631.099 125.506 630.898 126.554 630.898C127.678 630.898 128.643 631.126 129.448 631.581C130.253 632.031 130.871 632.626 131.303 633.366C131.735 634.106 131.951 634.905 131.951 635.763C131.951 636.787 131.682 637.66 131.143 638.382C130.611 639.104 129.886 639.604 128.968 639.882V640.024C130.117 640.214 131.013 640.702 131.658 641.489C132.304 642.27 132.626 643.238 132.626 644.392C132.626 645.38 132.357 646.268 131.818 647.055C131.286 647.837 130.558 648.452 129.634 648.902C128.711 649.352 127.66 649.577 126.483 649.577ZM142.188 649.577C140.85 649.577 139.711 649.213 138.77 648.485C137.828 647.751 137.109 646.688 136.612 645.298C136.115 643.901 135.866 642.214 135.866 640.237C135.866 638.272 136.115 636.594 136.612 635.203C137.115 633.807 137.837 632.741 138.778 632.007C139.725 631.268 140.862 630.898 142.188 630.898C143.513 630.898 144.647 631.268 145.588 632.007C146.535 632.741 147.257 633.807 147.754 635.203C148.257 636.594 148.509 638.272 148.509 640.237C148.509 642.214 148.26 643.901 147.763 645.298C147.266 646.688 146.547 647.751 145.605 648.485C144.664 649.213 143.525 649.577 142.188 649.577ZM142.188 647.624C143.513 647.624 144.543 646.984 145.277 645.706C146.011 644.428 146.378 642.605 146.378 640.237C146.378 638.663 146.209 637.322 145.872 636.216C145.54 635.109 145.061 634.265 144.434 633.685C143.812 633.105 143.063 632.815 142.188 632.815C140.874 632.815 139.847 633.463 139.107 634.76C138.367 636.05 137.997 637.876 137.997 640.237C137.997 641.812 138.163 643.149 138.494 644.25C138.826 645.351 139.302 646.188 139.924 646.762C140.551 647.337 141.306 647.624 142.188 647.624Z" fill="#223C78"/>
<path d="M121.12 730.336V728.738L127.122 722.168C127.826 721.399 128.406 720.73 128.862 720.162C129.318 719.588 129.655 719.049 129.874 718.546C130.099 718.037 130.211 717.504 130.211 716.948C130.211 716.309 130.057 715.756 129.75 715.288C129.448 714.82 129.033 714.459 128.507 714.205C127.98 713.95 127.388 713.823 126.731 713.823C126.033 713.823 125.423 713.968 124.902 714.258C124.387 714.542 123.988 714.942 123.704 715.457C123.426 715.972 123.287 716.575 123.287 717.268H121.191C121.191 716.202 121.437 715.267 121.928 714.462C122.42 713.657 123.088 713.03 123.935 712.58C124.787 712.13 125.743 711.906 126.802 711.906C127.868 711.906 128.812 712.13 129.634 712.58C130.457 713.03 131.102 713.637 131.57 714.4C132.037 715.164 132.271 716.013 132.271 716.948C132.271 717.617 132.15 718.271 131.907 718.91C131.67 719.543 131.256 720.251 130.664 721.032C130.078 721.807 129.264 722.754 128.223 723.873L124.139 728.241V728.383H132.591V730.336H121.12ZM142.188 730.585C140.85 730.585 139.711 730.221 138.77 729.493C137.828 728.759 137.109 727.696 136.612 726.305C136.115 724.909 135.866 723.222 135.866 721.245C135.866 719.28 136.115 717.602 136.612 716.211C137.115 714.815 137.837 713.749 138.778 713.015C139.725 712.275 140.862 711.906 142.188 711.906C143.513 711.906 144.647 712.275 145.588 713.015C146.535 713.749 147.257 714.815 147.754 716.211C148.257 717.602 148.509 719.28 148.509 721.245C148.509 723.222 148.26 724.909 147.763 726.305C147.266 727.696 146.547 728.759 145.605 729.493C144.664 730.221 143.525 730.585 142.188 730.585ZM142.188 728.631C143.513 728.631 144.543 727.992 145.277 726.714C146.011 725.435 146.378 723.612 146.378 721.245C146.378 719.671 146.209 718.33 145.872 717.223C145.54 716.117 145.061 715.273 144.434 714.693C143.812 714.113 143.063 713.823 142.188 713.823C140.874 713.823 139.847 714.471 139.107 715.767C138.367 717.058 137.997 718.884 137.997 721.245C137.997 722.819 138.163 724.157 138.494 725.258C138.826 726.359 139.302 727.196 139.924 727.77C140.551 728.344 141.306 728.631 142.188 728.631Z" fill="#223C78"/>
<path d="M131.028 793.162V811.344H128.826V795.47H128.72L124.281 798.418V796.18L128.826 793.162H131.028ZM142.188 811.592C140.85 811.592 139.711 811.228 138.77 810.5C137.828 809.766 137.109 808.704 136.612 807.313C136.115 805.916 135.866 804.23 135.866 802.253C135.866 800.288 136.115 798.61 136.612 797.219C137.115 795.822 137.837 794.757 138.778 794.023C139.725 793.283 140.862 792.913 142.188 792.913C143.513 792.913 144.647 793.283 145.588 794.023C146.535 794.757 147.257 795.822 147.754 797.219C148.257 798.61 148.509 800.288 148.509 802.253C148.509 804.23 148.26 805.916 147.763 807.313C147.266 808.704 146.547 809.766 145.605 810.5C144.664 811.228 143.525 811.592 142.188 811.592ZM142.188 809.639C143.513 809.639 144.543 809 145.277 807.722C146.011 806.443 146.378 804.62 146.378 802.253C146.378 800.679 146.209 799.338 145.872 798.231C145.54 797.124 145.061 796.281 144.434 795.701C143.812 795.121 143.063 794.831 142.188 794.831C140.874 794.831 139.847 795.479 139.107 796.775C138.367 798.065 137.997 799.891 137.997 802.253C137.997 803.827 138.163 805.165 138.494 806.266C138.826 807.366 139.302 808.204 139.924 808.778C140.551 809.352 141.306 809.639 142.188 809.639Z" fill="#223C78"/>
<path d="M167.617 318.297H190.062" stroke="#459F63" stroke-width="6.98309" stroke-linecap="round"/>
<path d="M167.617 235.664H190.062" stroke="#459F63" stroke-width="6.98309" stroke-linecap="round"/>
<path opacity="0.2" d="M229.336 157.141H1649" stroke="#223C78" stroke-width="3.49155" stroke-linecap="round"/>
<path d="M167.617 158H190.062" stroke="#459F63" stroke-width="6.98309" stroke-linecap="round"/>
<path opacity="0.2" d="M229.336 75H1649" stroke="#223C78" stroke-width="3.49155" stroke-linecap="round"/>
<path d="M939.5 94.5H941.5V92.5H939.5V94.5ZM939.5 600.5L951.047 580.5H927.953L939.5 600.5ZM523.5 94.5V96.5H939.5V94.5V92.5H523.5V94.5ZM939.5 94.5H937.5V582.5H939.5H941.5V94.5H939.5Z" fill="#459F63"/>
<path d="M1500 95H1502V93H1500V95ZM1500 718L1511.55 698H1488.45L1500 718ZM1084 95V97H1500V95V93H1084V95ZM1500 95H1498V700H1500H1502V95H1500Z" fill="#459F63"/>
<path d="M167.617 75.8594H190.062" stroke="#459F63" stroke-width="6.98309" stroke-linecap="round"/>
<path d="M167.617 481.406H190.062" stroke="#459F63" stroke-width="6.98309" stroke-linecap="round"/>
<path opacity="0.2" d="M229.336 400.359H1649" stroke="#223C78" stroke-width="3.49155" stroke-linecap="round"/>
<path d="M167.617 400.398H190.062" stroke="#459F63" stroke-width="6.98309" stroke-linecap="round"/>
<path d="M167.617 643.43H190.062" stroke="#459F63" stroke-width="6.98309" stroke-linecap="round"/>
<path opacity="0.2" d="M229.336 562.805H1649" stroke="#223C78" stroke-width="3.49155" stroke-linecap="round"/>
<path d="M167.617 562.422H190.062" stroke="#459F63" stroke-width="6.98309" stroke-linecap="round"/>
<path d="M167.617 724.453H190.062" stroke="#459F63" stroke-width="6.98309" stroke-linecap="round"/>
<path d="M167.617 807.867H190.062" stroke="#459F63" stroke-width="6.98309" stroke-linecap="round"/>
<path d="M152.382 896.756C151.045 896.756 149.905 896.392 148.964 895.664C148.023 894.931 147.304 893.868 146.807 892.477C146.31 891.08 146.061 889.394 146.061 887.417C146.061 885.452 146.31 883.774 146.807 882.383C147.31 880.986 148.032 879.921 148.973 879.187C149.92 878.447 151.057 878.077 152.382 878.077C153.708 878.077 154.842 878.447 155.783 879.187C156.73 879.921 157.452 880.986 157.949 882.383C158.452 883.774 158.703 885.452 158.703 887.417C158.703 889.394 158.455 891.08 157.958 892.477C157.46 893.868 156.741 894.931 155.8 895.664C154.859 896.392 153.72 896.756 152.382 896.756ZM152.382 894.803C153.708 894.803 154.738 894.164 155.472 892.886C156.206 891.607 156.573 889.784 156.573 887.417C156.573 885.843 156.404 884.502 156.067 883.395C155.735 882.288 155.256 881.445 154.628 880.865C154.007 880.285 153.258 879.995 152.382 879.995C151.068 879.995 150.042 880.643 149.302 881.939C148.562 883.23 148.192 885.055 148.192 887.417C148.192 888.991 148.358 890.329 148.689 891.43C149.021 892.531 149.497 893.368 150.118 893.942C150.746 894.516 151.5 894.803 152.382 894.803Z" fill="#223C78"/>
<path d="M338.585 926.307V948.125H334.025V930.057H325.204V948.125H320.644V926.307H338.585ZM342.976 948.125V926.307H351.584C353.239 926.307 354.649 926.623 355.814 927.255C356.979 927.88 357.866 928.75 358.477 929.865C359.095 930.973 359.404 932.251 359.404 933.7C359.404 935.149 359.091 936.428 358.466 937.536C357.841 938.643 356.936 939.506 355.75 940.124C354.571 940.742 353.143 941.051 351.467 941.051H345.981V937.354H350.721C351.609 937.354 352.341 937.202 352.916 936.896C353.498 936.584 353.932 936.154 354.216 935.607C354.507 935.053 354.653 934.418 354.653 933.7C354.653 932.976 354.507 932.344 354.216 931.804C353.932 931.257 353.498 930.835 352.916 930.536C352.334 930.231 351.595 930.078 350.7 930.078H347.589V948.125H342.976ZM362.4 948.125V926.307H377.102V930.11H367.013V935.309H376.346V939.112H367.013V944.322H377.145V948.125H362.4ZM399.317 926.307V948.125H394.757V930.057H385.936V948.125H381.377V926.307H399.317ZM407.469 948.125H402.526L410.058 926.307H416.003L423.524 948.125H418.581L413.116 931.293H412.945L407.469 948.125ZM407.161 939.549H418.837V943.15H407.161V939.549ZM426.15 948.125V926.307H434.758C436.413 926.307 437.823 926.623 438.988 927.255C440.152 927.88 441.04 928.75 441.651 929.865C442.269 930.973 442.578 932.251 442.578 933.7C442.578 935.149 442.265 936.428 441.64 937.536C441.015 938.643 440.11 939.506 438.924 940.124C437.745 940.742 436.317 941.051 434.641 941.051H429.154V937.354H433.895C434.783 937.354 435.515 937.202 436.09 936.896C436.672 936.584 437.105 936.154 437.39 935.607C437.681 935.053 437.826 934.418 437.826 933.7C437.826 932.976 437.681 932.344 437.39 931.804C437.105 931.257 436.672 930.835 436.09 930.536C435.507 930.231 434.769 930.078 433.874 930.078H430.763V948.125H426.15ZM446.815 948.125H441.872L449.404 926.307H455.349L462.87 948.125H457.927L452.461 931.293H452.291L446.815 948.125ZM446.506 939.549H458.182V943.15H446.506V939.549ZM461.999 930.11V926.307H479.918V930.11H473.238V948.125H468.679V930.11H461.999ZM489.812 948.125V926.307H493.573L502.33 941.317H502.511V926.307H506.314V948.125H502.607L493.818 933.168H493.637V948.125H489.812ZM509.233 941.754V939.293H518.651V941.754H509.233ZM513.932 937.525C512.859 937.525 511.929 937.294 511.14 936.832C510.359 936.371 509.756 935.742 509.329 934.947C508.903 934.151 508.69 933.249 508.69 932.241V931.303C508.69 930.302 508.903 929.403 509.329 928.608C509.756 927.805 510.359 927.173 511.14 926.712C511.922 926.25 512.845 926.019 513.91 926.019C514.99 926.019 515.917 926.25 516.691 926.712C517.472 927.173 518.072 927.805 518.491 928.608C518.917 929.403 519.131 930.302 519.131 931.303V932.241C519.131 933.242 518.921 934.141 518.502 934.936C518.09 935.732 517.493 936.364 516.712 936.832C515.938 937.294 515.011 937.525 513.932 937.525ZM513.932 934.883C514.606 934.883 515.128 934.645 515.498 934.169C515.874 933.686 516.062 933.043 516.062 932.241V931.303C516.062 930.508 515.878 929.876 515.508 929.407C515.139 928.938 514.606 928.704 513.91 928.704C513.221 928.704 512.692 928.938 512.323 929.407C511.961 929.876 511.78 930.508 511.78 931.303V932.241C511.78 933.043 511.964 933.686 512.334 934.169C512.703 934.645 513.236 934.883 513.932 934.883ZM522.731 948.125V944.801L530.498 937.61C531.158 936.971 531.712 936.396 532.16 935.884C532.614 935.373 532.959 934.872 533.193 934.382C533.427 933.885 533.545 933.349 533.545 932.773C533.545 932.134 533.399 931.584 533.108 931.122C532.817 930.653 532.419 930.295 531.915 930.046C531.41 929.79 530.839 929.663 530.199 929.663C529.532 929.663 528.949 929.798 528.452 930.067C527.955 930.337 527.572 930.724 527.302 931.229C527.032 931.733 526.897 932.333 526.897 933.029H522.518C522.518 931.602 522.841 930.362 523.488 929.311C524.134 928.26 525.04 927.447 526.204 926.871C527.369 926.296 528.711 926.009 530.231 926.009C531.794 926.009 533.154 926.286 534.312 926.839C535.476 927.386 536.382 928.146 537.028 929.119C537.675 930.092 537.998 931.207 537.998 932.464C537.998 933.288 537.834 934.102 537.508 934.904C537.188 935.707 536.616 936.598 535.792 937.578C534.969 938.551 533.807 939.719 532.309 941.083L529.123 944.205V944.354H538.285V948.125H522.731Z" fill="#459F63"/>
<path d="M393.112 12.6364V49H385.424V19.9339H385.211L376.884 25.1541V18.3359L385.886 12.6364H393.112ZM416.013 49.799C412.959 49.7872 410.331 49.0355 408.129 47.544C405.939 46.0526 404.253 43.8923 403.069 41.0632C401.897 38.2341 401.317 34.831 401.329 30.8537C401.329 26.8883 401.915 23.5088 403.087 20.7152C404.27 17.9216 405.957 15.7969 408.147 14.3409C410.349 12.8731 412.971 12.1392 416.013 12.1392C419.055 12.1392 421.671 12.8731 423.861 14.3409C426.063 15.8087 427.755 17.9394 428.939 20.733C430.123 23.5147 430.709 26.8883 430.697 30.8537C430.697 34.8428 430.105 38.2519 428.921 41.081C427.749 43.91 426.069 46.0703 423.879 47.5618C421.689 49.0533 419.067 49.799 416.013 49.799ZM416.013 43.4247C418.096 43.4247 419.759 42.3771 421.002 40.282C422.245 38.1868 422.861 35.044 422.849 30.8537C422.849 28.0956 422.565 25.7992 421.997 23.9645C421.44 22.1297 420.647 20.7507 419.617 19.8274C418.599 18.9041 417.398 18.4425 416.013 18.4425C413.941 18.4425 412.284 19.4782 411.041 21.5497C409.798 23.6212 409.171 26.7225 409.159 30.8537C409.159 33.6473 409.437 35.9792 409.994 37.8494C410.562 39.7079 411.361 41.1046 412.391 42.0398C413.421 42.9631 414.628 43.4247 416.013 43.4247ZM450.437 49.799C447.383 49.7872 444.755 49.0355 442.553 47.544C440.363 46.0526 438.677 43.8923 437.493 41.0632C436.321 38.2341 435.741 34.831 435.753 30.8537C435.753 26.8883 436.339 23.5088 437.511 20.7152C438.694 17.9216 440.381 15.7969 442.571 14.3409C444.773 12.8731 447.395 12.1392 450.437 12.1392C453.479 12.1392 456.095 12.8731 458.285 14.3409C460.486 15.8087 462.179 17.9394 463.363 20.733C464.547 23.5147 465.132 26.8883 465.121 30.8537C465.121 34.8428 464.529 38.2519 463.345 41.081C462.173 43.91 460.492 46.0703 458.302 47.5618C456.113 49.0533 453.491 49.799 450.437 49.799ZM450.437 43.4247C452.52 43.4247 454.183 42.3771 455.426 40.282C456.669 38.1868 457.284 35.044 457.273 30.8537C457.273 28.0956 456.989 25.7992 456.42 23.9645C455.864 22.1297 455.071 20.7507 454.041 19.8274C453.023 18.9041 451.822 18.4425 450.437 18.4425C448.365 18.4425 446.708 19.4782 445.465 21.5497C444.222 23.6212 443.595 26.7225 443.583 30.8537C443.583 33.6473 443.861 35.9792 444.418 37.8494C444.986 39.7079 445.785 41.1046 446.815 42.0398C447.844 42.9631 449.052 43.4247 450.437 43.4247Z" fill="#459F63"/>
<path d="M975.471 589.497C972.819 589.497 970.458 589.041 968.386 588.13C966.326 587.207 964.699 585.94 963.503 584.33C962.319 582.709 961.71 580.838 961.674 578.719H969.416C969.463 579.607 969.753 580.388 970.286 581.063C970.83 581.726 971.552 582.241 972.452 582.608C973.352 582.975 974.364 583.158 975.488 583.158C976.66 583.158 977.696 582.951 978.596 582.537C979.495 582.123 980.199 581.549 980.708 580.815C981.217 580.081 981.472 579.234 981.472 578.276C981.472 577.305 981.2 576.447 980.655 575.701C980.123 574.943 979.353 574.352 978.347 573.925C977.353 573.499 976.169 573.286 974.796 573.286H971.404V567.64H974.796C975.956 567.64 976.98 567.439 977.868 567.036C978.767 566.634 979.466 566.077 979.963 565.367C980.46 564.645 980.708 563.805 980.708 562.846C980.708 561.934 980.489 561.135 980.051 560.449C979.625 559.75 979.022 559.206 978.24 558.815C977.471 558.425 976.571 558.229 975.542 558.229C974.5 558.229 973.547 558.419 972.683 558.798C971.819 559.165 971.126 559.691 970.605 560.378C970.085 561.064 969.806 561.869 969.771 562.793H962.402C962.438 560.697 963.036 558.851 964.196 557.253C965.356 555.655 966.918 554.406 968.883 553.506C970.86 552.595 973.091 552.139 975.577 552.139C978.087 552.139 980.282 552.595 982.164 553.506C984.047 554.418 985.508 555.649 986.55 557.2C987.604 558.738 988.124 560.467 988.113 562.384C988.124 564.42 987.491 566.119 986.213 567.48C984.946 568.841 983.295 569.705 981.259 570.072V570.357C983.934 570.7 985.97 571.629 987.367 573.144C988.775 574.647 989.474 576.53 989.462 578.79C989.474 580.862 988.876 582.703 987.669 584.312C986.473 585.922 984.822 587.189 982.715 588.112C980.608 589.036 978.193 589.497 975.471 589.497ZM1008.43 589.497C1005.78 589.497 1003.42 589.041 1001.34 588.13C999.285 587.207 997.658 585.94 996.462 584.33C995.278 582.709 994.669 580.838 994.633 578.719H1002.37C1002.42 579.607 1002.71 580.388 1003.24 581.063C1003.79 581.726 1004.51 582.241 1005.41 582.608C1006.31 582.975 1007.32 583.158 1008.45 583.158C1009.62 583.158 1010.65 582.951 1011.55 582.537C1012.45 582.123 1013.16 581.549 1013.67 580.815C1014.18 580.081 1014.43 579.234 1014.43 578.276C1014.43 577.305 1014.16 576.447 1013.61 575.701C1013.08 574.943 1012.31 574.352 1011.31 573.925C1010.31 573.499 1009.13 573.286 1007.75 573.286H1004.36V567.64H1007.75C1008.91 567.64 1009.94 567.439 1010.83 567.036C1011.73 566.634 1012.42 566.077 1012.92 565.367C1013.42 564.645 1013.67 563.805 1013.67 562.846C1013.67 561.934 1013.45 561.135 1013.01 560.449C1012.58 559.75 1011.98 559.206 1011.2 558.815C1010.43 558.425 1009.53 558.229 1008.5 558.229C1007.46 558.229 1006.51 558.419 1005.64 558.798C1004.78 559.165 1004.09 559.691 1003.56 560.378C1003.04 561.064 1002.77 561.869 1002.73 562.793H995.361C995.397 560.697 995.995 558.851 997.155 557.253C998.315 555.655 999.877 554.406 1001.84 553.506C1003.82 552.595 1006.05 552.139 1008.54 552.139C1011.05 552.139 1013.24 552.595 1015.12 553.506C1017.01 554.418 1018.47 555.649 1019.51 557.2C1020.56 558.738 1021.08 560.467 1021.07 562.384C1021.08 564.42 1020.45 566.119 1019.17 567.48C1017.91 568.841 1016.25 569.705 1014.22 570.072V570.357C1016.89 570.7 1018.93 571.629 1020.33 573.144C1021.73 574.647 1022.43 576.53 1022.42 578.79C1022.43 580.862 1021.84 582.703 1020.63 584.312C1019.43 585.922 1017.78 587.189 1015.67 588.112C1013.57 589.036 1011.15 589.497 1008.43 589.497Z" fill="#9CB0B8"/>
<path d="M1539.49 698V692.46L1552.43 680.475C1553.53 679.41 1554.46 678.451 1555.2 677.599C1555.96 676.746 1556.53 675.912 1556.92 675.095C1557.32 674.267 1557.51 673.373 1557.51 672.414C1557.51 671.349 1557.27 670.431 1556.78 669.662C1556.3 668.881 1555.63 668.283 1554.79 667.869C1553.95 667.442 1553 667.229 1551.94 667.229C1550.82 667.229 1549.85 667.454 1549.02 667.904C1548.19 668.354 1547.56 668.999 1547.11 669.839C1546.66 670.68 1546.43 671.68 1546.43 672.84H1539.13C1539.13 670.461 1539.67 668.395 1540.75 666.643C1541.83 664.892 1543.34 663.536 1545.28 662.577C1547.22 661.619 1549.46 661.139 1551.99 661.139C1554.59 661.139 1556.86 661.601 1558.79 662.524C1560.73 663.436 1562.24 664.702 1563.32 666.324C1564.39 667.946 1564.93 669.804 1564.93 671.899C1564.93 673.272 1564.66 674.628 1564.12 675.965C1563.58 677.303 1562.63 678.788 1561.26 680.422C1559.88 682.044 1557.95 683.991 1555.45 686.263L1550.14 691.466V691.714H1565.41V698H1539.49ZM1585.24 698.799C1582.19 698.787 1579.56 698.036 1577.36 696.544C1575.17 695.053 1573.48 692.892 1572.3 690.063C1571.12 687.234 1570.54 683.831 1570.56 679.854C1570.56 675.888 1571.14 672.509 1572.31 669.715C1573.5 666.922 1575.18 664.797 1577.37 663.341C1579.58 661.873 1582.2 661.139 1585.24 661.139C1588.28 661.139 1590.9 661.873 1593.09 663.341C1595.29 664.809 1596.98 666.939 1598.17 669.733C1599.35 672.515 1599.94 675.888 1599.92 679.854C1599.92 683.843 1599.33 687.252 1598.15 690.081C1596.98 692.91 1595.3 695.07 1593.11 696.562C1590.92 698.053 1588.29 698.799 1585.24 698.799ZM1585.24 692.425C1587.32 692.425 1588.99 691.377 1590.23 689.282C1591.47 687.187 1592.09 684.044 1592.08 679.854C1592.08 677.096 1591.79 674.799 1591.22 672.964C1590.67 671.13 1589.87 669.751 1588.84 668.827C1587.83 667.904 1586.63 667.442 1585.24 667.442C1583.17 667.442 1581.51 668.478 1580.27 670.55C1579.03 672.621 1578.4 675.723 1578.39 679.854C1578.39 682.647 1578.66 684.979 1579.22 686.849C1579.79 688.708 1580.59 690.105 1581.62 691.04C1582.65 691.963 1583.86 692.425 1585.24 692.425Z" fill="#656669"/>
<path d="M870.694 926.307V948.125H866.134V930.057H857.313V948.125H852.754V926.307H870.694ZM875.086 948.125V926.307H883.694C885.349 926.307 886.758 926.623 887.923 927.255C889.088 927.88 889.976 928.75 890.586 929.865C891.204 930.973 891.513 932.251 891.513 933.7C891.513 935.149 891.201 936.428 890.576 937.536C889.951 938.643 889.045 939.506 887.859 940.124C886.68 940.742 885.253 941.051 883.577 941.051H878.09V937.354H882.831C883.719 937.354 884.45 937.202 885.025 936.896C885.608 936.584 886.041 936.154 886.325 935.607C886.616 935.053 886.762 934.418 886.762 933.7C886.762 932.976 886.616 932.344 886.325 931.804C886.041 931.257 885.608 930.835 885.025 930.536C884.443 930.231 883.704 930.078 882.809 930.078H879.699V948.125H875.086ZM894.51 948.125V926.307H909.211V930.11H899.123V935.309H908.455V939.112H899.123V944.322H909.254V948.125H894.51ZM931.426 926.307V948.125H926.867V930.057H918.046V948.125H913.486V926.307H931.426ZM939.579 948.125H934.636L942.168 926.307H948.112L955.634 948.125H950.69L945.225 931.293H945.055L939.579 948.125ZM939.27 939.549H950.946V943.15H939.27V939.549ZM958.26 948.125V926.307H966.868C968.522 926.307 969.932 926.623 971.097 927.255C972.262 927.88 973.15 928.75 973.76 929.865C974.378 930.973 974.687 932.251 974.687 933.7C974.687 935.149 974.375 936.428 973.75 937.536C973.125 938.643 972.219 939.506 971.033 940.124C969.854 940.742 968.426 941.051 966.75 941.051H961.264V937.354H966.005C966.892 937.354 967.624 937.202 968.199 936.896C968.782 936.584 969.215 936.154 969.499 935.607C969.79 935.053 969.936 934.418 969.936 933.7C969.936 932.976 969.79 932.344 969.499 931.804C969.215 931.257 968.782 930.835 968.199 930.536C967.617 930.231 966.878 930.078 965.983 930.078H962.873V948.125H958.26ZM978.925 948.125H973.981L981.513 926.307H987.458L994.979 948.125H990.036L984.571 931.293H984.4L978.925 948.125ZM978.616 939.549H990.292V943.15H978.616V939.549ZM994.108 930.11V926.307H1012.03V930.11H1005.35V948.125H1000.79V930.11H994.108ZM1021.92 948.125V926.307H1025.68L1034.44 941.317H1034.62V926.307H1038.42V948.125H1034.72L1025.93 933.168H1025.75V948.125H1021.92ZM1041.34 941.754V939.293H1050.76V941.754H1041.34ZM1046.04 937.525C1044.97 937.525 1044.04 937.294 1043.25 936.832C1042.47 936.371 1041.86 935.742 1041.44 934.947C1041.01 934.151 1040.8 933.249 1040.8 932.241V931.303C1040.8 930.302 1041.01 929.403 1041.44 928.608C1041.86 927.805 1042.47 927.173 1043.25 926.712C1044.03 926.25 1044.95 926.019 1046.02 926.019C1047.1 926.019 1048.03 926.25 1048.8 926.712C1049.58 927.173 1050.18 927.805 1050.6 928.608C1051.03 929.403 1051.24 930.302 1051.24 931.303V932.241C1051.24 933.242 1051.03 934.141 1050.61 934.936C1050.2 935.732 1049.6 936.364 1048.82 936.832C1048.05 937.294 1047.12 937.525 1046.04 937.525ZM1046.04 934.883C1046.72 934.883 1047.24 934.645 1047.61 934.169C1047.98 933.686 1048.17 933.043 1048.17 932.241V931.303C1048.17 930.508 1047.99 929.876 1047.62 929.407C1047.25 928.938 1046.72 928.704 1046.02 928.704C1045.33 928.704 1044.8 928.938 1044.43 929.407C1044.07 929.876 1043.89 930.508 1043.89 931.303V932.241C1043.89 933.043 1044.07 933.686 1044.44 934.169C1044.81 934.645 1045.34 934.883 1046.04 934.883ZM1064.33 926.307V948.125H1059.72V930.685H1059.59L1054.6 933.817V929.727L1060 926.307H1064.33Z" fill="#223C78"/>
<path d="M1411.15 926.307V948.125H1406.59V930.057H1397.76V948.125H1393.2V926.307H1411.15ZM1415.54 948.125V926.307H1424.14C1425.8 926.307 1427.21 926.623 1428.37 927.255C1429.54 927.88 1430.43 928.75 1431.04 929.865C1431.66 930.973 1431.96 932.251 1431.96 933.7C1431.96 935.149 1431.65 936.428 1431.03 937.536C1430.4 938.643 1429.5 939.506 1428.31 940.124C1427.13 940.742 1425.7 941.051 1424.03 941.051H1418.54V937.354H1423.28C1424.17 937.354 1424.9 937.202 1425.48 936.896C1426.06 936.584 1426.49 936.154 1426.78 935.607C1427.07 935.053 1427.21 934.418 1427.21 933.7C1427.21 932.976 1427.07 932.344 1426.78 931.804C1426.49 931.257 1426.06 930.835 1425.48 930.536C1424.89 930.231 1424.16 930.078 1423.26 930.078H1420.15V948.125H1415.54ZM1434.96 948.125V926.307H1449.66V930.11H1439.57V935.309H1448.91V939.112H1439.57V944.322H1449.71V948.125H1434.96ZM1471.88 926.307V948.125H1467.32V930.057H1458.5V948.125H1453.94V926.307H1471.88ZM1480.03 948.125H1475.09L1482.62 926.307H1488.56L1496.08 948.125H1491.14L1485.68 931.293H1485.51L1480.03 948.125ZM1479.72 939.549H1491.4V943.15H1479.72V939.549ZM1498.71 948.125V926.307H1507.32C1508.97 926.307 1510.38 926.623 1511.55 927.255C1512.71 927.88 1513.6 928.75 1514.21 929.865C1514.83 930.973 1515.14 932.251 1515.14 933.7C1515.14 935.149 1514.83 936.428 1514.2 937.536C1513.58 938.643 1512.67 939.506 1511.48 940.124C1510.31 940.742 1508.88 941.051 1507.2 941.051H1501.72V937.354H1506.46C1507.34 937.354 1508.08 937.202 1508.65 936.896C1509.23 936.584 1509.67 936.154 1509.95 935.607C1510.24 935.053 1510.39 934.418 1510.39 933.7C1510.39 932.976 1510.24 932.344 1509.95 931.804C1509.67 931.257 1509.23 930.835 1508.65 930.536C1508.07 930.231 1507.33 930.078 1506.43 930.078H1503.32V948.125H1498.71ZM1519.38 948.125H1514.43L1521.96 926.307H1527.91L1535.43 948.125H1530.49L1525.02 931.293H1524.85L1519.38 948.125ZM1519.07 939.549H1530.74V943.15H1519.07V939.549ZM1534.56 930.11V926.307H1552.48V930.11H1545.8V948.125H1541.24V930.11H1534.56ZM1562.37 948.125V926.307H1566.13L1574.89 941.317H1575.07V926.307H1578.88V948.125H1575.17L1566.38 933.168H1566.2V948.125H1562.37ZM1581.79 941.754V939.293H1591.21V941.754H1581.79ZM1586.49 937.525C1585.42 937.525 1584.49 937.294 1583.7 936.832C1582.92 936.371 1582.32 935.742 1581.89 934.947C1581.46 934.151 1581.25 933.249 1581.25 932.241V931.303C1581.25 930.302 1581.46 929.403 1581.89 928.608C1582.32 927.805 1582.92 927.173 1583.7 926.712C1584.48 926.25 1585.41 926.019 1586.47 926.019C1587.55 926.019 1588.48 926.25 1589.25 926.712C1590.03 927.173 1590.63 927.805 1591.05 928.608C1591.48 929.403 1591.69 930.302 1591.69 931.303V932.241C1591.69 933.242 1591.48 934.141 1591.06 934.936C1590.65 935.732 1590.05 936.364 1589.27 936.832C1588.5 937.294 1587.57 937.525 1586.49 937.525ZM1586.49 934.883C1587.17 934.883 1587.69 934.645 1588.06 934.169C1588.43 933.686 1588.62 933.043 1588.62 932.241V931.303C1588.62 930.508 1588.44 929.876 1588.07 929.407C1587.7 928.938 1587.17 928.704 1586.47 928.704C1585.78 928.704 1585.25 928.938 1584.88 929.407C1584.52 929.876 1584.34 930.508 1584.34 931.303V932.241C1584.34 933.043 1584.52 933.686 1584.89 934.169C1585.26 934.645 1585.8 934.883 1586.49 934.883ZM1603.36 948.423C1601.77 948.423 1600.35 948.15 1599.11 947.603C1597.87 947.049 1596.89 946.289 1596.18 945.323C1595.47 944.35 1595.1 943.228 1595.08 941.957H1599.72C1599.75 942.489 1599.93 942.958 1600.25 943.363C1600.57 943.761 1601.01 944.07 1601.55 944.29C1602.09 944.51 1602.69 944.62 1603.37 944.62C1604.07 944.62 1604.69 944.496 1605.23 944.247C1605.77 943.999 1606.19 943.654 1606.5 943.214C1606.8 942.773 1606.96 942.266 1606.96 941.69C1606.96 941.108 1606.79 940.593 1606.47 940.146C1606.15 939.691 1605.69 939.336 1605.08 939.08C1604.49 938.825 1603.78 938.697 1602.95 938.697H1600.92V935.309H1602.95C1603.65 935.309 1604.26 935.188 1604.79 934.947C1605.33 934.705 1605.75 934.371 1606.05 933.945C1606.35 933.512 1606.5 933.008 1606.5 932.433C1606.5 931.886 1606.37 931.406 1606.11 930.994C1605.85 930.575 1605.49 930.249 1605.02 930.014C1604.56 929.78 1604.02 929.663 1603.4 929.663C1602.77 929.663 1602.2 929.776 1601.68 930.004C1601.17 930.224 1600.75 930.54 1600.44 930.952C1600.12 931.364 1599.96 931.847 1599.94 932.401H1595.52C1595.54 931.143 1595.9 930.036 1596.59 929.077C1597.29 928.118 1598.23 927.369 1599.4 926.829C1600.59 926.282 1601.93 926.009 1603.42 926.009C1604.93 926.009 1606.24 926.282 1607.37 926.829C1608.5 927.376 1609.38 928.114 1610 929.045C1610.64 929.968 1610.95 931.005 1610.94 932.156C1610.95 933.377 1610.57 934.396 1609.8 935.213C1609.04 936.03 1608.05 936.548 1606.83 936.768V936.939C1608.43 937.145 1609.66 937.702 1610.49 938.612C1611.34 939.513 1611.76 940.643 1611.75 941.999C1611.76 943.242 1611.4 944.347 1610.68 945.312C1609.96 946.278 1608.97 947.038 1607.7 947.592C1606.44 948.146 1604.99 948.423 1603.36 948.423Z" fill="#223C78"/>
<path d="M167.617 892.961H190.062" stroke="#459F63" stroke-width="6.98309" stroke-linecap="round"/>
<path d="M229.336 893.844L1649 893.844" stroke="#223C78" stroke-width="4" stroke-linecap="round"/>
<path d="M1444 728.5H1560C1575.74 728.5 1588.5 741.26 1588.5 757V890.5H1415.5V757C1415.5 741.26 1428.26 728.5 1444 728.5Z" fill="url(#paint0_linear_3818_2616)" stroke="url(#paint1_linear_3818_2616)" stroke-width="3"/>
<path d="M904.051 609.5H997.949C1019.79 609.5 1037.5 627.208 1037.5 649.051V890.5H864.5V649.051C864.5 627.208 882.208 609.5 904.051 609.5Z" fill="url(#paint2_linear_3818_2616)" stroke="url(#paint3_linear_3818_2616)" stroke-width="3"/>
<path d="M705 468.5H838C859.263 468.5 876.5 485.737 876.5 507V573C876.5 594.263 859.263 611.5 838 611.5H705C683.737 611.5 666.5 594.263 666.5 573V507C666.5 485.737 683.737 468.5 705 468.5Z" fill="url(#paint4_linear_3818_2616)" stroke="url(#paint5_linear_3818_2616)" stroke-width="3"/>
<path d="M743.827 506.007V509.576H735.282V506.007H743.827ZM736.774 499.636V516H732.438V499.636H736.774ZM746.671 499.636V516H742.367V499.636H746.671ZM754.858 516.309C753.814 516.309 752.884 516.128 752.067 515.766C751.25 515.396 750.604 514.853 750.128 514.136C749.659 513.411 749.425 512.509 749.425 511.43C749.425 510.521 749.592 509.757 749.926 509.139C750.259 508.521 750.714 508.024 751.289 507.648C751.865 507.271 752.518 506.987 753.249 506.795C753.988 506.604 754.762 506.469 755.572 506.391C756.524 506.291 757.291 506.199 757.873 506.114C758.455 506.021 758.878 505.886 759.141 505.709C759.404 505.531 759.535 505.268 759.535 504.92V504.857C759.535 504.182 759.322 503.66 758.896 503.29C758.477 502.921 757.88 502.737 757.106 502.737C756.289 502.737 755.639 502.918 755.156 503.28C754.673 503.635 754.354 504.082 754.198 504.622L750 504.281C750.213 503.287 750.632 502.428 751.257 501.703C751.882 500.972 752.688 500.411 753.676 500.02C754.67 499.622 755.82 499.423 757.127 499.423C758.036 499.423 758.906 499.53 759.737 499.743C760.575 499.956 761.318 500.286 761.964 500.734C762.617 501.181 763.132 501.756 763.509 502.46C763.885 503.156 764.073 503.99 764.073 504.963V516H759.769V513.731H759.642C759.379 514.242 759.027 514.693 758.587 515.084C758.146 515.467 757.617 515.769 756.999 515.989C756.382 516.202 755.668 516.309 754.858 516.309ZM756.158 513.177C756.825 513.177 757.415 513.045 757.926 512.783C758.438 512.513 758.839 512.151 759.13 511.696C759.421 511.241 759.567 510.727 759.567 510.151V508.415C759.425 508.507 759.23 508.592 758.981 508.67C758.74 508.741 758.466 508.809 758.161 508.873C757.855 508.93 757.55 508.983 757.244 509.033C756.939 509.075 756.662 509.114 756.414 509.15C755.881 509.228 755.416 509.352 755.018 509.523C754.62 509.693 754.311 509.924 754.091 510.215C753.871 510.499 753.761 510.854 753.761 511.281C753.761 511.898 753.985 512.371 754.432 512.697C754.887 513.017 755.462 513.177 756.158 513.177ZM782.869 516.298C781.746 516.291 780.663 516.103 779.619 515.734C778.582 515.364 777.652 514.764 776.828 513.933C776.004 513.102 775.351 512.001 774.868 510.631C774.392 509.26 774.154 507.577 774.154 505.581C774.161 503.749 774.371 502.112 774.783 500.67C775.202 499.221 775.798 497.992 776.572 496.984C777.354 495.975 778.288 495.208 779.374 494.683C780.461 494.15 781.679 493.884 783.028 493.884C784.484 493.884 785.77 494.168 786.885 494.736C788 495.297 788.895 496.06 789.57 497.026C790.251 497.992 790.663 499.075 790.805 500.276H786.256C786.079 499.516 785.706 498.919 785.138 498.486C784.57 498.053 783.866 497.836 783.028 497.836C781.608 497.836 780.528 498.454 779.79 499.69C779.058 500.925 778.685 502.605 778.671 504.729H778.82C779.147 504.082 779.587 503.532 780.141 503.077C780.702 502.616 781.338 502.264 782.048 502.023C782.766 501.774 783.522 501.65 784.317 501.65C785.61 501.65 786.761 501.955 787.769 502.566C788.778 503.17 789.573 504.001 790.156 505.059C790.738 506.117 791.029 507.328 791.029 508.692C791.029 510.169 790.685 511.483 789.996 512.634C789.314 513.784 788.359 514.686 787.13 515.339C785.908 515.986 784.488 516.305 782.869 516.298ZM782.847 512.676C783.558 512.676 784.193 512.506 784.754 512.165C785.315 511.824 785.756 511.362 786.075 510.78C786.395 510.197 786.555 509.544 786.555 508.82C786.555 508.095 786.395 507.445 786.075 506.87C785.763 506.295 785.33 505.837 784.776 505.496C784.222 505.155 783.589 504.984 782.879 504.984C782.347 504.984 781.853 505.084 781.398 505.283C780.951 505.482 780.557 505.759 780.216 506.114C779.882 506.469 779.619 506.881 779.428 507.349C779.236 507.811 779.14 508.305 779.14 508.83C779.14 509.533 779.3 510.176 779.619 510.759C779.946 511.341 780.386 511.806 780.94 512.154C781.501 512.502 782.137 512.676 782.847 512.676ZM795.163 516L804.207 498.102V497.953H793.671V494.182H808.98V498.006L799.925 516H795.163ZM692.257 552V535.636H706.565V552H702.229V539.205H696.54V552H692.257ZM714.853 552.309C713.809 552.309 712.879 552.128 712.062 551.766C711.245 551.396 710.599 550.853 710.123 550.136C709.654 549.411 709.42 548.509 709.42 547.43C709.42 546.521 709.587 545.757 709.921 545.139C710.255 544.521 710.709 544.024 711.284 543.648C711.86 543.271 712.513 542.987 713.245 542.795C713.983 542.604 714.757 542.469 715.567 542.391C716.519 542.291 717.286 542.199 717.868 542.114C718.451 542.021 718.873 541.886 719.136 541.709C719.399 541.531 719.53 541.268 719.53 540.92V540.857C719.53 540.182 719.317 539.66 718.891 539.29C718.472 538.921 717.875 538.737 717.101 538.737C716.284 538.737 715.634 538.918 715.152 539.28C714.669 539.635 714.349 540.082 714.193 540.622L709.995 540.281C710.208 539.287 710.627 538.428 711.252 537.703C711.877 536.972 712.684 536.411 713.671 536.02C714.665 535.622 715.816 535.423 717.122 535.423C718.032 535.423 718.902 535.53 719.733 535.743C720.571 535.956 721.313 536.286 721.959 536.734C722.612 537.181 723.127 537.756 723.504 538.46C723.88 539.156 724.068 539.99 724.068 540.963V552H719.764V549.731H719.637C719.374 550.242 719.022 550.693 718.582 551.084C718.142 551.467 717.612 551.769 716.995 551.989C716.377 552.202 715.663 552.309 714.853 552.309ZM716.153 549.177C716.821 549.177 717.41 549.045 717.921 548.783C718.433 548.513 718.834 548.151 719.125 547.696C719.416 547.241 719.562 546.727 719.562 546.151V544.415C719.42 544.507 719.225 544.592 718.976 544.67C718.735 544.741 718.461 544.809 718.156 544.873C717.85 544.93 717.545 544.983 717.24 545.033C716.934 545.075 716.657 545.114 716.409 545.15C715.876 545.228 715.411 545.352 715.013 545.523C714.615 545.693 714.306 545.924 714.086 546.215C713.866 546.499 713.756 546.854 713.756 547.281C713.756 547.898 713.98 548.371 714.427 548.697C714.882 549.017 715.457 549.177 716.153 549.177ZM741.897 535.636V548.868H744.507V557.263H740.097V552H727.589V535.636H731.925V548.431H737.614V535.636H741.897ZM751.642 546.013L757.533 535.636H762.008V552H757.683V541.592L751.813 552H747.306V535.636H751.642V546.013ZM773.103 552.32C771.42 552.32 769.971 551.979 768.757 551.297C767.549 550.608 766.619 549.635 765.966 548.378C765.312 547.114 764.986 545.619 764.986 543.893C764.986 542.21 765.312 540.732 765.966 539.461C766.619 538.19 767.539 537.199 768.725 536.489C769.918 535.778 771.317 535.423 772.922 535.423C774.002 535.423 775.007 535.597 775.937 535.945C776.875 536.286 777.691 536.801 778.388 537.49C779.091 538.179 779.638 539.045 780.028 540.089C780.419 541.126 780.614 542.341 780.614 543.733V544.979H766.797V542.167H776.342C776.342 541.513 776.2 540.935 775.916 540.43C775.632 539.926 775.238 539.532 774.733 539.248C774.236 538.957 773.657 538.811 772.997 538.811C772.308 538.811 771.697 538.971 771.165 539.29C770.639 539.603 770.227 540.026 769.929 540.558C769.63 541.084 769.478 541.67 769.471 542.316V544.99C769.471 545.8 769.62 546.499 769.918 547.089C770.223 547.678 770.653 548.133 771.207 548.452C771.761 548.772 772.418 548.932 773.178 548.932C773.682 548.932 774.144 548.861 774.563 548.719C774.982 548.577 775.341 548.364 775.639 548.08C775.937 547.795 776.165 547.447 776.321 547.036L780.518 547.312C780.305 548.321 779.868 549.202 779.208 549.955C778.554 550.7 777.709 551.283 776.672 551.702C775.642 552.114 774.453 552.32 773.103 552.32ZM794.964 542.007V545.576H786.42V542.007H794.964ZM787.912 535.636V552H783.576V535.636H787.912ZM797.809 535.636V552H793.505V535.636H797.809ZM799.686 539.205V535.636H814.516V539.205H809.242V552H804.917V539.205H799.686ZM824.075 552.32C822.42 552.32 820.989 551.968 819.781 551.265C818.581 550.555 817.654 549.567 817.001 548.303C816.347 547.032 816.021 545.558 816.021 543.882C816.021 542.192 816.347 540.714 817.001 539.45C817.654 538.179 818.581 537.192 819.781 536.489C820.989 535.778 822.42 535.423 824.075 535.423C825.729 535.423 827.157 535.778 828.357 536.489C829.565 537.192 830.495 538.179 831.149 539.45C831.802 540.714 832.129 542.192 832.129 543.882C832.129 545.558 831.802 547.032 831.149 548.303C830.495 549.567 829.565 550.555 828.357 551.265C827.157 551.968 825.729 552.32 824.075 552.32ZM824.096 548.804C824.849 548.804 825.477 548.591 825.982 548.165C826.486 547.732 826.866 547.142 827.122 546.396C827.384 545.651 827.516 544.802 827.516 543.85C827.516 542.898 827.384 542.05 827.122 541.304C826.866 540.558 826.486 539.969 825.982 539.536C825.477 539.102 824.849 538.886 824.096 538.886C823.336 538.886 822.697 539.102 822.178 539.536C821.667 539.969 821.28 540.558 821.017 541.304C820.761 542.05 820.634 542.898 820.634 543.85C820.634 544.802 820.761 545.651 821.017 546.396C821.28 547.142 821.667 547.732 822.178 548.165C822.697 548.591 823.336 548.804 824.096 548.804ZM835.08 552V535.636H842.058C844.075 535.636 845.669 536.02 846.841 536.787C848.013 537.554 848.599 538.644 848.599 540.058C848.599 540.945 848.269 541.684 847.608 542.273C846.948 542.863 846.031 543.261 844.859 543.467C845.84 543.538 846.674 543.761 847.363 544.138C848.059 544.507 848.588 544.987 848.95 545.576C849.32 546.165 849.504 546.819 849.504 547.536C849.504 548.467 849.256 549.266 848.759 549.933C848.269 550.601 847.548 551.112 846.596 551.467C845.651 551.822 844.497 552 843.134 552H835.08ZM839.309 548.602H843.134C843.766 548.602 844.259 548.452 844.614 548.154C844.977 547.849 845.158 547.433 845.158 546.908C845.158 546.325 844.977 545.867 844.614 545.533C844.259 545.2 843.766 545.033 843.134 545.033H839.309V548.602ZM839.309 542.369H842.153C842.608 542.369 842.995 542.305 843.315 542.178C843.641 542.043 843.89 541.851 844.06 541.602C844.238 541.354 844.327 541.059 844.327 540.718C844.327 540.214 844.124 539.82 843.72 539.536C843.315 539.251 842.761 539.109 842.058 539.109H839.309V542.369ZM727.776 565.628L729.161 568.589C728.699 568.973 728.188 569.257 727.627 569.442C727.066 569.619 726.394 569.737 725.613 569.793C724.839 569.85 723.894 569.889 722.779 569.911C721.515 569.925 720.485 570.127 719.69 570.518C718.894 570.908 718.291 571.523 717.879 572.361C717.467 573.192 717.197 574.278 717.069 575.621H717.229C717.719 574.619 718.408 573.845 719.296 573.298C720.191 572.751 721.295 572.478 722.609 572.478C724.001 572.478 725.219 572.783 726.263 573.394C727.314 574.005 728.131 574.882 728.713 576.026C729.296 577.169 729.587 578.54 729.587 580.138C729.587 581.8 729.26 583.245 728.607 584.474C727.96 585.695 727.041 586.643 725.848 587.318C724.654 587.986 723.234 588.32 721.586 588.32C719.931 588.32 718.504 587.972 717.304 587.276C716.11 586.58 715.187 585.553 714.534 584.197C713.887 582.84 713.564 581.171 713.564 579.19V577.847C713.564 573.906 714.331 570.983 715.865 569.08C717.399 567.176 719.654 566.21 722.63 566.182C723.44 566.168 724.171 566.164 724.825 566.171C725.478 566.178 726.05 566.146 726.54 566.075C727.037 566.004 727.449 565.855 727.776 565.628ZM721.608 584.804C722.304 584.804 722.9 584.623 723.397 584.261C723.902 583.898 724.289 583.38 724.559 582.705C724.835 582.031 724.974 581.224 724.974 580.287C724.974 579.357 724.835 578.568 724.559 577.922C724.289 577.268 723.902 576.771 723.397 576.43C722.893 576.089 722.289 575.919 721.586 575.919C721.061 575.919 720.588 576.015 720.169 576.207C719.75 576.398 719.392 576.683 719.093 577.059C718.802 577.428 718.575 577.886 718.411 578.433C718.255 578.973 718.177 579.591 718.177 580.287C718.177 581.686 718.479 582.79 719.083 583.6C719.693 584.403 720.535 584.804 721.608 584.804ZM739.993 588.32C738.338 588.32 736.907 587.968 735.699 587.265C734.499 586.555 733.572 585.567 732.919 584.303C732.265 583.032 731.939 581.558 731.939 579.882C731.939 578.192 732.265 576.714 732.919 575.45C733.572 574.179 734.499 573.192 735.699 572.489C736.907 571.778 738.338 571.423 739.993 571.423C741.647 571.423 743.075 571.778 744.275 572.489C745.483 573.192 746.413 574.179 747.066 575.45C747.72 576.714 748.047 578.192 748.047 579.882C748.047 581.558 747.72 583.032 747.066 584.303C746.413 585.567 745.483 586.555 744.275 587.265C743.075 587.968 741.647 588.32 739.993 588.32ZM740.014 584.804C740.767 584.804 741.395 584.591 741.9 584.165C742.404 583.732 742.784 583.142 743.04 582.396C743.302 581.651 743.434 580.802 743.434 579.85C743.434 578.898 743.302 578.05 743.04 577.304C742.784 576.558 742.404 575.969 741.9 575.536C741.395 575.102 740.767 574.886 740.014 574.886C739.254 574.886 738.615 575.102 738.096 575.536C737.585 575.969 737.198 576.558 736.935 577.304C736.679 578.05 736.552 578.898 736.552 579.85C736.552 580.802 736.679 581.651 736.935 582.396C737.198 583.142 737.585 583.732 738.096 584.165C738.615 584.591 739.254 584.804 740.014 584.804ZM750.039 588L750.017 584.399H750.561C750.944 584.399 751.275 584.307 751.552 584.122C751.836 583.93 752.07 583.621 752.255 583.195C752.439 582.769 752.585 582.205 752.691 581.501C752.798 580.791 752.869 579.918 752.905 578.881L753.171 571.636H765.614V588H761.289V575.205H757.251L756.995 580.202C756.932 581.572 756.765 582.751 756.495 583.739C756.232 584.726 755.866 585.536 755.397 586.168C754.929 586.793 754.364 587.254 753.704 587.553C753.043 587.851 752.276 588 751.402 588H750.039ZM771.977 576.665H776.867C779.033 576.665 780.723 577.183 781.938 578.22C783.152 579.25 783.76 580.628 783.76 582.354C783.76 583.476 783.486 584.463 782.939 585.315C782.392 586.161 781.604 586.821 780.574 587.297C779.544 587.766 778.309 588 776.867 588H769.132V571.636H773.468V584.431H776.867C777.627 584.431 778.252 584.239 778.742 583.856C779.232 583.472 779.48 582.982 779.487 582.386C779.48 581.754 779.232 581.239 778.742 580.841C778.252 580.436 777.627 580.234 776.867 580.234H771.977V576.665ZM786.769 571.636H791.105V584.399H795.718V571.636H800.054V584.399H804.667V571.636H809.003V588H786.769V571.636ZM819.978 588.32C818.295 588.32 816.846 587.979 815.632 587.297C814.424 586.608 813.494 585.635 812.841 584.378C812.187 583.114 811.861 581.619 811.861 579.893C811.861 578.21 812.187 576.732 812.841 575.461C813.494 574.19 814.414 573.199 815.6 572.489C816.793 571.778 818.192 571.423 819.797 571.423C820.877 571.423 821.882 571.597 822.812 571.945C823.75 572.286 824.566 572.801 825.263 573.49C825.966 574.179 826.513 575.045 826.903 576.089C827.294 577.126 827.489 578.341 827.489 579.733V580.979H813.672V578.167H823.217C823.217 577.513 823.075 576.935 822.791 576.43C822.507 575.926 822.113 575.532 821.608 575.248C821.111 574.957 820.532 574.811 819.872 574.811C819.183 574.811 818.572 574.971 818.04 575.29C817.514 575.603 817.102 576.026 816.804 576.558C816.505 577.084 816.353 577.67 816.346 578.316V580.99C816.346 581.8 816.495 582.499 816.793 583.089C817.098 583.678 817.528 584.133 818.082 584.452C818.636 584.772 819.293 584.932 820.053 584.932C820.557 584.932 821.019 584.861 821.438 584.719C821.857 584.577 822.216 584.364 822.514 584.08C822.812 583.795 823.04 583.447 823.196 583.036L827.393 583.312C827.18 584.321 826.743 585.202 826.083 585.955C825.429 586.7 824.584 587.283 823.547 587.702C822.517 588.114 821.328 588.32 819.978 588.32Z" fill="white"/>
<path d="M1251 541.5H1415C1430.74 541.5 1443.5 554.26 1443.5 570V660C1443.5 675.74 1430.74 688.5 1415 688.5H1251C1235.26 688.5 1222.5 675.74 1222.5 660V570C1222.5 554.26 1235.26 541.5 1251 541.5Z" fill="url(#paint6_linear_3818_2616)" stroke="url(#paint7_linear_3818_2616)" stroke-width="3"/>
<path d="M1300.91 576.007V579.576H1292.36V576.007H1300.91ZM1293.85 569.636V586H1289.52V569.636H1293.85ZM1303.75 569.636V586H1299.45V569.636H1303.75ZM1311.94 586.309C1310.89 586.309 1309.96 586.128 1309.15 585.766C1308.33 585.396 1307.68 584.853 1307.21 584.136C1306.74 583.411 1306.5 582.509 1306.5 581.43C1306.5 580.521 1306.67 579.757 1307 579.139C1307.34 578.521 1307.79 578.024 1308.37 577.648C1308.94 577.271 1309.6 576.987 1310.33 576.795C1311.07 576.604 1311.84 576.469 1312.65 576.391C1313.6 576.291 1314.37 576.199 1314.95 576.114C1315.53 576.021 1315.96 575.886 1316.22 575.709C1316.48 575.531 1316.61 575.268 1316.61 574.92V574.857C1316.61 574.182 1316.4 573.66 1315.97 573.29C1315.56 572.921 1314.96 572.737 1314.19 572.737C1313.37 572.737 1312.72 572.918 1312.24 573.28C1311.75 573.635 1311.43 574.082 1311.28 574.622L1307.08 574.281C1307.29 573.287 1307.71 572.428 1308.34 571.703C1308.96 570.972 1309.77 570.411 1310.75 570.02C1311.75 569.622 1312.9 569.423 1314.21 569.423C1315.12 569.423 1315.99 569.53 1316.82 569.743C1317.65 569.956 1318.4 570.286 1319.04 570.734C1319.7 571.181 1320.21 571.756 1320.59 572.46C1320.96 573.156 1321.15 573.99 1321.15 574.963V586H1316.85V583.731H1316.72C1316.46 584.242 1316.11 584.693 1315.67 585.084C1315.23 585.467 1314.7 585.769 1314.08 585.989C1313.46 586.202 1312.75 586.309 1311.94 586.309ZM1313.24 583.177C1313.9 583.177 1314.49 583.045 1315.01 582.783C1315.52 582.513 1315.92 582.151 1316.21 581.696C1316.5 581.241 1316.65 580.727 1316.65 580.151V578.415C1316.5 578.507 1316.31 578.592 1316.06 578.67C1315.82 578.741 1315.55 578.809 1315.24 578.873C1314.93 578.93 1314.63 578.983 1314.32 579.033C1314.02 579.075 1313.74 579.114 1313.49 579.15C1312.96 579.228 1312.49 579.352 1312.1 579.523C1311.7 579.693 1311.39 579.924 1311.17 580.215C1310.95 580.499 1310.84 580.854 1310.84 581.281C1310.84 581.898 1311.06 582.371 1311.51 582.697C1311.97 583.017 1312.54 583.177 1313.24 583.177ZM1339.71 586.298C1338.07 586.298 1336.61 586.032 1335.33 585.499C1334.06 584.96 1333.07 584.224 1332.34 583.294C1331.62 582.364 1331.25 581.309 1331.25 580.13C1331.25 579.221 1331.46 578.386 1331.87 577.626C1332.29 576.859 1332.86 576.224 1333.58 575.719C1334.29 575.208 1335.1 574.881 1335.98 574.739V574.59C1334.82 574.356 1333.88 573.791 1333.15 572.896C1332.43 571.994 1332.06 570.947 1332.06 569.754C1332.06 568.624 1332.39 567.619 1333.05 566.739C1333.72 565.851 1334.62 565.155 1335.77 564.651C1336.93 564.139 1338.24 563.884 1339.71 563.884C1341.18 563.884 1342.49 564.139 1343.64 564.651C1344.8 565.162 1345.71 565.862 1346.37 566.749C1347.03 567.63 1347.37 568.631 1347.37 569.754C1347.37 570.954 1347 572.001 1346.27 572.896C1345.53 573.791 1344.6 574.356 1343.45 574.59V574.739C1344.33 574.881 1345.12 575.208 1345.83 575.719C1346.55 576.224 1347.11 576.859 1347.53 577.626C1347.96 578.386 1348.18 579.221 1348.18 580.13C1348.18 581.309 1347.81 582.364 1347.09 583.294C1346.36 584.224 1345.36 584.96 1344.08 585.499C1342.81 586.032 1341.35 586.298 1339.71 586.298ZM1339.71 582.911C1340.44 582.911 1341.08 582.779 1341.63 582.516C1342.18 582.246 1342.6 581.877 1342.91 581.408C1343.22 580.933 1343.38 580.386 1343.38 579.768C1343.38 579.136 1343.22 578.578 1342.9 578.095C1342.58 577.605 1342.15 577.222 1341.6 576.945C1341.05 576.661 1340.42 576.518 1339.71 576.518C1339.01 576.518 1338.38 576.661 1337.83 576.945C1337.27 577.222 1336.84 577.605 1336.52 578.095C1336.2 578.578 1336.05 579.136 1336.05 579.768C1336.05 580.386 1336.2 580.933 1336.51 581.408C1336.81 581.877 1337.24 582.246 1337.8 582.516C1338.35 582.779 1338.99 582.911 1339.71 582.911ZM1339.71 573.163C1340.32 573.163 1340.87 573.038 1341.34 572.79C1341.82 572.541 1342.19 572.197 1342.46 571.756C1342.73 571.316 1342.87 570.808 1342.87 570.233C1342.87 569.665 1342.73 569.168 1342.46 568.741C1342.19 568.308 1341.82 567.971 1341.35 567.729C1340.89 567.481 1340.34 567.357 1339.71 567.357C1339.1 567.357 1338.55 567.481 1338.07 567.729C1337.6 567.971 1337.22 568.308 1336.95 568.741C1336.69 569.168 1336.56 569.665 1336.56 570.233C1336.56 570.808 1336.69 571.316 1336.96 571.756C1337.23 572.197 1337.61 572.541 1338.08 572.79C1338.56 573.038 1339.1 573.163 1339.71 573.163ZM1359.96 586.479C1358.13 586.472 1356.55 586.021 1355.23 585.126C1353.92 584.232 1352.91 582.935 1352.2 581.238C1351.49 579.54 1351.15 577.499 1351.15 575.112C1351.15 572.733 1351.5 570.705 1352.21 569.029C1352.92 567.353 1353.93 566.078 1355.24 565.205C1356.56 564.324 1358.14 563.884 1359.96 563.884C1361.79 563.884 1363.36 564.324 1364.67 565.205C1365.99 566.085 1367.01 567.364 1367.72 569.04C1368.43 570.709 1368.78 572.733 1368.77 575.112C1368.77 577.506 1368.42 579.551 1367.71 581.249C1367 582.946 1366 584.242 1364.68 585.137C1363.37 586.032 1361.8 586.479 1359.96 586.479ZM1359.96 582.655C1361.21 582.655 1362.21 582.026 1362.96 580.769C1363.7 579.512 1364.07 577.626 1364.06 575.112C1364.06 573.457 1363.89 572.08 1363.55 570.979C1363.22 569.878 1362.74 569.05 1362.13 568.496C1361.51 567.942 1360.79 567.665 1359.96 567.665C1358.72 567.665 1357.73 568.287 1356.98 569.53C1356.23 570.773 1355.86 572.634 1355.85 575.112C1355.85 576.788 1356.02 578.188 1356.35 579.31C1356.69 580.425 1357.17 581.263 1357.79 581.824C1358.41 582.378 1359.13 582.655 1359.96 582.655ZM1250.76 622V605.636H1265.06V622H1260.73V609.205H1255.04V622H1250.76ZM1273.35 622.309C1272.31 622.309 1271.38 622.128 1270.56 621.766C1269.75 621.396 1269.1 620.853 1268.62 620.136C1268.15 619.411 1267.92 618.509 1267.92 617.43C1267.92 616.521 1268.09 615.757 1268.42 615.139C1268.75 614.521 1269.21 614.024 1269.78 613.648C1270.36 613.271 1271.01 612.987 1271.74 612.795C1272.48 612.604 1273.26 612.469 1274.07 612.391C1275.02 612.291 1275.79 612.199 1276.37 612.114C1276.95 612.021 1277.37 611.886 1277.64 611.709C1277.9 611.531 1278.03 611.268 1278.03 610.92V610.857C1278.03 610.182 1277.82 609.66 1277.39 609.29C1276.97 608.921 1276.38 608.737 1275.6 608.737C1274.78 608.737 1274.13 608.918 1273.65 609.28C1273.17 609.635 1272.85 610.082 1272.69 610.622L1268.5 610.281C1268.71 609.287 1269.13 608.428 1269.75 607.703C1270.38 606.972 1271.18 606.411 1272.17 606.02C1273.17 605.622 1274.32 605.423 1275.62 605.423C1276.53 605.423 1277.4 605.53 1278.23 605.743C1279.07 605.956 1279.81 606.286 1280.46 606.734C1281.11 607.181 1281.63 607.756 1282 608.46C1282.38 609.156 1282.57 609.99 1282.57 610.963V622H1278.26V619.731H1278.14C1277.87 620.242 1277.52 620.693 1277.08 621.084C1276.64 621.467 1276.11 621.769 1275.49 621.989C1274.88 622.202 1274.16 622.309 1273.35 622.309ZM1274.65 619.177C1275.32 619.177 1275.91 619.045 1276.42 618.783C1276.93 618.513 1277.33 618.151 1277.63 617.696C1277.92 617.241 1278.06 616.727 1278.06 616.151V614.415C1277.92 614.507 1277.72 614.592 1277.48 614.67C1277.23 614.741 1276.96 614.809 1276.66 614.873C1276.35 614.93 1276.05 614.983 1275.74 615.033C1275.43 615.075 1275.16 615.114 1274.91 615.15C1274.38 615.228 1273.91 615.352 1273.51 615.523C1273.12 615.693 1272.81 615.924 1272.59 616.215C1272.37 616.499 1272.26 616.854 1272.26 617.281C1272.26 617.898 1272.48 618.371 1272.93 618.697C1273.38 619.017 1273.96 619.177 1274.65 619.177ZM1300.4 605.636V618.868H1303.01V627.263H1298.6V622H1286.09V605.636H1290.43V618.431H1296.11V605.636H1300.4ZM1310.14 616.013L1316.03 605.636H1320.51V622H1316.18V611.592L1310.31 622H1305.81V605.636H1310.14V616.013ZM1331.6 622.32C1329.92 622.32 1328.47 621.979 1327.26 621.297C1326.05 620.608 1325.12 619.635 1324.47 618.378C1323.81 617.114 1323.49 615.619 1323.49 613.893C1323.49 612.21 1323.81 610.732 1324.47 609.461C1325.12 608.19 1326.04 607.199 1327.22 606.489C1328.42 605.778 1329.82 605.423 1331.42 605.423C1332.5 605.423 1333.51 605.597 1334.44 605.945C1335.37 606.286 1336.19 606.801 1336.89 607.49C1337.59 608.179 1338.14 609.045 1338.53 610.089C1338.92 611.126 1339.11 612.341 1339.11 613.733V614.979H1325.3V612.167H1334.84C1334.84 611.513 1334.7 610.935 1334.42 610.43C1334.13 609.926 1333.74 609.532 1333.23 609.248C1332.74 608.957 1332.16 608.811 1331.5 608.811C1330.81 608.811 1330.2 608.971 1329.66 609.29C1329.14 609.603 1328.73 610.026 1328.43 610.558C1328.13 611.084 1327.98 611.67 1327.97 612.316V614.99C1327.97 615.8 1328.12 616.499 1328.42 617.089C1328.72 617.678 1329.15 618.133 1329.71 618.452C1330.26 618.772 1330.92 618.932 1331.68 618.932C1332.18 618.932 1332.64 618.861 1333.06 618.719C1333.48 618.577 1333.84 618.364 1334.14 618.08C1334.44 617.795 1334.66 617.447 1334.82 617.036L1339.02 617.312C1338.81 618.321 1338.37 619.202 1337.71 619.955C1337.05 620.7 1336.21 621.283 1335.17 621.702C1334.14 622.114 1332.95 622.32 1331.6 622.32ZM1353.46 612.007V615.576H1344.92V612.007H1353.46ZM1346.41 605.636V622H1342.08V605.636H1346.41ZM1356.31 605.636V622H1352V605.636H1356.31ZM1358.19 609.205V605.636H1373.02V609.205H1367.74V622H1363.42V609.205H1358.19ZM1382.57 622.32C1380.92 622.32 1379.49 621.968 1378.28 621.265C1377.08 620.555 1376.15 619.567 1375.5 618.303C1374.85 617.032 1374.52 615.558 1374.52 613.882C1374.52 612.192 1374.85 610.714 1375.5 609.45C1376.15 608.179 1377.08 607.192 1378.28 606.489C1379.49 605.778 1380.92 605.423 1382.57 605.423C1384.23 605.423 1385.66 605.778 1386.86 606.489C1388.06 607.192 1389 608.179 1389.65 609.45C1390.3 610.714 1390.63 612.192 1390.63 613.882C1390.63 615.558 1390.3 617.032 1389.65 618.303C1389 619.567 1388.06 620.555 1386.86 621.265C1385.66 621.968 1384.23 622.32 1382.57 622.32ZM1382.6 618.804C1383.35 618.804 1383.98 618.591 1384.48 618.165C1384.99 617.732 1385.37 617.142 1385.62 616.396C1385.88 615.651 1386.02 614.802 1386.02 613.85C1386.02 612.898 1385.88 612.05 1385.62 611.304C1385.37 610.558 1384.99 609.969 1384.48 609.536C1383.98 609.102 1383.35 608.886 1382.6 608.886C1381.84 608.886 1381.2 609.102 1380.68 609.536C1380.17 609.969 1379.78 610.558 1379.52 611.304C1379.26 612.05 1379.13 612.898 1379.13 613.85C1379.13 614.802 1379.26 615.651 1379.52 616.396C1379.78 617.142 1380.17 617.732 1380.68 618.165C1381.2 618.591 1381.84 618.804 1382.6 618.804ZM1393.58 622V605.636H1400.56C1402.57 605.636 1404.17 606.02 1405.34 606.787C1406.51 607.554 1407.1 608.644 1407.1 610.058C1407.1 610.945 1406.77 611.684 1406.11 612.273C1405.45 612.863 1404.53 613.261 1403.36 613.467C1404.34 613.538 1405.17 613.761 1405.86 614.138C1406.56 614.507 1407.09 614.987 1407.45 615.576C1407.82 616.165 1408 616.819 1408 617.536C1408 618.467 1407.76 619.266 1407.26 619.933C1406.77 620.601 1406.05 621.112 1405.1 621.467C1404.15 621.822 1403 622 1401.63 622H1393.58ZM1397.81 618.602H1401.63C1402.27 618.602 1402.76 618.452 1403.11 618.154C1403.48 617.849 1403.66 617.433 1403.66 616.908C1403.66 616.325 1403.48 615.867 1403.11 615.533C1402.76 615.2 1402.27 615.033 1401.63 615.033H1397.81V618.602ZM1397.81 612.369H1400.65C1401.11 612.369 1401.5 612.305 1401.81 612.178C1402.14 612.043 1402.39 611.851 1402.56 611.602C1402.74 611.354 1402.83 611.059 1402.83 610.718C1402.83 610.214 1402.62 609.82 1402.22 609.536C1401.81 609.251 1401.26 609.109 1400.56 609.109H1397.81V612.369ZM1286.28 635.628L1287.66 638.589C1287.2 638.973 1286.69 639.257 1286.13 639.442C1285.57 639.619 1284.89 639.737 1284.11 639.793C1283.34 639.85 1282.39 639.889 1281.28 639.911C1280.02 639.925 1278.99 640.127 1278.19 640.518C1277.39 640.908 1276.79 641.523 1276.38 642.361C1275.97 643.192 1275.7 644.278 1275.57 645.621H1275.73C1276.22 644.619 1276.91 643.845 1277.8 643.298C1278.69 642.751 1279.8 642.478 1281.11 642.478C1282.5 642.478 1283.72 642.783 1284.76 643.394C1285.81 644.005 1286.63 644.882 1287.21 646.026C1287.8 647.169 1288.09 648.54 1288.09 650.138C1288.09 651.8 1287.76 653.245 1287.11 654.474C1286.46 655.695 1285.54 656.643 1284.35 657.318C1283.15 657.986 1281.73 658.32 1280.09 658.32C1278.43 658.32 1277 657.972 1275.8 657.276C1274.61 656.58 1273.69 655.553 1273.03 654.197C1272.39 652.84 1272.06 651.171 1272.06 649.19V647.847C1272.06 643.906 1272.83 640.983 1274.37 639.08C1275.9 637.176 1278.15 636.21 1281.13 636.182C1281.94 636.168 1282.67 636.164 1283.32 636.171C1283.98 636.178 1284.55 636.146 1285.04 636.075C1285.54 636.004 1285.95 635.855 1286.28 635.628ZM1280.11 654.804C1280.8 654.804 1281.4 654.623 1281.9 654.261C1282.4 653.898 1282.79 653.38 1283.06 652.705C1283.34 652.031 1283.47 651.224 1283.47 650.287C1283.47 649.357 1283.34 648.568 1283.06 647.922C1282.79 647.268 1282.4 646.771 1281.9 646.43C1281.39 646.089 1280.79 645.919 1280.09 645.919C1279.56 645.919 1279.09 646.015 1278.67 646.207C1278.25 646.398 1277.89 646.683 1277.59 647.059C1277.3 647.428 1277.07 647.886 1276.91 648.433C1276.76 648.973 1276.68 649.591 1276.68 650.287C1276.68 651.686 1276.98 652.79 1277.58 653.6C1278.19 654.403 1279.04 654.804 1280.11 654.804ZM1298.49 658.32C1296.84 658.32 1295.41 657.968 1294.2 657.265C1293 656.555 1292.07 655.567 1291.42 654.303C1290.77 653.032 1290.44 651.558 1290.44 649.882C1290.44 648.192 1290.77 646.714 1291.42 645.45C1292.07 644.179 1293 643.192 1294.2 642.489C1295.41 641.778 1296.84 641.423 1298.49 641.423C1300.15 641.423 1301.58 641.778 1302.78 642.489C1303.98 643.192 1304.91 644.179 1305.57 645.45C1306.22 646.714 1306.55 648.192 1306.55 649.882C1306.55 651.558 1306.22 653.032 1305.57 654.303C1304.91 655.567 1303.98 656.555 1302.78 657.265C1301.58 657.968 1300.15 658.32 1298.49 658.32ZM1298.51 654.804C1299.27 654.804 1299.9 654.591 1300.4 654.165C1300.9 653.732 1301.28 653.142 1301.54 652.396C1301.8 651.651 1301.93 650.802 1301.93 649.85C1301.93 648.898 1301.8 648.05 1301.54 647.304C1301.28 646.558 1300.9 645.969 1300.4 645.536C1299.9 645.102 1299.27 644.886 1298.51 644.886C1297.75 644.886 1297.11 645.102 1296.6 645.536C1296.08 645.969 1295.7 646.558 1295.44 647.304C1295.18 648.05 1295.05 648.898 1295.05 649.85C1295.05 650.802 1295.18 651.651 1295.44 652.396C1295.7 653.142 1296.08 653.732 1296.6 654.165C1297.11 654.591 1297.75 654.804 1298.51 654.804ZM1308.54 658L1308.52 654.399H1309.06C1309.44 654.399 1309.77 654.307 1310.05 654.122C1310.34 653.93 1310.57 653.621 1310.75 653.195C1310.94 652.769 1311.08 652.205 1311.19 651.501C1311.3 650.791 1311.37 649.918 1311.4 648.881L1311.67 641.636H1324.11V658H1319.79V645.205H1315.75L1315.5 650.202C1315.43 651.572 1315.26 652.751 1314.99 653.739C1314.73 654.726 1314.37 655.536 1313.9 656.168C1313.43 656.793 1312.86 657.254 1312.2 657.553C1311.54 657.851 1310.78 658 1309.9 658H1308.54ZM1330.48 646.665H1335.37C1337.53 646.665 1339.22 647.183 1340.44 648.22C1341.65 649.25 1342.26 650.628 1342.26 652.354C1342.26 653.476 1341.99 654.463 1341.44 655.315C1340.89 656.161 1340.1 656.821 1339.07 657.297C1338.04 657.766 1336.81 658 1335.37 658H1327.63V641.636H1331.97V654.431H1335.37C1336.13 654.431 1336.75 654.239 1337.24 653.856C1337.73 653.472 1337.98 652.982 1337.99 652.386C1337.98 651.754 1337.73 651.239 1337.24 650.841C1336.75 650.436 1336.13 650.234 1335.37 650.234H1330.48V646.665ZM1345.27 641.636H1349.61V654.399H1354.22V641.636H1358.55V654.399H1363.17V641.636H1367.5V658H1345.27V641.636ZM1378.48 658.32C1376.8 658.32 1375.35 657.979 1374.13 657.297C1372.92 656.608 1371.99 655.635 1371.34 654.378C1370.69 653.114 1370.36 651.619 1370.36 649.893C1370.36 648.21 1370.69 646.732 1371.34 645.461C1371.99 644.19 1372.91 643.199 1374.1 642.489C1375.29 641.778 1376.69 641.423 1378.3 641.423C1379.38 641.423 1380.38 641.597 1381.31 641.945C1382.25 642.286 1383.07 642.801 1383.76 643.49C1384.47 644.179 1385.01 645.045 1385.4 646.089C1385.79 647.126 1385.99 648.341 1385.99 649.733V650.979H1372.17V648.167H1381.72C1381.72 647.513 1381.58 646.935 1381.29 646.43C1381.01 645.926 1380.61 645.532 1380.11 645.248C1379.61 644.957 1379.03 644.811 1378.37 644.811C1377.68 644.811 1377.07 644.971 1376.54 645.29C1376.01 645.603 1375.6 646.026 1375.3 646.558C1375.01 647.084 1374.85 647.67 1374.85 648.316V650.99C1374.85 651.8 1374.99 652.499 1375.29 653.089C1375.6 653.678 1376.03 654.133 1376.58 654.452C1377.14 654.772 1377.79 654.932 1378.55 654.932C1379.06 654.932 1379.52 654.861 1379.94 654.719C1380.36 654.577 1380.72 654.364 1381.01 654.08C1381.31 653.795 1381.54 653.447 1381.7 653.036L1385.89 653.312C1385.68 654.321 1385.24 655.202 1384.58 655.955C1383.93 656.7 1383.08 657.283 1382.05 657.702C1381.02 658.114 1379.83 658.32 1378.48 658.32Z" fill="white"/>
<path d="M380.051 77.5H473.949C495.792 77.5001 513.5 95.2075 513.5 117.051V890.5H340.5V117.051C340.5 95.2075 358.208 77.5001 380.051 77.5Z" fill="#459F63"/>
<path d="M380.051 77.5H473.949C495.792 77.5001 513.5 95.2075 513.5 117.051V890.5H340.5V117.051C340.5 95.2075 358.208 77.5001 380.051 77.5Z" fill="url(#paint8_linear_3818_2616)"/>
<path d="M380.051 77.5H473.949C495.792 77.5001 513.5 95.2075 513.5 117.051V890.5H340.5V117.051C340.5 95.2075 358.208 77.5001 380.051 77.5Z" stroke="url(#paint9_linear_3818_2616)" stroke-width="3"/>
<circle cx="217" cy="74" r="12.5" fill="#459F63" stroke="white"/>
<path d="M69 645.136L57.0756 654.067L57.0756 657.264L69 657.264L69 660.41L43.0199 660.41L43.0199 657.264L54.2847 657.264L54.2847 655.894L43.0199 645.492L43.0199 641.737L54.437 652.24L69 641.381L69 645.136ZM69.4059 631.236C69.4059 632.995 68.9873 634.539 68.1501 635.866C67.3128 637.186 66.1415 638.217 64.6362 638.962C63.1308 639.697 61.3717 640.065 59.359 640.065C57.3293 640.065 55.5575 639.697 54.0437 638.962C52.5299 638.217 51.3544 637.186 50.5171 635.866C49.6799 634.539 49.2612 632.995 49.2612 631.236C49.2612 629.477 49.6799 627.938 50.5171 626.619C51.3544 625.291 52.5299 624.259 54.0437 623.523C55.5575 622.779 57.3293 622.407 59.359 622.407C61.3717 622.407 63.1308 622.779 64.6362 623.523C66.1415 624.259 67.3128 625.291 68.1501 626.619C68.9873 627.938 69.4059 629.477 69.4059 631.236ZM66.7166 631.236C66.7166 629.9 66.3741 628.801 65.6891 627.938C65.004 627.075 64.1034 626.437 62.987 626.022C61.8707 625.608 60.6613 625.401 59.359 625.401C58.0566 625.401 56.843 625.608 55.7182 626.022C54.5934 626.437 53.6843 627.075 52.9908 627.938C52.2973 628.801 51.9506 629.9 51.9506 631.236C51.9506 632.572 52.2973 633.672 52.9908 634.534C53.6843 635.397 54.5934 636.036 55.7182 636.45C56.843 636.864 58.0566 637.072 59.359 637.072C60.6613 637.072 61.8707 636.864 62.987 636.45C64.1034 636.036 65.004 635.397 65.6891 634.534C66.3741 633.672 66.7166 632.572 66.7166 631.236ZM69 619.562L66.2092 619.562L66.2092 618.852C66.2092 618.268 66.095 617.782 65.8667 617.393C65.6299 617.004 65.2197 616.691 64.6362 616.454C64.0442 616.209 63.2238 616.023 62.1752 615.896C61.118 615.761 59.7734 615.664 58.1411 615.604L49.5149 615.249L49.5149 602.259L69 602.259L69 605.253L52.3058 605.253L52.3058 612.408L59.2575 612.712C60.8559 612.78 62.264 612.923 63.4818 613.143C64.6911 613.355 65.706 613.68 66.5263 614.12C67.3466 614.551 67.964 615.127 68.3784 615.845C68.7928 616.564 69 617.465 69 618.547L69 619.562ZM64.5854 593.772L49.5149 584.385L49.5149 580.935L69 580.935L69 583.928L53.9295 583.928L69 593.265L69 596.766L49.5149 596.766L49.5149 593.772L64.5854 593.772ZM49.5149 560.432L69 560.432L69 563.425L49.5149 563.425L49.5149 560.432ZM58.8008 561.599L61.5916 561.599C61.8453 562.275 62.0694 562.948 62.264 563.616C62.45 564.284 62.598 564.986 62.7079 565.721C62.8094 566.457 62.8602 567.265 62.8602 568.144C62.8602 570.352 62.264 572.123 61.0715 573.46C59.8791 574.787 58.0904 575.451 55.7055 575.451L49.4642 575.451L49.4642 572.458L55.7055 572.458C56.7034 572.458 57.5238 572.267 58.1665 571.887C58.8092 571.506 59.2871 570.99 59.6 570.339C59.9129 569.688 60.0693 568.956 60.0693 568.144C60.0693 566.876 59.9552 565.73 59.7268 564.707C59.49 563.675 59.1814 562.639 58.8008 561.599ZM69.4059 546.769C69.4059 548.647 68.9915 550.266 68.1627 551.628C67.3255 552.981 66.1584 554.025 64.6615 554.761C63.1562 555.488 61.4056 555.852 59.4097 555.852C57.4138 555.852 55.6548 555.488 54.1325 554.761C52.6018 554.025 51.4093 553.002 50.5552 551.691C49.6925 550.372 49.2612 548.833 49.2612 547.074C49.2612 546.059 49.4304 545.057 49.7687 544.067C50.1069 543.078 50.6566 542.177 51.4178 541.365C52.1705 540.553 53.1684 539.906 54.4116 539.424C55.6548 538.942 57.1855 538.701 59.0038 538.701L60.2723 538.701L60.2723 553.721L57.6845 553.721L57.6845 541.746C56.585 541.746 55.604 541.966 54.7414 542.405C53.8788 542.837 53.198 543.454 52.699 544.257C52.2001 545.052 51.9506 545.991 51.9506 547.074C51.9506 548.266 52.2466 549.298 52.8386 550.169C53.4221 551.032 54.1832 551.695 55.122 552.161C56.0607 552.626 57.0671 552.858 58.1411 552.858L59.8664 552.858C61.3379 552.858 62.5853 552.605 63.6086 552.097C64.6235 551.581 65.3973 550.867 65.9301 549.953C66.4544 549.04 66.7166 547.979 66.7166 546.769C66.7166 545.983 66.6066 545.272 66.3868 544.638C66.1584 543.995 65.8201 543.441 65.3719 542.976C64.9152 542.511 64.3486 542.152 63.6721 541.898L64.4839 539.006C65.4649 539.31 66.3276 539.822 67.0718 540.541C67.8076 541.259 68.3826 542.147 68.797 543.205C69.203 544.262 69.4059 545.45 69.4059 546.769ZM69.4059 526.231C69.4059 528.058 68.9746 529.631 68.112 530.95C67.2494 532.27 66.0612 533.284 64.5474 533.995C63.0335 534.705 61.3041 535.06 59.359 535.06C57.38 535.06 55.6336 534.697 54.1198 533.969C52.5975 533.234 51.4093 532.21 50.5552 530.9C49.6925 529.58 49.2612 528.041 49.2612 526.282C49.2612 524.912 49.5149 523.677 50.0224 522.578C50.5298 521.478 51.2402 520.578 52.1535 519.876C53.0669 519.174 54.1325 518.738 55.3503 518.569L55.3503 521.563C54.4623 521.791 53.6758 522.299 52.9908 523.085C52.2973 523.863 51.9506 524.912 51.9506 526.231C51.9506 527.398 52.255 528.422 52.8639 529.301C53.4644 530.172 54.3143 530.853 55.4137 531.344C56.5047 531.826 57.7859 532.067 59.2575 532.067C60.7628 532.067 62.0737 531.83 63.19 531.356C64.3063 530.874 65.1732 530.198 65.7905 529.327C66.4079 528.447 66.7166 527.415 66.7166 526.231C66.7166 525.453 66.5813 524.747 66.3107 524.113C66.04 523.478 65.651 522.941 65.1436 522.502C64.6362 522.062 64.0272 521.749 63.3169 521.563L63.3169 518.569C64.467 518.738 65.503 519.157 66.4248 519.825C67.3382 520.485 68.0655 521.36 68.6067 522.451C69.1395 523.533 69.4059 524.794 69.4059 526.231ZM52.3058 515.728L49.5149 515.728L49.5149 499.896L52.3058 499.896L52.3058 506.29L69 506.29L69 509.283L52.3058 509.283L52.3058 515.728ZM69 495.529L49.5149 495.529L49.5149 487.562C49.5149 485.465 49.9885 483.799 50.9357 482.564C51.8829 481.33 53.1346 480.712 54.6907 480.712C55.8746 480.712 56.7922 481.063 57.4434 481.765C58.0862 482.467 58.5217 483.368 58.75 484.467C58.8515 483.748 59.1052 483.051 59.5112 482.374C59.9171 481.689 60.4753 481.122 61.1857 480.674C61.8876 480.226 62.7502 480.002 63.7735 480.002C64.7715 480.002 65.6637 480.256 66.4502 480.763C67.2367 481.27 67.8583 481.998 68.315 482.945C68.7717 483.892 69 485.025 69 486.345L69 495.529ZM66.2599 492.687L66.2599 486.345C66.2599 485.313 66.0147 484.505 65.5241 483.922C65.0336 483.338 64.3655 483.046 63.5198 483.046C62.5134 483.046 61.7227 483.338 61.1476 483.922C60.5641 484.505 60.2723 485.313 60.2723 486.345L60.2723 492.687L66.2599 492.687ZM57.6845 492.687L57.6845 487.562C57.6845 486.759 57.5745 486.07 57.3546 485.495C57.1263 484.92 56.8049 484.48 56.3905 484.175C55.9677 483.862 55.4687 483.706 54.8936 483.706C54.0733 483.706 53.4306 484.049 52.9654 484.734C52.4918 485.419 52.255 486.362 52.255 487.562L52.255 492.687L57.6845 492.687ZM69.4059 467.554C69.4059 469.313 68.9873 470.857 68.1501 472.184C67.3128 473.504 66.1415 474.535 64.6362 475.28C63.1308 476.015 61.3717 476.383 59.359 476.383C57.3293 476.383 55.5575 476.015 54.0437 475.28C52.5299 474.535 51.3544 473.504 50.5171 472.184C49.6799 470.857 49.2612 469.313 49.2612 467.554C49.2612 465.795 49.6799 464.256 50.5171 462.937C51.3543 461.609 52.5299 460.577 54.0437 459.841C55.5575 459.097 57.3293 458.725 59.359 458.725C61.3717 458.725 63.1308 459.097 64.6362 459.841C66.1415 460.577 67.3128 461.609 68.1501 462.937C68.9873 464.256 69.4059 465.795 69.4059 467.554ZM66.7166 467.554C66.7166 466.218 66.3741 465.118 65.6891 464.256C65.004 463.393 64.1034 462.755 62.987 462.34C61.8707 461.926 60.6613 461.719 59.359 461.719C58.0566 461.719 56.843 461.926 55.7182 462.34C54.5934 462.755 53.6843 463.393 52.9908 464.256C52.2973 465.118 51.9506 466.218 51.9506 467.554C51.9506 468.89 52.2973 469.99 52.9908 470.852C53.6843 471.715 54.5934 472.353 55.7182 472.768C56.843 473.182 58.0566 473.389 59.359 473.389C60.6613 473.389 61.8707 473.182 62.987 472.768C64.1034 472.353 65.004 471.715 65.6891 470.852C66.3741 469.99 66.7166 468.89 66.7166 467.554ZM69 444.108L49.5149 444.108L49.5149 428.784L69 428.784L69 431.778L52.3058 431.778L52.3058 441.114L69 441.114L69 444.108ZM69.4567 417.582C69.4567 418.817 69.2241 419.938 68.759 420.944C68.2854 421.951 67.6046 422.75 66.7166 423.342C65.8201 423.934 64.7376 424.23 63.4691 424.23C62.3527 424.23 61.4478 424.01 60.7544 423.57C60.0524 423.13 59.5027 422.543 59.1052 421.807C58.7078 421.071 58.4118 420.259 58.2172 419.371C58.0143 418.475 57.8536 417.574 57.7352 416.669C57.583 415.485 57.4688 414.525 57.3927 413.789C57.3081 413.045 57.1686 412.504 56.9741 412.166C56.7795 411.819 56.4413 411.646 55.9592 411.646L55.8577 411.646C54.6061 411.646 53.6335 411.988 52.94 412.673C52.2466 413.35 51.8998 414.377 51.8998 415.756C51.8998 417.185 52.2127 418.306 52.8386 419.117C53.4644 419.929 54.1325 420.5 54.8429 420.83L53.828 423.672C52.644 423.164 51.7222 422.488 51.0626 421.642C50.3945 420.788 49.9293 419.857 49.6672 418.851C49.3965 417.836 49.2612 416.838 49.2612 415.857C49.2612 415.231 49.3373 414.513 49.4896 413.701C49.6333 412.88 49.9336 412.09 50.3902 411.328C50.8469 410.559 51.5362 409.92 52.458 409.413C53.3798 408.906 54.6145 408.652 56.1622 408.652L69 408.652L69 411.646L66.3614 411.646L66.3614 411.798C66.7842 412.001 67.2367 412.339 67.7187 412.813C68.2008 413.286 68.611 413.916 68.9492 414.703C69.2875 415.489 69.4567 416.449 69.4567 417.582ZM66.7673 417.126C66.7673 415.942 66.5348 414.944 66.0696 414.132C65.6045 413.312 65.004 412.694 64.2683 412.28C63.5325 411.857 62.7587 411.646 61.9468 411.646L59.2067 411.646C59.3589 411.772 59.4985 412.052 59.6253 412.483C59.7437 412.906 59.8495 413.396 59.9425 413.954C60.0271 414.504 60.1032 415.041 60.1708 415.565C60.23 416.081 60.2808 416.5 60.3231 416.821C60.4245 417.599 60.5894 418.327 60.8178 419.003C61.0377 419.671 61.3717 420.213 61.82 420.627C62.2597 421.033 62.8602 421.236 63.6213 421.236C64.6615 421.236 65.448 420.851 65.9808 420.082C66.5052 419.303 66.7673 418.318 66.7673 417.126ZM49.5149 387.863L66.2092 387.863L66.2092 385.123L75.292 385.123L75.292 388.117L69 388.117L69 403.187L49.5149 403.187L49.5149 400.194L66.2092 400.194L66.2092 390.857L49.5149 390.857L49.5149 387.863ZM64.5854 377.518L49.5149 368.131L49.5149 364.68L69 364.68L69 367.674L53.9295 367.674L69 377.011L69 380.512L49.5149 380.512L49.5149 377.518L64.5854 377.518ZM69.4059 351.028C69.4059 352.905 68.9915 354.525 68.1627 355.886C67.3255 357.239 66.1584 358.284 64.6615 359.019C63.1562 359.747 61.4056 360.11 59.4097 360.11C57.4138 360.11 55.6548 359.747 54.1325 359.019C52.6018 358.284 51.4093 357.26 50.5552 355.95C49.6925 354.63 49.2612 353.091 49.2612 351.332C49.2612 350.317 49.4304 349.315 49.7686 348.326C50.1069 347.336 50.6566 346.435 51.4178 345.623C52.1705 344.812 53.1684 344.165 54.4116 343.683C55.6548 343.201 57.1855 342.96 59.0037 342.96L60.2723 342.96L60.2723 357.979L57.6844 357.979L57.6844 346.004C56.585 346.004 55.604 346.224 54.7414 346.664C53.8788 347.095 53.198 347.712 52.699 348.516C52.2001 349.311 51.9506 350.249 51.9506 351.332C51.9506 352.524 52.2466 353.556 52.8386 354.427C53.4221 355.29 54.1832 355.954 55.122 356.419C56.0607 356.884 57.0671 357.117 58.1411 357.117L59.8664 357.117C61.3379 357.117 62.5853 356.863 63.6086 356.355C64.6235 355.84 65.3973 355.125 65.9301 354.212C66.4544 353.298 66.7166 352.237 66.7166 351.028C66.7166 350.241 66.6066 349.531 66.3868 348.896C66.1584 348.254 65.8201 347.7 65.3719 347.235C64.9152 346.769 64.3486 346.41 63.672 346.156L64.4839 343.264C65.4649 343.568 66.3276 344.08 67.0718 344.799C67.8075 345.518 68.3826 346.406 68.797 347.463C69.203 348.52 69.4059 349.708 69.4059 351.028ZM57.8874 325.365L60.6782 325.365L60.6782 336.122L57.8874 336.122L57.8874 325.365ZM49.5149 335.412L69 335.412L69 338.405L49.5149 338.405L49.5149 335.412ZM49.5149 323.081L69 323.081L69 326.075L49.5149 326.075L49.5149 323.081ZM52.3058 320.265L49.5149 320.265L49.5149 304.433L52.3058 304.433L52.3058 310.827L69 310.827L69 313.821L52.3058 313.821L52.3058 320.265ZM69.4059 293.162C69.4059 294.921 68.9873 296.465 68.1501 297.793C67.3128 299.112 66.1415 300.144 64.6361 300.888C63.1308 301.624 61.3717 301.991 59.3589 301.991C57.3293 301.991 55.5575 301.624 54.0437 300.888C52.5299 300.144 51.3543 299.112 50.5171 297.793C49.6798 296.465 49.2612 294.921 49.2612 293.162C49.2612 291.403 49.6798 289.864 50.5171 288.545C51.3543 287.217 52.5299 286.185 54.0437 285.449C55.5575 284.705 57.3292 284.333 59.3589 284.333C61.3717 284.333 63.1308 284.705 64.6361 285.449C66.1415 286.185 67.3128 287.217 68.15 288.545C68.9873 289.864 69.4059 291.403 69.4059 293.162ZM66.7166 293.162C66.7166 291.826 66.3741 290.727 65.689 289.864C65.004 289.001 64.1033 288.363 62.987 287.949C61.8707 287.534 60.6613 287.327 59.3589 287.327C58.0566 287.327 56.843 287.534 55.7182 287.949C54.5934 288.363 53.6843 289.001 52.9908 289.864C52.2973 290.727 51.9506 291.826 51.9506 293.162C51.9506 294.499 52.2973 295.598 52.9908 296.461C53.6843 297.323 54.5934 297.962 55.7182 298.376C56.843 298.79 58.0566 298.998 59.3589 298.998C60.6613 298.998 61.8707 298.79 62.987 298.376C64.1034 297.962 65.004 297.323 65.689 296.461C66.3741 295.598 66.7166 294.499 66.7166 293.162ZM69 279.763L49.5149 279.763L49.5149 271.797C49.5149 269.699 49.9885 268.033 50.9357 266.798C51.8829 265.564 53.1346 264.946 54.6906 264.946C55.8746 264.946 56.7922 265.297 57.4434 265.999C58.0862 266.701 58.5217 267.602 58.75 268.701C58.8515 267.982 59.1052 267.285 59.5112 266.608C59.9171 265.923 60.4753 265.357 61.1857 264.908C61.8876 264.46 62.7502 264.236 63.7735 264.236C64.7715 264.236 65.6637 264.49 66.4502 264.997C67.2367 265.505 67.8583 266.232 68.315 267.179C68.7716 268.126 69 269.259 69 270.579L69 279.763ZM66.2599 276.922L66.2599 270.579C66.2599 269.547 66.0146 268.739 65.5241 268.156C65.0336 267.572 64.3655 267.281 63.5198 267.281C62.5134 267.281 61.7227 267.572 61.1476 268.156C60.5641 268.739 60.2723 269.547 60.2723 270.579L60.2723 276.922L66.2599 276.922ZM57.6844 276.922L57.6844 271.797C57.6844 270.993 57.5745 270.304 57.3546 269.729C57.1263 269.154 56.8049 268.714 56.3905 268.41C55.9677 268.097 55.4687 267.94 54.8936 267.94C54.0733 267.94 53.4305 268.283 52.9654 268.968C52.4918 269.653 52.255 270.596 52.255 271.797L52.255 276.922L57.6844 276.922Z" fill="#223C78"/>
<defs>
<linearGradient id="paint0_linear_3818_2616" x1="1502" y1="968.947" x2="1502" y2="727" gradientUnits="userSpaceOnUse">
<stop stop-color="#E2E6EB"/>
<stop offset="1" stop-color="#656669"/>
</linearGradient>
<linearGradient id="paint1_linear_3818_2616" x1="1424.44" y1="932.244" x2="1424.44" y2="716.913" gradientUnits="userSpaceOnUse">
<stop stop-color="#BCB0D4"/>
<stop offset="1" stop-color="#F3EDFF"/>
</linearGradient>
<linearGradient id="paint2_linear_3818_2616" x1="951" y1="1123.05" x2="951" y2="632.01" gradientUnits="userSpaceOnUse">
<stop stop-color="white"/>
<stop offset="1" stop-color="#A5B8BF"/>
</linearGradient>
<linearGradient id="paint3_linear_3818_2616" x1="877.499" y1="1062.88" x2="874.885" y2="590.63" gradientUnits="userSpaceOnUse">
<stop stop-color="#F3EDFF"/>
<stop offset="1" stop-color="#A3A3A3"/>
</linearGradient>
<linearGradient id="paint4_linear_3818_2616" x1="772" y1="831.5" x2="771.5" y2="502" gradientUnits="userSpaceOnUse">
<stop stop-color="white"/>
<stop offset="1" stop-color="#A5B8BF"/>
</linearGradient>
<linearGradient id="paint5_linear_3818_2616" x1="682.547" y1="700.847" x2="681.976" y2="458.064" gradientUnits="userSpaceOnUse">
<stop stop-color="#F3EDFF"/>
<stop offset="1" stop-color="#A3A3A3"/>
</linearGradient>
<linearGradient id="paint6_linear_3818_2616" x1="1333" y1="788.63" x2="1333" y2="540" gradientUnits="userSpaceOnUse">
<stop stop-color="#E2E6EB"/>
<stop offset="1" stop-color="#656669"/>
</linearGradient>
<linearGradient id="paint7_linear_3818_2616" x1="1234.29" y1="726.585" x2="1234.29" y2="530.83" gradientUnits="userSpaceOnUse">
<stop stop-color="#BCB0D4"/>
<stop offset="1" stop-color="#F3EDFF"/>
</linearGradient>
<linearGradient id="paint8_linear_3818_2616" x1="404" y1="-41.6216" x2="-205.063" y2="232.987" gradientUnits="userSpaceOnUse">
<stop offset="0.243638" stop-color="white" stop-opacity="0"/>
<stop offset="1" stop-color="white" stop-opacity="0.75"/>
</linearGradient>
<linearGradient id="paint9_linear_3818_2616" x1="349.438" y1="1091.02" x2="379.568" y2="-488.182" gradientUnits="userSpaceOnUse">
<stop stop-color="#B2A6CA"/>
<stop offset="1" stop-color="#F3EDFF"/>
</linearGradient>
</defs>
</svg>
