<svg width="1674" height="851" viewBox="0 0 1674 851" fill="none" xmlns="http://www.w3.org/2000/svg">
<path opacity="0.2" d="M251.336 11.8047H1671" stroke="#223C78" stroke-width="3.49155" stroke-linecap="round"/>
<path opacity="0.2" d="M251.336 297.805H1671" stroke="#223C78" stroke-width="3.49155" stroke-linecap="round"/>
<path opacity="0.2" d="M251.336 441.172H1671" stroke="#223C78" stroke-width="3.49155" stroke-linecap="round"/>
<path d="M201 548.656H1671" stroke="#459F63" stroke-width="6" stroke-linecap="round" stroke-dasharray="15 15"/>
<path opacity="0.2" d="M251.336 586.453H1671" stroke="#223C78" stroke-width="3.49155" stroke-linecap="round"/>
<path d="M82.882 24.2486C81.7101 24.2486 80.6655 24.0473 79.7481 23.6449C78.8367 23.2424 78.1117 22.6831 77.5731 21.967C77.0404 21.2449 76.7504 20.4074 76.703 19.4545H78.9403C78.9876 20.0405 79.1888 20.5465 79.5439 20.9727C79.8991 21.3929 80.3637 21.7184 80.9378 21.9492C81.5119 22.18 82.1481 22.2955 82.8465 22.2955C83.6278 22.2955 84.3202 22.1593 84.9239 21.8871C85.5276 21.6148 86.0011 21.236 86.3444 20.7507C86.6876 20.2654 86.8593 19.7031 86.8593 19.0639C86.8593 18.3951 86.6936 17.8062 86.3621 17.2972C86.0307 16.7823 85.5454 16.3799 84.9062 16.0898C84.267 15.7998 83.4857 15.6548 82.5624 15.6548H81.1064V13.7017H82.5624C83.2845 13.7017 83.9178 13.5715 84.4623 13.3111C85.0127 13.0507 85.4418 12.6837 85.7496 12.2102C86.0632 11.7367 86.2201 11.1804 86.2201 10.5412C86.2201 9.92566 86.084 9.39003 85.8117 8.9343C85.5394 8.47857 85.1547 8.12346 84.6576 7.86896C84.1663 7.61446 83.5863 7.48722 82.9175 7.48722C82.2902 7.48722 81.6983 7.60263 81.142 7.83345C80.5915 8.05836 80.1417 8.38684 79.7925 8.81889C79.4433 9.24503 79.2539 9.75994 79.2243 10.3636H77.0937C77.1292 9.41075 77.4162 8.57623 77.9548 7.86008C78.4934 7.13802 79.1977 6.57576 80.0677 6.1733C80.9437 5.77083 81.9055 5.5696 82.953 5.5696C84.0776 5.5696 85.0423 5.79747 85.8472 6.2532C86.6521 6.70301 87.2706 7.29782 87.7027 8.03764C88.1347 8.77746 88.3508 9.57647 88.3508 10.4347C88.3508 11.4586 88.0815 12.3316 87.5429 13.0536C87.0102 13.7757 86.2852 14.2758 85.3678 14.554V14.696C86.516 14.8854 87.4127 15.3737 88.0578 16.1609C88.7029 16.9421 89.0255 17.9098 89.0255 19.0639C89.0255 20.0523 88.7562 20.9401 88.2176 21.7273C87.6849 22.5085 86.9569 23.1241 86.0336 23.5739C85.1104 24.0237 84.0598 24.2486 82.882 24.2486ZM98.5869 24.2486C97.2493 24.2486 96.11 23.8846 95.1689 23.1566C94.2279 22.4227 93.5088 21.3603 93.0116 19.9695C92.5145 18.5727 92.2659 16.8859 92.2659 14.9091C92.2659 12.9441 92.5145 11.2662 93.0116 9.87535C93.5147 8.47857 94.2368 7.41323 95.1778 6.67933C96.1248 5.93951 97.2612 5.5696 98.5869 5.5696C99.9127 5.5696 101.046 5.93951 101.987 6.67933C102.934 7.41323 103.656 8.47857 104.153 9.87535C104.656 11.2662 104.908 12.9441 104.908 14.9091C104.908 16.8859 104.659 18.5727 104.162 19.9695C103.665 21.3603 102.946 22.4227 102.005 23.1566C101.064 23.8846 99.9245 24.2486 98.5869 24.2486ZM98.5869 22.2955C99.9127 22.2955 100.943 21.6562 101.676 20.3778C102.41 19.0994 102.777 17.2765 102.777 14.9091C102.777 13.3348 102.609 11.9942 102.271 10.8874C101.94 9.78066 101.46 8.93726 100.833 8.35724C100.212 7.77723 99.4629 7.48722 98.5869 7.48722C97.273 7.48722 96.2461 8.1353 95.5063 9.43146C94.7665 10.7217 94.3966 12.5476 94.3966 14.9091C94.3966 16.4834 94.5623 17.821 94.8937 18.9219C95.2252 20.0227 95.7016 20.8602 96.3231 21.4343C96.9504 22.0084 97.705 22.2955 98.5869 22.2955ZM115.632 5.81818H118.26L124.439 20.9105H124.652L130.831 5.81818H133.459V24H131.399V10.1861H131.222L125.54 24H123.551L117.87 10.1861H117.692V24H115.632V5.81818ZM136.311 24V21.9759H136.844C137.601 21.9759 138.19 21.7332 138.61 21.2479C139.031 20.7625 139.333 19.9783 139.516 18.8952C139.705 17.8121 139.833 16.3769 139.898 14.5895L140.217 5.81818H151.297V24H149.095V7.77131H142.312L142.028 15.0156C141.957 16.9214 141.783 18.5431 141.505 19.8807C141.226 21.2183 140.738 22.2392 140.04 22.9435C139.341 23.6478 138.323 24 136.986 24H136.311ZM155.696 24V5.81818H157.898V13.9148H167.592V5.81818H169.794V24H167.592V15.8679H157.898V24H155.696Z" fill="#223C78"/>
<path d="M77.9348 167V165.402L83.9363 158.832C84.6406 158.063 85.2206 157.394 85.6763 156.826C86.132 156.252 86.4694 155.713 86.6884 155.21C86.9133 154.701 87.0257 154.169 87.0257 153.612C87.0257 152.973 86.8719 152.42 86.5641 151.952C86.2623 151.484 85.848 151.123 85.3212 150.869C84.7944 150.614 84.2026 150.487 83.5456 150.487C82.8472 150.487 82.2376 150.632 81.7168 150.922C81.2019 151.206 80.8024 151.606 80.5183 152.121C80.2401 152.636 80.101 153.239 80.101 153.932H78.0059C78.0059 152.866 78.2515 151.931 78.7427 151.126C79.234 150.321 79.9028 149.694 80.7491 149.244C81.6014 148.795 82.5572 148.57 83.6167 148.57C84.682 148.57 85.626 148.795 86.4487 149.244C87.2714 149.694 87.9165 150.301 88.3841 151.064C88.8516 151.828 89.0854 152.677 89.0854 153.612C89.0854 154.281 88.9641 154.935 88.7214 155.574C88.4847 156.208 88.0704 156.915 87.4785 157.696C86.8926 158.471 86.0788 159.418 85.0371 160.537L80.9533 164.905V165.047H89.405V167H77.9348ZM98.7534 167.249C97.7117 167.249 96.7736 167.041 95.9391 166.627C95.1046 166.213 94.4358 165.645 93.9327 164.923C93.4296 164.201 93.1544 163.378 93.1071 162.455H95.2377C95.3206 163.277 95.6935 163.958 96.3564 164.496C97.0252 165.029 97.8242 165.295 98.7534 165.295C99.4991 165.295 100.162 165.121 100.742 164.772C101.328 164.422 101.787 163.943 102.118 163.333C102.455 162.718 102.624 162.022 102.624 161.247C102.624 160.454 102.45 159.747 102.1 159.125C101.757 158.498 101.284 158.004 100.68 157.643C100.076 157.282 99.3867 157.098 98.6113 157.092C98.055 157.086 97.4838 157.172 96.8979 157.35C96.312 157.521 95.8296 157.743 95.4508 158.016L93.3912 157.767L94.492 148.818H103.938V150.771H96.3386L95.6994 156.134H95.8059C96.1788 155.838 96.6464 155.592 97.2086 155.397C97.7709 155.201 98.3568 155.104 98.9664 155.104C100.079 155.104 101.07 155.37 101.941 155.903C102.816 156.429 103.503 157.152 104 158.069C104.503 158.986 104.755 160.034 104.755 161.212C104.755 162.372 104.494 163.407 103.974 164.319C103.459 165.224 102.748 165.941 101.843 166.467C100.937 166.988 99.9075 167.249 98.7534 167.249ZM115.632 148.818H118.26L124.439 163.911H124.652L130.831 148.818H133.459V167H131.399V153.186H131.222L125.54 167H123.551L117.87 153.186H117.692V167H115.632V148.818ZM136.311 167V164.976H136.844C137.601 164.976 138.19 164.733 138.61 164.248C139.031 163.763 139.333 162.978 139.516 161.895C139.705 160.812 139.833 159.377 139.898 157.589L140.217 148.818H151.297V167H149.095V150.771H142.312L142.028 158.016C141.957 159.921 141.783 161.543 141.505 162.881C141.226 164.218 140.738 165.239 140.04 165.944C139.341 166.648 138.323 167 136.986 167H136.311ZM155.696 167V148.818H157.898V156.915H167.592V148.818H169.794V167H167.592V158.868H157.898V167H155.696Z" fill="#223C78"/>
<path d="M77.5198 310V308.402L83.5212 301.832C84.2255 301.063 84.8055 300.394 85.2613 299.826C85.717 299.252 86.0544 298.713 86.2733 298.21C86.4983 297.701 86.6107 297.169 86.6107 296.612C86.6107 295.973 86.4568 295.42 86.1491 294.952C85.8472 294.484 85.4329 294.123 84.9062 293.869C84.3794 293.614 83.7876 293.487 83.1306 293.487C82.4322 293.487 81.8226 293.632 81.3018 293.922C80.7868 294.206 80.3873 294.606 80.1032 295.121C79.8251 295.636 79.686 296.239 79.686 296.932H77.5908C77.5908 295.866 77.8364 294.931 78.3277 294.126C78.8189 293.321 79.4877 292.694 80.3341 292.244C81.1863 291.795 82.1422 291.57 83.2016 291.57C84.267 291.57 85.211 291.795 86.0336 292.244C86.8563 292.694 87.5015 293.301 87.969 294.064C88.4366 294.828 88.6704 295.677 88.6704 296.612C88.6704 297.281 88.549 297.935 88.3064 298.574C88.0696 299.208 87.6553 299.915 87.0635 300.696C86.4775 301.471 85.6637 302.418 84.6221 303.537L80.5383 307.905V308.047H88.99V310H77.5198ZM98.5869 310.249C97.2493 310.249 96.11 309.885 95.1689 309.157C94.2279 308.423 93.5088 307.36 93.0116 305.969C92.5145 304.573 92.2659 302.886 92.2659 300.909C92.2659 298.944 92.5145 297.266 93.0116 295.875C93.5147 294.479 94.2368 293.413 95.1778 292.679C96.1248 291.94 97.2612 291.57 98.5869 291.57C99.9127 291.57 101.046 291.94 101.987 292.679C102.934 293.413 103.656 294.479 104.153 295.875C104.656 297.266 104.908 298.944 104.908 300.909C104.908 302.886 104.659 304.573 104.162 305.969C103.665 307.36 102.946 308.423 102.005 309.157C101.064 309.885 99.9245 310.249 98.5869 310.249ZM98.5869 308.295C99.9127 308.295 100.943 307.656 101.676 306.378C102.41 305.099 102.777 303.277 102.777 300.909C102.777 299.335 102.609 297.994 102.271 296.887C101.94 295.781 101.46 294.937 100.833 294.357C100.212 293.777 99.4629 293.487 98.5869 293.487C97.273 293.487 96.2461 294.135 95.5063 295.431C94.7665 296.722 94.3966 298.548 94.3966 300.909C94.3966 302.483 94.5623 303.821 94.8937 304.922C95.2252 306.023 95.7016 306.86 96.3231 307.434C96.9504 308.008 97.705 308.295 98.5869 308.295ZM115.632 291.818H118.26L124.439 306.911H124.652L130.831 291.818H133.459V310H131.399V296.186H131.222L125.54 310H123.551L117.87 296.186H117.692V310H115.632V291.818ZM136.311 310V307.976H136.844C137.601 307.976 138.19 307.733 138.61 307.248C139.031 306.763 139.333 305.978 139.516 304.895C139.705 303.812 139.833 302.377 139.898 300.589L140.217 291.818H151.297V310H149.095V293.771H142.312L142.028 301.016C141.957 302.921 141.783 304.543 141.505 305.881C141.226 307.218 140.738 308.239 140.04 308.944C139.341 309.648 138.323 310 136.986 310H136.311ZM155.696 310V291.818H157.898V299.915H167.592V291.818H169.794V310H167.592V301.868H157.898V310H155.696Z" fill="#223C78"/>
<path d="M87.8425 434.818V453H85.6408V437.126H85.5343L81.0953 440.074V437.837L85.6408 434.818H87.8425ZM98.7534 453.249C97.7117 453.249 96.7736 453.041 95.9391 452.627C95.1046 452.213 94.4358 451.645 93.9327 450.923C93.4296 450.201 93.1544 449.378 93.1071 448.455H95.2377C95.3206 449.277 95.6935 449.958 96.3564 450.496C97.0252 451.029 97.8242 451.295 98.7534 451.295C99.4991 451.295 100.162 451.121 100.742 450.772C101.328 450.422 101.787 449.943 102.118 449.333C102.455 448.718 102.624 448.022 102.624 447.247C102.624 446.454 102.45 445.747 102.1 445.125C101.757 444.498 101.284 444.004 100.68 443.643C100.076 443.282 99.3867 443.098 98.6113 443.092C98.055 443.086 97.4838 443.172 96.8979 443.35C96.312 443.521 95.8296 443.743 95.4508 444.016L93.3912 443.767L94.492 434.818H103.938V436.771H96.3386L95.6994 442.134H95.8059C96.1788 441.838 96.6464 441.592 97.2086 441.397C97.7709 441.201 98.3568 441.104 98.9664 441.104C100.079 441.104 101.07 441.37 101.941 441.903C102.816 442.429 103.503 443.152 104 444.069C104.503 444.986 104.755 446.034 104.755 447.212C104.755 448.372 104.494 449.407 103.974 450.319C103.459 451.224 102.748 451.941 101.843 452.467C100.937 452.988 99.9075 453.249 98.7534 453.249ZM115.632 434.818H118.26L124.439 449.911H124.652L130.831 434.818H133.459V453H131.399V439.186H131.222L125.54 453H123.551L117.87 439.186H117.692V453H115.632V434.818ZM136.311 453V450.976H136.844C137.601 450.976 138.19 450.733 138.61 450.248C139.031 449.763 139.333 448.978 139.516 447.895C139.705 446.812 139.833 445.377 139.898 443.589L140.217 434.818H151.297V453H149.095V436.771H142.312L142.028 444.016C141.957 445.921 141.783 447.543 141.505 448.881C141.226 450.218 140.738 451.239 140.04 451.944C139.341 452.648 138.323 453 136.986 453H136.311ZM155.696 453V434.818H157.898V442.915H167.592V434.818H169.794V453H167.592V444.868H157.898V453H155.696Z" fill="#223C78"/>
<path d="M87.4275 577.818V596H85.2258V580.126H85.1192L80.6803 583.074V580.837L85.2258 577.818H87.4275ZM98.5869 596.249C97.2493 596.249 96.11 595.885 95.1689 595.157C94.2279 594.423 93.5088 593.36 93.0116 591.969C92.5145 590.573 92.2659 588.886 92.2659 586.909C92.2659 584.944 92.5145 583.266 93.0116 581.875C93.5147 580.479 94.2368 579.413 95.1778 578.679C96.1248 577.94 97.2612 577.57 98.5869 577.57C99.9127 577.57 101.046 577.94 101.987 578.679C102.934 579.413 103.656 580.479 104.153 581.875C104.656 583.266 104.908 584.944 104.908 586.909C104.908 588.886 104.659 590.573 104.162 591.969C103.665 593.36 102.946 594.423 102.005 595.157C101.064 595.885 99.9245 596.249 98.5869 596.249ZM98.5869 594.295C99.9127 594.295 100.943 593.656 101.676 592.378C102.41 591.099 102.777 589.277 102.777 586.909C102.777 585.335 102.609 583.994 102.271 582.887C101.94 581.781 101.46 580.937 100.833 580.357C100.212 579.777 99.4629 579.487 98.5869 579.487C97.273 579.487 96.2461 580.135 95.5063 581.431C94.7665 582.722 94.3966 584.548 94.3966 586.909C94.3966 588.483 94.5623 589.821 94.8937 590.922C95.2252 592.023 95.7016 592.86 96.3231 593.434C96.9504 594.008 97.705 594.295 98.5869 594.295ZM115.632 577.818H118.26L124.439 592.911H124.652L130.831 577.818H133.459V596H131.399V582.186H131.222L125.54 596H123.551L117.87 582.186H117.692V596H115.632V577.818ZM136.311 596V593.976H136.844C137.601 593.976 138.19 593.733 138.61 593.248C139.031 592.763 139.333 591.978 139.516 590.895C139.705 589.812 139.833 588.377 139.898 586.589L140.217 577.818H151.297V596H149.095V579.771H142.312L142.028 587.016C141.957 588.921 141.783 590.543 141.505 591.881C141.226 593.218 140.738 594.239 140.04 594.944C139.341 595.648 138.323 596 136.986 596H136.311ZM155.696 596V577.818H157.898V585.915H167.592V577.818H169.794V596H167.592V587.868H157.898V596H155.696Z" fill="#223C78"/>
<path d="M189.617 11.8594H212.062" stroke="#459F63" stroke-width="6.98309" stroke-linecap="round"/>
<path d="M189.617 297.125H212.062" stroke="#459F63" stroke-width="6.98309" stroke-linecap="round"/>
<path opacity="0.2" d="M251.336 155.172H1671" stroke="#223C78" stroke-width="3.49155" stroke-linecap="round"/>
<path d="M189.617 154.508H212.062" stroke="#459F63" stroke-width="6.98309" stroke-linecap="round"/>
<path d="M189.617 439.789H212.062" stroke="#459F63" stroke-width="6.98309" stroke-linecap="round"/>
<path d="M189.617 586.664H212.062" stroke="#459F63" stroke-width="6.98309" stroke-linecap="round"/>
<path d="M94.7138 739.249C93.6722 739.249 92.7341 739.041 91.8996 738.627C91.065 738.213 90.3962 737.645 89.8932 736.923C89.3901 736.201 89.1149 735.378 89.0675 734.455H91.1982C91.2811 735.277 91.6539 735.958 92.3168 736.496C92.9856 737.029 93.7846 737.295 94.7138 737.295C95.4596 737.295 96.1225 737.121 96.7025 736.772C97.2884 736.422 97.7471 735.943 98.0785 735.333C98.4159 734.718 98.5846 734.022 98.5846 733.247C98.5846 732.454 98.41 731.747 98.0608 731.125C97.7175 730.498 97.244 730.004 96.6403 729.643C96.0366 729.282 95.3471 729.098 94.5718 729.092C94.0154 729.086 93.4443 729.172 92.8584 729.35C92.2724 729.521 91.7901 729.743 91.4113 730.016L89.3516 729.767L90.4525 720.818H99.8985V722.771H92.2991L91.6599 728.134H91.7664C92.1393 727.838 92.6068 727.592 93.1691 727.397C93.7314 727.201 94.3173 727.104 94.9269 727.104C96.0396 727.104 97.031 727.37 97.901 727.903C98.7769 728.429 99.4635 729.152 99.9606 730.069C100.464 730.986 100.715 732.034 100.715 733.212C100.715 734.372 100.455 735.407 99.934 736.319C99.4191 737.224 98.7089 737.941 97.8033 738.467C96.8978 738.988 95.868 739.249 94.7138 739.249ZM111.593 720.818H114.221L120.4 735.911H120.613L126.792 720.818H129.42V739H127.36V725.186H127.182L121.501 739H119.512L113.83 725.186H113.652V739H111.593V720.818ZM132.272 739V736.976H132.804C133.562 736.976 134.151 736.733 134.571 736.248C134.991 735.763 135.293 734.978 135.476 733.895C135.666 732.812 135.793 731.377 135.858 729.589L136.178 720.818H147.257V739H145.056V722.771H138.273L137.989 730.016C137.918 731.921 137.743 733.543 137.465 734.881C137.187 736.218 136.699 737.239 136 737.944C135.302 738.648 134.284 739 132.946 739H132.272ZM151.656 739V720.818H153.858V728.915H163.553V720.818H165.754V739H163.553V730.868H153.858V739H151.656Z" fill="#223C78"/>
<path d="M360.585 789.721V811.539H356.025V793.471H347.204V811.539H342.644V789.721H360.585ZM364.976 811.539V789.721H373.584C375.239 789.721 376.649 790.037 377.814 790.669C378.979 791.294 379.866 792.164 380.477 793.279C381.095 794.387 381.404 795.665 381.404 797.114C381.404 798.563 381.091 799.842 380.466 800.95C379.841 802.058 378.936 802.92 377.75 803.538C376.571 804.156 375.143 804.465 373.467 804.465H367.981V800.768H372.721C373.609 800.768 374.341 800.616 374.916 800.31C375.498 799.998 375.932 799.568 376.216 799.021C376.507 798.467 376.653 797.832 376.653 797.114C376.653 796.39 376.507 795.758 376.216 795.218C375.932 794.671 375.498 794.249 374.916 793.95C374.334 793.645 373.595 793.492 372.7 793.492H369.589V811.539H364.976ZM384.4 811.539V789.721H399.102V793.524H389.013V798.723H398.346V802.526H389.013V807.736H399.145V811.539H384.4ZM421.317 789.721V811.539H416.757V793.471H407.936V811.539H403.377V789.721H421.317ZM429.469 811.539H424.526L432.058 789.721H438.003L445.524 811.539H440.581L435.116 794.707H434.945L429.469 811.539ZM429.161 802.963H440.837V806.564H429.161V802.963ZM448.15 811.539V789.721H456.758C458.413 789.721 459.823 790.037 460.988 790.669C462.152 791.294 463.04 792.164 463.651 793.279C464.269 794.387 464.578 795.665 464.578 797.114C464.578 798.563 464.265 799.842 463.64 800.95C463.015 802.058 462.11 802.92 460.924 803.538C459.745 804.156 458.317 804.465 456.641 804.465H451.154V800.768H455.895C456.783 800.768 457.515 800.616 458.09 800.31C458.672 799.998 459.105 799.568 459.39 799.021C459.681 798.467 459.826 797.832 459.826 797.114C459.826 796.39 459.681 795.758 459.39 795.218C459.105 794.671 458.672 794.249 458.09 793.95C457.507 793.645 456.769 793.492 455.874 793.492H452.763V811.539H448.15ZM468.815 811.539H463.872L471.404 789.721H477.349L484.87 811.539H479.927L474.461 794.707H474.291L468.815 811.539ZM468.506 802.963H480.182V806.564H468.506V802.963ZM483.999 793.524V789.721H501.918V793.524H495.238V811.539H490.679V793.524H483.999ZM511.812 811.539V789.721H515.573L524.33 804.732H524.511V789.721H528.314V811.539H524.607L515.818 796.582H515.637V811.539H511.812ZM531.233 805.168V802.707H540.651V805.168H531.233ZM535.932 800.939C534.859 800.939 533.929 800.708 533.14 800.246C532.359 799.785 531.756 799.156 531.329 798.361C530.903 797.565 530.69 796.663 530.69 795.655V794.717C530.69 793.716 530.903 792.817 531.329 792.022C531.756 791.219 532.359 790.587 533.14 790.126C533.922 789.664 534.845 789.433 535.91 789.433C536.99 789.433 537.917 789.664 538.691 790.126C539.472 790.587 540.072 791.219 540.491 792.022C540.917 792.817 541.131 793.716 541.131 794.717V795.655C541.131 796.656 540.921 797.555 540.502 798.35C540.09 799.146 539.493 799.778 538.712 800.246C537.938 800.708 537.011 800.939 535.932 800.939ZM535.932 798.297C536.606 798.297 537.128 798.059 537.498 797.583C537.874 797.1 538.062 796.457 538.062 795.655V794.717C538.062 793.922 537.878 793.29 537.508 792.821C537.139 792.352 536.606 792.118 535.91 792.118C535.221 792.118 534.692 792.352 534.323 792.821C533.961 793.29 533.78 793.922 533.78 794.717V795.655C533.78 796.457 533.964 797.1 534.334 797.583C534.703 798.059 535.236 798.297 535.932 798.297ZM544.731 811.539V808.215L552.498 801.024C553.158 800.385 553.712 799.81 554.16 799.298C554.614 798.787 554.959 798.286 555.193 797.796C555.427 797.299 555.545 796.763 555.545 796.188C555.545 795.548 555.399 794.998 555.108 794.536C554.817 794.067 554.419 793.709 553.915 793.46C553.41 793.205 552.839 793.077 552.199 793.077C551.532 793.077 550.949 793.212 550.452 793.482C549.955 793.751 549.572 794.138 549.302 794.643C549.032 795.147 548.897 795.747 548.897 796.443H544.518C544.518 795.016 544.841 793.776 545.488 792.725C546.134 791.674 547.04 790.861 548.204 790.286C549.369 789.71 550.711 789.423 552.231 789.423C553.794 789.423 555.154 789.7 556.312 790.254C557.476 790.8 558.382 791.56 559.028 792.533C559.675 793.506 559.998 794.621 559.998 795.879C559.998 796.702 559.834 797.516 559.508 798.318C559.188 799.121 558.616 800.012 557.792 800.992C556.969 801.965 555.807 803.134 554.309 804.497L551.123 807.619V807.768H560.285V811.539H544.731Z" fill="#459F63"/>
<path d="M328.57 469.519V505.883H320.882V476.817H320.669L312.342 482.037V475.219L321.344 469.519H328.57ZM353.033 469.519V505.883H345.345V476.817H345.132L336.805 482.037V475.219L345.807 469.519H353.033ZM387.204 506.38C385.334 506.368 383.529 506.054 381.789 505.439C380.06 504.823 378.51 503.823 377.137 502.438C375.764 501.053 374.675 499.219 373.87 496.934C373.077 494.649 372.68 491.844 372.68 488.518C372.692 485.464 373.041 482.735 373.728 480.332C374.426 477.918 375.42 475.87 376.711 474.189C378.013 472.508 379.569 471.23 381.38 470.354C383.191 469.466 385.221 469.022 387.471 469.022C389.897 469.022 392.04 469.496 393.898 470.442C395.757 471.378 397.248 472.65 398.373 474.26C399.509 475.87 400.195 477.675 400.432 479.675H392.85C392.555 478.409 391.933 477.415 390.986 476.692C390.039 475.97 388.867 475.609 387.471 475.609C385.103 475.609 383.304 476.639 382.073 478.699C380.854 480.759 380.232 483.558 380.208 487.097H380.457C381.002 486.02 381.735 485.103 382.659 484.345C383.594 483.576 384.653 482.99 385.837 482.587C387.033 482.173 388.293 481.966 389.619 481.966C391.773 481.966 393.691 482.475 395.372 483.493C397.053 484.499 398.378 485.884 399.349 487.648C400.32 489.411 400.805 491.43 400.805 493.702C400.805 496.165 400.231 498.354 399.083 500.272C397.946 502.19 396.354 503.693 394.306 504.782C392.27 505.859 389.903 506.392 387.204 506.38ZM387.169 500.343C388.352 500.343 389.412 500.059 390.347 499.491C391.282 498.923 392.016 498.153 392.549 497.183C393.081 496.212 393.348 495.123 393.348 493.915C393.348 492.708 393.081 491.625 392.549 490.666C392.028 489.707 391.306 488.944 390.382 488.376C389.459 487.808 388.406 487.523 387.222 487.523C386.334 487.523 385.511 487.689 384.754 488.021C384.008 488.352 383.351 488.814 382.783 489.406C382.227 489.997 381.789 490.684 381.469 491.465C381.15 492.235 380.99 493.057 380.99 493.933C380.99 495.105 381.256 496.176 381.789 497.147C382.333 498.118 383.067 498.893 383.99 499.473C384.926 500.053 385.985 500.343 387.169 500.343ZM420.514 506.682C417.46 506.67 414.832 505.918 412.63 504.427C410.44 502.935 408.754 500.775 407.57 497.946C406.398 495.117 405.818 491.714 405.83 487.737C405.83 483.771 406.416 480.392 407.588 477.598C408.771 474.804 410.458 472.68 412.648 471.224C414.85 469.756 417.472 469.022 420.514 469.022C423.556 469.022 426.172 469.756 428.362 471.224C430.564 472.692 432.256 474.822 433.44 477.616C434.624 480.397 435.21 483.771 435.198 487.737C435.198 491.726 434.606 495.135 433.422 497.964C432.25 500.793 430.569 502.953 428.38 504.445C426.19 505.936 423.568 506.682 420.514 506.682ZM420.514 500.308C422.597 500.308 424.26 499.26 425.503 497.165C426.746 495.07 427.362 491.927 427.35 487.737C427.35 484.978 427.066 482.682 426.498 480.847C425.941 479.013 425.148 477.634 424.118 476.71C423.1 475.787 421.899 475.325 420.514 475.325C418.442 475.325 416.785 476.361 415.542 478.433C414.299 480.504 413.672 483.605 413.66 487.737C413.66 490.53 413.938 492.862 414.495 494.732C415.063 496.591 415.862 497.987 416.892 498.923C417.922 499.846 419.129 500.308 420.514 500.308ZM454.938 506.682C451.884 506.67 449.256 505.918 447.054 504.427C444.864 502.935 443.177 500.775 441.994 497.946C440.822 495.117 440.242 491.714 440.254 487.737C440.254 483.771 440.84 480.392 442.012 477.598C443.195 474.804 444.882 472.68 447.072 471.224C449.274 469.756 451.896 469.022 454.938 469.022C457.98 469.022 460.596 469.756 462.786 471.224C464.987 472.692 466.68 474.822 467.864 477.616C469.048 480.397 469.633 483.771 469.622 487.737C469.622 491.726 469.03 495.135 467.846 497.964C466.674 500.793 464.993 502.953 462.803 504.445C460.614 505.936 457.992 506.682 454.938 506.682ZM454.938 500.308C457.021 500.308 458.684 499.26 459.927 497.165C461.17 495.07 461.785 491.927 461.774 487.737C461.774 484.978 461.49 482.682 460.921 480.847C460.365 479.013 459.572 477.634 458.542 476.71C457.524 475.787 456.323 475.325 454.938 475.325C452.866 475.325 451.209 476.361 449.966 478.433C448.723 480.504 448.096 483.605 448.084 487.737C448.084 490.53 448.362 492.862 448.919 494.732C449.487 496.591 450.286 497.987 451.316 498.923C452.345 499.846 453.553 500.308 454.938 500.308ZM500.934 506.682C497.88 506.67 495.252 505.918 493.05 504.427C490.86 502.935 489.174 500.775 487.99 497.946C486.818 495.117 486.238 491.714 486.25 487.737C486.25 483.771 486.836 480.392 488.008 477.598C489.191 474.804 490.878 472.68 493.068 471.224C495.27 469.756 497.892 469.022 500.934 469.022C503.976 469.022 506.592 469.756 508.782 471.224C510.983 472.692 512.676 474.822 513.86 477.616C515.044 480.397 515.63 483.771 515.618 487.737C515.618 491.726 515.026 495.135 513.842 497.964C512.67 500.793 510.989 502.953 508.8 504.445C506.61 505.936 503.988 506.682 500.934 506.682ZM500.934 500.308C503.017 500.308 504.68 499.26 505.923 497.165C507.166 495.07 507.782 491.927 507.77 487.737C507.77 484.978 507.486 482.682 506.917 480.847C506.361 479.013 505.568 477.634 504.538 476.71C503.52 475.787 502.319 475.325 500.934 475.325C498.862 475.325 497.205 476.361 495.962 478.433C494.719 480.504 494.092 483.605 494.08 487.737C494.08 490.53 494.358 492.862 494.915 494.732C495.483 496.591 496.282 497.987 497.312 498.923C498.341 499.846 499.549 500.308 500.934 500.308ZM535.358 506.682C532.304 506.67 529.676 505.918 527.474 504.427C525.284 502.935 523.597 500.775 522.414 497.946C521.242 495.117 520.662 491.714 520.674 487.737C520.674 483.771 521.26 480.392 522.431 477.598C523.615 474.804 525.302 472.68 527.492 471.224C529.694 469.756 532.315 469.022 535.358 469.022C538.4 469.022 541.016 469.756 543.206 471.224C545.407 472.692 547.1 474.822 548.284 477.616C549.467 480.397 550.053 483.771 550.042 487.737C550.042 491.726 549.45 495.135 548.266 497.964C547.094 500.793 545.413 502.953 543.223 504.445C541.033 505.936 538.412 506.682 535.358 506.682ZM535.358 500.308C537.441 500.308 539.104 499.26 540.347 497.165C541.59 495.07 542.205 491.927 542.194 487.737C542.194 484.978 541.909 482.682 541.341 480.847C540.785 479.013 539.992 477.634 538.962 476.71C537.944 475.787 536.743 475.325 535.358 475.325C533.286 475.325 531.629 476.361 530.386 478.433C529.143 480.504 528.516 483.605 528.504 487.737C528.504 490.53 528.782 492.862 529.338 494.732C529.907 496.591 530.706 497.987 531.735 498.923C532.765 499.846 533.973 500.308 535.358 500.308ZM569.781 506.682C566.727 506.67 564.1 505.918 561.898 504.427C559.708 502.935 558.021 500.775 556.838 497.946C555.666 495.117 555.086 491.714 555.097 487.737C555.097 483.771 555.683 480.392 556.855 477.598C558.039 474.804 559.726 472.68 561.916 471.224C564.117 469.756 566.739 469.022 569.781 469.022C572.824 469.022 575.44 469.756 577.629 471.224C579.831 472.692 581.524 474.822 582.708 477.616C583.891 480.397 584.477 483.771 584.465 487.737C584.465 491.726 583.874 495.135 582.69 497.964C581.518 500.793 579.837 502.953 577.647 504.445C575.457 505.936 572.835 506.682 569.781 506.682ZM569.781 500.308C571.865 500.308 573.528 499.26 574.771 497.165C576.014 495.07 576.629 491.927 576.617 487.737C576.617 484.978 576.333 482.682 575.765 480.847C575.209 479.013 574.416 477.634 573.386 476.71C572.368 475.787 571.166 475.325 569.781 475.325C567.71 475.325 566.053 476.361 564.81 478.433C563.567 480.504 562.94 483.605 562.928 487.737C562.928 490.53 563.206 492.862 563.762 494.732C564.33 496.591 565.129 497.987 566.159 498.923C567.189 499.846 568.396 500.308 569.781 500.308Z" fill="#459F63"/>
<path d="M820.539 114V108.46L833.483 96.4751C834.584 95.4098 835.507 94.451 836.253 93.5987C837.011 92.7464 837.585 91.9119 837.975 91.0952C838.366 90.2666 838.561 89.3729 838.561 88.4141C838.561 87.3487 838.319 86.4313 837.833 85.6619C837.348 84.8807 836.685 84.2829 835.845 83.8686C835.004 83.4425 834.051 83.2294 832.986 83.2294C831.873 83.2294 830.903 83.4543 830.074 83.9041C829.245 84.3539 828.606 84.9991 828.156 85.8395C827.707 86.6799 827.482 87.6802 827.482 88.8402H820.184C820.184 86.4609 820.723 84.3954 821.8 82.6435C822.877 80.8916 824.386 79.5362 826.328 78.5774C828.269 77.6186 830.506 77.1392 833.039 77.1392C835.643 77.1392 837.91 77.6009 839.84 78.5241C841.781 79.4356 843.29 80.7022 844.367 82.3239C845.445 83.9455 845.983 85.804 845.983 87.8991C845.983 89.2723 845.711 90.6276 845.166 91.9652C844.634 93.3028 843.681 94.7884 842.308 96.4219C840.935 98.0436 838.999 99.9908 836.502 102.263L831.193 107.466V107.714H846.463V114H820.539ZM865.315 114.497C862.805 114.497 860.568 114.036 858.603 113.112C856.65 112.189 855.099 110.916 853.951 109.295C852.803 107.673 852.205 105.815 852.158 103.719H859.615C859.698 105.128 860.29 106.27 861.391 107.146C862.491 108.022 863.799 108.46 865.315 108.46C866.522 108.46 867.587 108.194 868.511 107.661C869.446 107.117 870.174 106.365 870.695 105.406C871.227 104.436 871.494 103.323 871.494 102.068C871.494 100.79 871.221 99.6652 870.677 98.6946C870.144 97.724 869.404 96.9664 868.457 96.4219C867.51 95.8774 866.427 95.5992 865.208 95.5874C864.143 95.5874 863.107 95.8063 862.101 96.2443C861.107 96.6823 860.331 97.2801 859.775 98.0376L852.939 96.8125L854.661 77.6364H876.891V83.9219H861L860.059 93.0305H860.272C860.911 92.1309 861.876 91.3852 863.166 90.7933C864.456 90.2015 865.901 89.9055 867.499 89.9055C869.688 89.9055 871.642 90.4205 873.358 91.4503C875.074 92.4801 876.43 93.8946 877.424 95.6939C878.418 97.4813 878.91 99.541 878.898 101.873C878.91 104.323 878.341 106.501 877.193 108.407C876.057 110.301 874.465 111.792 872.417 112.881C870.381 113.959 868.013 114.497 865.315 114.497ZM910.09 114.799C907.036 114.787 904.408 114.036 902.206 112.544C900.017 111.053 898.33 108.892 897.146 106.063C895.974 103.234 895.394 99.831 895.406 95.8537C895.406 91.8883 895.992 88.5088 897.164 85.7152C898.348 82.9216 900.034 80.7969 902.224 79.3409C904.426 77.8731 907.048 77.1392 910.09 77.1392C913.132 77.1392 915.748 77.8731 917.938 79.3409C920.14 80.8087 921.832 82.9394 923.016 85.733C924.2 88.5147 924.786 91.8883 924.774 95.8537C924.774 99.8428 924.182 103.252 922.998 106.081C921.827 108.91 920.146 111.07 917.956 112.562C915.766 114.053 913.144 114.799 910.09 114.799ZM910.09 108.425C912.173 108.425 913.836 107.377 915.079 105.282C916.322 103.187 916.938 100.044 916.926 95.8537C916.926 93.0956 916.642 90.7992 916.074 88.9645C915.517 87.1297 914.724 85.7507 913.694 84.8274C912.676 83.9041 911.475 83.4425 910.09 83.4425C908.019 83.4425 906.361 84.4782 905.118 86.5497C903.876 88.6212 903.248 91.7225 903.236 95.8537C903.236 98.6473 903.515 100.979 904.071 102.849C904.639 104.708 905.438 106.105 906.468 107.04C907.498 107.963 908.705 108.425 910.09 108.425ZM944.514 114.799C941.46 114.787 938.832 114.036 936.63 112.544C934.44 111.053 932.754 108.892 931.57 106.063C930.398 103.234 929.818 99.831 929.83 95.8537C929.83 91.8883 930.416 88.5088 931.588 85.7152C932.771 82.9216 934.458 80.7969 936.648 79.3409C938.85 77.8731 941.472 77.1392 944.514 77.1392C947.556 77.1392 950.172 77.8731 952.362 79.3409C954.564 80.8087 956.256 82.9394 957.44 85.733C958.624 88.5147 959.21 91.8883 959.198 95.8537C959.198 99.8428 958.606 103.252 957.422 106.081C956.25 108.91 954.569 111.07 952.38 112.562C950.19 114.053 947.568 114.799 944.514 114.799ZM944.514 108.425C946.597 108.425 948.26 107.377 949.503 105.282C950.746 103.187 951.362 100.044 951.35 95.8537C951.35 93.0956 951.066 90.7992 950.498 88.9645C949.941 87.1297 949.148 85.7507 948.118 84.8274C947.1 83.9041 945.899 83.4425 944.514 83.4425C942.442 83.4425 940.785 84.4782 939.542 86.5497C938.299 88.6212 937.672 91.7225 937.66 95.8537C937.66 98.6473 937.938 100.979 938.495 102.849C939.063 104.708 939.862 106.105 940.892 107.04C941.922 107.963 943.129 108.425 944.514 108.425ZM978.938 114.799C975.884 114.787 973.256 114.036 971.054 112.544C968.864 111.053 967.177 108.892 965.994 106.063C964.822 103.234 964.242 99.831 964.254 95.8537C964.254 91.8883 964.84 88.5088 966.012 85.7152C967.195 82.9216 968.882 80.7969 971.072 79.3409C973.274 77.8731 975.896 77.1392 978.938 77.1392C981.98 77.1392 984.596 77.8731 986.786 79.3409C988.987 80.8087 990.68 82.9394 991.864 85.733C993.048 88.5147 993.633 91.8883 993.622 95.8537C993.622 99.8428 993.03 103.252 991.846 106.081C990.674 108.91 988.993 111.07 986.803 112.562C984.614 114.053 981.992 114.799 978.938 114.799ZM978.938 108.425C981.021 108.425 982.684 107.377 983.927 105.282C985.17 103.187 985.785 100.044 985.774 95.8537C985.774 93.0956 985.49 90.7992 984.921 88.9645C984.365 87.1297 983.572 85.7507 982.542 84.8274C981.524 83.9041 980.323 83.4425 978.938 83.4425C976.866 83.4425 975.209 84.4782 973.966 86.5497C972.723 88.6212 972.096 91.7225 972.084 95.8537C972.084 98.6473 972.362 100.979 972.919 102.849C973.487 104.708 974.286 106.105 975.316 107.04C976.345 107.963 977.553 108.425 978.938 108.425ZM1024.93 114.799C1021.88 114.787 1019.25 114.036 1017.05 112.544C1014.86 111.053 1013.17 108.892 1011.99 106.063C1010.82 103.234 1010.24 99.831 1010.25 95.8537C1010.25 91.8883 1010.84 88.5088 1012.01 85.7152C1013.19 82.9216 1014.88 80.7969 1017.07 79.3409C1019.27 77.8731 1021.89 77.1392 1024.93 77.1392C1027.98 77.1392 1030.59 77.8731 1032.78 79.3409C1034.98 80.8087 1036.68 82.9394 1037.86 85.733C1039.04 88.5147 1039.63 91.8883 1039.62 95.8537C1039.62 99.8428 1039.03 103.252 1037.84 106.081C1036.67 108.91 1034.99 111.07 1032.8 112.562C1030.61 114.053 1027.99 114.799 1024.93 114.799ZM1024.93 108.425C1027.02 108.425 1028.68 107.377 1029.92 105.282C1031.17 103.187 1031.78 100.044 1031.77 95.8537C1031.77 93.0956 1031.49 90.7992 1030.92 88.9645C1030.36 87.1297 1029.57 85.7507 1028.54 84.8274C1027.52 83.9041 1026.32 83.4425 1024.93 83.4425C1022.86 83.4425 1021.21 84.4782 1019.96 86.5497C1018.72 88.6212 1018.09 91.7225 1018.08 95.8537C1018.08 98.6473 1018.36 100.979 1018.91 102.849C1019.48 104.708 1020.28 106.105 1021.31 107.04C1022.34 107.963 1023.55 108.425 1024.93 108.425ZM1059.36 114.799C1056.3 114.787 1053.68 114.036 1051.47 112.544C1049.28 111.053 1047.6 108.892 1046.41 106.063C1045.24 103.234 1044.66 99.831 1044.67 95.8537C1044.67 91.8883 1045.26 88.5088 1046.43 85.7152C1047.62 82.9216 1049.3 80.7969 1051.49 79.3409C1053.69 77.8731 1056.32 77.1392 1059.36 77.1392C1062.4 77.1392 1065.02 77.8731 1067.21 79.3409C1069.41 80.8087 1071.1 82.9394 1072.28 85.733C1073.47 88.5147 1074.05 91.8883 1074.04 95.8537C1074.04 99.8428 1073.45 103.252 1072.27 106.081C1071.09 108.91 1069.41 111.07 1067.22 112.562C1065.03 114.053 1062.41 114.799 1059.36 114.799ZM1059.36 108.425C1061.44 108.425 1063.1 107.377 1064.35 105.282C1065.59 103.187 1066.21 100.044 1066.19 95.8537C1066.19 93.0956 1065.91 90.7992 1065.34 88.9645C1064.78 87.1297 1063.99 85.7507 1062.96 84.8274C1061.94 83.9041 1060.74 83.4425 1059.36 83.4425C1057.29 83.4425 1055.63 84.4782 1054.39 86.5497C1053.14 88.6212 1052.52 91.7225 1052.5 95.8537C1052.5 98.6473 1052.78 100.979 1053.34 102.849C1053.91 104.708 1054.71 106.105 1055.74 107.04C1056.77 107.963 1057.97 108.425 1059.36 108.425ZM1093.78 114.799C1090.73 114.787 1088.1 114.036 1085.9 112.544C1083.71 111.053 1082.02 108.892 1080.84 106.063C1079.67 103.234 1079.09 99.831 1079.1 95.8537C1079.1 91.8883 1079.68 88.5088 1080.86 85.7152C1082.04 82.9216 1083.73 80.7969 1085.92 79.3409C1088.12 77.8731 1090.74 77.1392 1093.78 77.1392C1096.82 77.1392 1099.44 77.8731 1101.63 79.3409C1103.83 80.8087 1105.52 82.9394 1106.71 85.733C1107.89 88.5147 1108.48 91.8883 1108.47 95.8537C1108.47 99.8428 1107.87 103.252 1106.69 106.081C1105.52 108.91 1103.84 111.07 1101.65 112.562C1099.46 114.053 1096.84 114.799 1093.78 114.799ZM1093.78 108.425C1095.86 108.425 1097.53 107.377 1098.77 105.282C1100.01 103.187 1100.63 100.044 1100.62 95.8537C1100.62 93.0956 1100.33 90.7992 1099.77 88.9645C1099.21 87.1297 1098.42 85.7507 1097.39 84.8274C1096.37 83.9041 1095.17 83.4425 1093.78 83.4425C1091.71 83.4425 1090.05 84.4782 1088.81 86.5497C1087.57 88.6212 1086.94 91.7225 1086.93 95.8537C1086.93 98.6473 1087.21 100.979 1087.76 102.849C1088.33 104.708 1089.13 106.105 1090.16 107.04C1091.19 107.963 1092.4 108.425 1093.78 108.425Z" fill="#9CB0B8"/>
<path d="M1395.3 319.48V355.844H1387.61V326.778H1387.4L1379.07 331.998V325.18L1388.07 319.48H1395.3ZM1405.38 355.844L1420.45 326.014V325.766H1402.89V319.48H1428.41V325.854L1413.31 355.844H1405.38ZM1459.2 356.341C1457.33 356.329 1455.53 356.015 1453.79 355.4C1452.06 354.784 1450.51 353.784 1449.14 352.399C1447.76 351.014 1446.67 349.179 1445.87 346.895C1445.08 344.61 1444.68 341.805 1444.68 338.479C1444.69 335.425 1445.04 332.696 1445.73 330.293C1446.43 327.879 1447.42 325.831 1448.71 324.15C1450.01 322.469 1451.57 321.191 1453.38 320.315C1455.19 319.427 1457.22 318.983 1459.47 318.983C1461.9 318.983 1464.04 319.456 1465.9 320.403C1467.76 321.339 1469.25 322.611 1470.37 324.221C1471.51 325.831 1472.2 327.636 1472.43 329.636H1464.85C1464.55 328.37 1463.93 327.375 1462.99 326.653C1462.04 325.931 1460.87 325.57 1459.47 325.57C1457.1 325.57 1455.3 326.6 1454.07 328.66C1452.85 330.719 1452.23 333.519 1452.21 337.058H1452.46C1453 335.981 1453.74 335.064 1454.66 334.306C1455.59 333.537 1456.65 332.951 1457.84 332.548C1459.03 332.134 1460.29 331.927 1461.62 331.927C1463.77 331.927 1465.69 332.436 1467.37 333.454C1469.05 334.46 1470.38 335.845 1471.35 337.609C1472.32 339.372 1472.81 341.391 1472.81 343.663C1472.81 346.125 1472.23 348.315 1471.08 350.233C1469.95 352.151 1468.35 353.654 1466.31 354.743C1464.27 355.82 1461.9 356.353 1459.2 356.341ZM1459.17 350.304C1460.35 350.304 1461.41 350.02 1462.35 349.452C1463.28 348.884 1464.02 348.114 1464.55 347.143C1465.08 346.173 1465.35 345.084 1465.35 343.876C1465.35 342.669 1465.08 341.586 1464.55 340.627C1464.03 339.668 1463.31 338.905 1462.38 338.337C1461.46 337.768 1460.41 337.484 1459.22 337.484C1458.33 337.484 1457.51 337.65 1456.75 337.982C1456.01 338.313 1455.35 338.775 1454.78 339.366C1454.23 339.958 1453.79 340.645 1453.47 341.426C1453.15 342.196 1452.99 343.018 1452.99 343.894C1452.99 345.066 1453.26 346.137 1453.79 347.108C1454.33 348.079 1455.07 348.854 1455.99 349.434C1456.93 350.014 1457.98 350.304 1459.17 350.304ZM1492.51 356.643C1489.46 356.631 1486.83 355.879 1484.63 354.388C1482.44 352.896 1480.75 350.736 1479.57 347.907C1478.4 345.078 1477.82 341.675 1477.83 337.697C1477.83 333.732 1478.42 330.353 1479.59 327.559C1480.77 324.765 1482.46 322.641 1484.65 321.185C1486.85 319.717 1489.47 318.983 1492.51 318.983C1495.56 318.983 1498.17 319.717 1500.36 321.185C1502.56 322.652 1504.26 324.783 1505.44 327.577C1506.62 330.358 1507.21 333.732 1507.2 337.697C1507.2 341.687 1506.61 345.096 1505.42 347.925C1504.25 350.754 1502.57 352.914 1500.38 354.406C1498.19 355.897 1495.57 356.643 1492.51 356.643ZM1492.51 350.268C1494.6 350.268 1496.26 349.221 1497.5 347.126C1498.75 345.031 1499.36 341.888 1499.35 337.697C1499.35 334.939 1499.07 332.643 1498.5 330.808C1497.94 328.973 1497.15 327.594 1496.12 326.671C1495.1 325.748 1493.9 325.286 1492.51 325.286C1490.44 325.286 1488.79 326.322 1487.54 328.393C1486.3 330.465 1485.67 333.566 1485.66 337.697C1485.66 340.491 1485.94 342.823 1486.49 344.693C1487.06 346.552 1487.86 347.948 1488.89 348.884C1489.92 349.807 1491.13 350.268 1492.51 350.268ZM1526.94 356.643C1523.88 356.631 1521.26 355.879 1519.05 354.388C1516.86 352.896 1515.18 350.736 1513.99 347.907C1512.82 345.078 1512.24 341.675 1512.25 337.697C1512.25 333.732 1512.84 330.353 1514.01 327.559C1515.2 324.765 1516.88 322.641 1519.07 321.185C1521.27 319.717 1523.9 318.983 1526.94 318.983C1529.98 318.983 1532.6 319.717 1534.79 321.185C1536.99 322.652 1538.68 324.783 1539.86 327.577C1541.05 330.358 1541.63 333.732 1541.62 337.697C1541.62 341.687 1541.03 345.096 1539.85 347.925C1538.67 350.754 1536.99 352.914 1534.8 354.406C1532.61 355.897 1529.99 356.643 1526.94 356.643ZM1526.94 350.268C1529.02 350.268 1530.68 349.221 1531.93 347.126C1533.17 345.031 1533.79 341.888 1533.77 337.697C1533.77 334.939 1533.49 332.643 1532.92 330.808C1532.36 328.973 1531.57 327.594 1530.54 326.671C1529.52 325.748 1528.32 325.286 1526.94 325.286C1524.87 325.286 1523.21 326.322 1521.97 328.393C1520.72 330.465 1520.1 333.566 1520.08 337.697C1520.08 340.491 1520.36 342.823 1520.92 344.693C1521.49 346.552 1522.29 347.948 1523.32 348.884C1524.35 349.807 1525.55 350.268 1526.94 350.268ZM1572.93 356.643C1569.88 356.631 1567.25 355.879 1565.05 354.388C1562.86 352.896 1561.17 350.736 1559.99 347.907C1558.82 345.078 1558.24 341.675 1558.25 337.697C1558.25 333.732 1558.84 330.353 1560.01 327.559C1561.19 324.765 1562.88 322.641 1565.07 321.185C1567.27 319.717 1569.89 318.983 1572.93 318.983C1575.98 318.983 1578.59 319.717 1580.78 321.185C1582.98 322.652 1584.68 324.783 1585.86 327.577C1587.04 330.358 1587.63 333.732 1587.62 337.697C1587.62 341.687 1587.03 345.096 1585.84 347.925C1584.67 350.754 1582.99 352.914 1580.8 354.406C1578.61 355.897 1575.99 356.643 1572.93 356.643ZM1572.93 350.268C1575.02 350.268 1576.68 349.221 1577.92 347.126C1579.17 345.031 1579.78 341.888 1579.77 337.697C1579.77 334.939 1579.49 332.643 1578.92 330.808C1578.36 328.973 1577.57 327.594 1576.54 326.671C1575.52 325.748 1574.32 325.286 1572.93 325.286C1570.86 325.286 1569.21 326.322 1567.96 328.393C1566.72 330.465 1566.09 333.566 1566.08 337.697C1566.08 340.491 1566.36 342.823 1566.91 344.693C1567.48 346.552 1568.28 347.948 1569.31 348.884C1570.34 349.807 1571.55 350.268 1572.93 350.268ZM1607.36 356.643C1604.3 356.631 1601.68 355.879 1599.47 354.388C1597.28 352.896 1595.6 350.736 1594.41 347.907C1593.24 345.078 1592.66 341.675 1592.67 337.697C1592.67 333.732 1593.26 330.353 1594.43 327.559C1595.62 324.765 1597.3 322.641 1599.49 321.185C1601.69 319.717 1604.32 318.983 1607.36 318.983C1610.4 318.983 1613.02 319.717 1615.21 321.185C1617.41 322.652 1619.1 324.783 1620.28 327.577C1621.47 330.358 1622.05 333.732 1622.04 337.697C1622.04 341.687 1621.45 345.096 1620.27 347.925C1619.09 350.754 1617.41 352.914 1615.22 354.406C1613.03 355.897 1610.41 356.643 1607.36 356.643ZM1607.36 350.268C1609.44 350.268 1611.1 349.221 1612.35 347.126C1613.59 345.031 1614.21 341.888 1614.19 337.697C1614.19 334.939 1613.91 332.643 1613.34 330.808C1612.78 328.973 1611.99 327.594 1610.96 326.671C1609.94 325.748 1608.74 325.286 1607.36 325.286C1605.29 325.286 1603.63 326.322 1602.39 328.393C1601.14 330.465 1600.52 333.566 1600.5 337.697C1600.5 340.491 1600.78 342.823 1601.34 344.693C1601.91 346.552 1602.71 347.948 1603.74 348.884C1604.77 349.807 1605.97 350.268 1607.36 350.268ZM1641.78 356.643C1638.73 356.631 1636.1 355.879 1633.9 354.388C1631.71 352.896 1630.02 350.736 1628.84 347.907C1627.67 345.078 1627.09 341.675 1627.1 337.697C1627.1 333.732 1627.68 330.353 1628.86 327.559C1630.04 324.765 1631.73 322.641 1633.92 321.185C1636.12 319.717 1638.74 318.983 1641.78 318.983C1644.82 318.983 1647.44 319.717 1649.63 321.185C1651.83 322.652 1653.52 324.783 1654.71 327.577C1655.89 330.358 1656.48 333.732 1656.47 337.697C1656.47 341.687 1655.87 345.096 1654.69 347.925C1653.52 350.754 1651.84 352.914 1649.65 354.406C1647.46 355.897 1644.84 356.643 1641.78 356.643ZM1641.78 350.268C1643.86 350.268 1645.53 349.221 1646.77 347.126C1648.01 345.031 1648.63 341.888 1648.62 337.697C1648.62 334.939 1648.33 332.643 1647.77 330.808C1647.21 328.973 1646.42 327.594 1645.39 326.671C1644.37 325.748 1643.17 325.286 1641.78 325.286C1639.71 325.286 1638.05 326.322 1636.81 328.393C1635.57 330.465 1634.94 333.566 1634.93 337.697C1634.93 340.491 1635.21 342.823 1635.76 344.693C1636.33 346.552 1637.13 347.948 1638.16 348.884C1639.19 349.807 1640.4 350.268 1641.78 350.268Z" fill="#656669"/>
<path d="M892.694 789.721V811.539H888.134V793.471H879.313V811.539H874.754V789.721H892.694ZM897.086 811.539V789.721H905.694C907.349 789.721 908.758 790.037 909.923 790.669C911.088 791.294 911.976 792.164 912.586 793.279C913.204 794.387 913.513 795.665 913.513 797.114C913.513 798.563 913.201 799.842 912.576 800.95C911.951 802.058 911.045 802.92 909.859 803.538C908.68 804.156 907.253 804.465 905.577 804.465H900.09V800.768H904.831C905.719 800.768 906.45 800.616 907.025 800.31C907.608 799.998 908.041 799.568 908.325 799.021C908.616 798.467 908.762 797.832 908.762 797.114C908.762 796.39 908.616 795.758 908.325 795.218C908.041 794.671 907.608 794.249 907.025 793.95C906.443 793.645 905.704 793.492 904.809 793.492H901.699V811.539H897.086ZM916.51 811.539V789.721H931.211V793.524H921.123V798.723H930.455V802.526H921.123V807.736H931.254V811.539H916.51ZM953.426 789.721V811.539H948.867V793.471H940.046V811.539H935.486V789.721H953.426ZM961.579 811.539H956.636L964.168 789.721H970.112L977.634 811.539H972.69L967.225 794.707H967.055L961.579 811.539ZM961.27 802.963H972.946V806.564H961.27V802.963ZM980.26 811.539V789.721H988.868C990.522 789.721 991.932 790.037 993.097 790.669C994.262 791.294 995.15 792.164 995.76 793.279C996.378 794.387 996.687 795.665 996.687 797.114C996.687 798.563 996.375 799.842 995.75 800.95C995.125 802.058 994.219 802.92 993.033 803.538C991.854 804.156 990.426 804.465 988.75 804.465H983.264V800.768H988.005C988.892 800.768 989.624 800.616 990.199 800.31C990.782 799.998 991.215 799.568 991.499 799.021C991.79 798.467 991.936 797.832 991.936 797.114C991.936 796.39 991.79 795.758 991.499 795.218C991.215 794.671 990.782 794.249 990.199 793.95C989.617 793.645 988.878 793.492 987.983 793.492H984.873V811.539H980.26ZM1000.92 811.539H995.981L1003.51 789.721H1009.46L1016.98 811.539H1012.04L1006.57 794.707H1006.4L1000.92 811.539ZM1000.62 802.963H1012.29V806.564H1000.62V802.963ZM1016.11 793.524V789.721H1034.03V793.524H1027.35V811.539H1022.79V793.524H1016.11ZM1043.92 811.539V789.721H1047.68L1056.44 804.732H1056.62V789.721H1060.42V811.539H1056.72L1047.93 796.582H1047.75V811.539H1043.92ZM1063.34 805.168V802.707H1072.76V805.168H1063.34ZM1068.04 800.939C1066.97 800.939 1066.04 800.708 1065.25 800.246C1064.47 799.785 1063.86 799.156 1063.44 798.361C1063.01 797.565 1062.8 796.663 1062.8 795.655V794.717C1062.8 793.716 1063.01 792.817 1063.44 792.022C1063.86 791.219 1064.47 790.587 1065.25 790.126C1066.03 789.664 1066.95 789.433 1068.02 789.433C1069.1 789.433 1070.03 789.664 1070.8 790.126C1071.58 790.587 1072.18 791.219 1072.6 792.022C1073.03 792.817 1073.24 793.716 1073.24 794.717V795.655C1073.24 796.656 1073.03 797.555 1072.61 798.35C1072.2 799.146 1071.6 799.778 1070.82 800.246C1070.05 800.708 1069.12 800.939 1068.04 800.939ZM1068.04 798.297C1068.72 798.297 1069.24 798.059 1069.61 797.583C1069.98 797.1 1070.17 796.457 1070.17 795.655V794.717C1070.17 793.922 1069.99 793.29 1069.62 792.821C1069.25 792.352 1068.72 792.118 1068.02 792.118C1067.33 792.118 1066.8 792.352 1066.43 792.821C1066.07 793.29 1065.89 793.922 1065.89 794.717V795.655C1065.89 796.457 1066.07 797.1 1066.44 797.583C1066.81 798.059 1067.34 798.297 1068.04 798.297ZM1086.33 789.721V811.539H1081.72V794.099H1081.59L1076.6 797.232V793.141L1082 789.721H1086.33Z" fill="#223C78"/>
<path d="M1433.15 789.721V811.539H1428.59V793.471H1419.76V811.539H1415.2V789.721H1433.15ZM1437.54 811.539V789.721H1446.14C1447.8 789.721 1449.21 790.037 1450.37 790.669C1451.54 791.294 1452.43 792.164 1453.04 793.279C1453.66 794.387 1453.96 795.665 1453.96 797.114C1453.96 798.563 1453.65 799.842 1453.03 800.95C1452.4 802.058 1451.5 802.92 1450.31 803.538C1449.13 804.156 1447.7 804.465 1446.03 804.465H1440.54V800.768H1445.28C1446.17 800.768 1446.9 800.616 1447.48 800.31C1448.06 799.998 1448.49 799.568 1448.78 799.021C1449.07 798.467 1449.21 797.832 1449.21 797.114C1449.21 796.39 1449.07 795.758 1448.78 795.218C1448.49 794.671 1448.06 794.249 1447.48 793.95C1446.89 793.645 1446.16 793.492 1445.26 793.492H1442.15V811.539H1437.54ZM1456.96 811.539V789.721H1471.66V793.524H1461.57V798.723H1470.91V802.526H1461.57V807.736H1471.71V811.539H1456.96ZM1493.88 789.721V811.539H1489.32V793.471H1480.5V811.539H1475.94V789.721H1493.88ZM1502.03 811.539H1497.09L1504.62 789.721H1510.56L1518.08 811.539H1513.14L1507.68 794.707H1507.51L1502.03 811.539ZM1501.72 802.963H1513.4V806.564H1501.72V802.963ZM1520.71 811.539V789.721H1529.32C1530.97 789.721 1532.38 790.037 1533.55 790.669C1534.71 791.294 1535.6 792.164 1536.21 793.279C1536.83 794.387 1537.14 795.665 1537.14 797.114C1537.14 798.563 1536.83 799.842 1536.2 800.95C1535.58 802.058 1534.67 802.92 1533.48 803.538C1532.31 804.156 1530.88 804.465 1529.2 804.465H1523.72V800.768H1528.46C1529.34 800.768 1530.08 800.616 1530.65 800.31C1531.23 799.998 1531.67 799.568 1531.95 799.021C1532.24 798.467 1532.39 797.832 1532.39 797.114C1532.39 796.39 1532.24 795.758 1531.95 795.218C1531.67 794.671 1531.23 794.249 1530.65 793.95C1530.07 793.645 1529.33 793.492 1528.43 793.492H1525.32V811.539H1520.71ZM1541.38 811.539H1536.43L1543.96 789.721H1549.91L1557.43 811.539H1552.49L1547.02 794.707H1546.85L1541.38 811.539ZM1541.07 802.963H1552.74V806.564H1541.07V802.963ZM1556.56 793.524V789.721H1574.48V793.524H1567.8V811.539H1563.24V793.524H1556.56ZM1584.37 811.539V789.721H1588.13L1596.89 804.732H1597.07V789.721H1600.88V811.539H1597.17L1588.38 796.582H1588.2V811.539H1584.37ZM1603.79 805.168V802.707H1613.21V805.168H1603.79ZM1608.49 800.939C1607.42 800.939 1606.49 800.708 1605.7 800.246C1604.92 799.785 1604.32 799.156 1603.89 798.361C1603.46 797.565 1603.25 796.663 1603.25 795.655V794.717C1603.25 793.716 1603.46 792.817 1603.89 792.022C1604.32 791.219 1604.92 790.587 1605.7 790.126C1606.48 789.664 1607.41 789.433 1608.47 789.433C1609.55 789.433 1610.48 789.664 1611.25 790.126C1612.03 790.587 1612.63 791.219 1613.05 792.022C1613.48 792.817 1613.69 793.716 1613.69 794.717V795.655C1613.69 796.656 1613.48 797.555 1613.06 798.35C1612.65 799.146 1612.05 799.778 1611.27 800.246C1610.5 800.708 1609.57 800.939 1608.49 800.939ZM1608.49 798.297C1609.17 798.297 1609.69 798.059 1610.06 797.583C1610.43 797.1 1610.62 796.457 1610.62 795.655V794.717C1610.62 793.922 1610.44 793.29 1610.07 792.821C1609.7 792.352 1609.17 792.118 1608.47 792.118C1607.78 792.118 1607.25 792.352 1606.88 792.821C1606.52 793.29 1606.34 793.922 1606.34 794.717V795.655C1606.34 796.457 1606.52 797.1 1606.89 797.583C1607.26 798.059 1607.8 798.297 1608.49 798.297ZM1625.36 811.837C1623.77 811.837 1622.35 811.564 1621.11 811.017C1619.87 810.463 1618.89 809.703 1618.18 808.737C1617.47 807.764 1617.1 806.642 1617.08 805.371H1621.72C1621.75 805.903 1621.93 806.372 1622.25 806.777C1622.57 807.175 1623.01 807.484 1623.55 807.704C1624.09 807.924 1624.69 808.034 1625.37 808.034C1626.07 808.034 1626.69 807.91 1627.23 807.661C1627.77 807.413 1628.19 807.068 1628.5 806.628C1628.8 806.187 1628.96 805.68 1628.96 805.104C1628.96 804.522 1628.79 804.007 1628.47 803.56C1628.15 803.105 1627.69 802.75 1627.08 802.494C1626.49 802.239 1625.78 802.111 1624.95 802.111H1622.92V798.723H1624.95C1625.65 798.723 1626.26 798.602 1626.79 798.361C1627.33 798.119 1627.75 797.786 1628.05 797.359C1628.35 796.926 1628.5 796.422 1628.5 795.847C1628.5 795.3 1628.37 794.82 1628.11 794.408C1627.85 793.989 1627.49 793.663 1627.02 793.428C1626.56 793.194 1626.02 793.077 1625.4 793.077C1624.77 793.077 1624.2 793.19 1623.68 793.418C1623.17 793.638 1622.75 793.954 1622.44 794.366C1622.12 794.778 1621.96 795.261 1621.94 795.815H1617.52C1617.54 794.558 1617.9 793.45 1618.59 792.491C1619.29 791.532 1620.23 790.783 1621.4 790.243C1622.59 789.696 1623.93 789.423 1625.42 789.423C1626.93 789.423 1628.24 789.696 1629.37 790.243C1630.5 790.79 1631.38 791.528 1632 792.459C1632.64 793.382 1632.95 794.419 1632.94 795.57C1632.95 796.791 1632.57 797.81 1631.8 798.627C1631.04 799.444 1630.05 799.962 1628.83 800.183V800.353C1630.43 800.559 1631.66 801.116 1632.49 802.026C1633.34 802.928 1633.76 804.057 1633.75 805.413C1633.76 806.656 1633.4 807.761 1632.68 808.727C1631.96 809.692 1630.97 810.452 1629.7 811.006C1628.44 811.56 1626.99 811.837 1625.36 811.837Z" fill="#223C78"/>
<path d="M189.617 736.484H212.062" stroke="#459F63" stroke-width="6.98309" stroke-linecap="round"/>
<path d="M251.336 738.039L1671 738.039" stroke="#223C78" stroke-width="4" stroke-linecap="round"/>
<path d="M1466 395.711H1582C1597.74 395.711 1610.5 408.471 1610.5 424.211V734.711H1437.5V424.211C1437.5 408.471 1450.26 395.711 1466 395.711Z" fill="url(#paint0_linear_3837_2263)" stroke="url(#paint1_linear_3837_2263)" stroke-width="3"/>
<path d="M926.051 152.711H1019.95C1041.79 152.711 1059.5 170.418 1059.5 192.262V734.711H886.5V192.262C886.5 170.418 904.208 152.711 926.051 152.711Z" fill="url(#paint2_linear_3837_2263)" stroke="url(#paint3_linear_3837_2263)" stroke-width="3"/>
<path d="M577 279.5H775C796.263 279.5 813.5 296.737 813.5 318V323C813.5 344.263 796.263 361.5 775 361.5H577C555.737 361.5 538.5 344.263 538.5 323V318C538.5 296.737 555.737 279.5 577 279.5Z" fill="url(#paint4_linear_3837_2263)" stroke="url(#paint5_linear_3837_2263)" stroke-width="3"/>
<path d="M581.15 327.739V312.653H584.964V327.739H581.15ZM575.514 322.103V318.289H590.599V322.103H575.514ZM611.456 309.244V331.062H606.843V313.623H606.715L601.719 316.755V312.664L607.12 309.244H611.456ZM624.706 331.361C623.115 331.361 621.698 331.087 620.455 330.54C619.22 329.987 618.243 329.227 617.526 328.261C616.816 327.288 616.45 326.165 616.428 324.894H621.073C621.102 325.427 621.276 325.896 621.595 326.3C621.922 326.698 622.355 327.007 622.895 327.227C623.435 327.447 624.042 327.558 624.717 327.558C625.42 327.558 626.041 327.433 626.581 327.185C627.121 326.936 627.544 326.592 627.849 326.151C628.154 325.711 628.307 325.203 628.307 324.628C628.307 324.045 628.144 323.531 627.817 323.083C627.497 322.629 627.036 322.273 626.432 322.018C625.835 321.762 625.125 321.634 624.301 321.634H622.267V318.246H624.301C624.997 318.246 625.612 318.126 626.144 317.884C626.684 317.643 627.103 317.309 627.401 316.883C627.7 316.45 627.849 315.945 627.849 315.37C627.849 314.823 627.718 314.344 627.455 313.932C627.199 313.513 626.837 313.186 626.368 312.952C625.906 312.717 625.367 312.6 624.749 312.6C624.124 312.6 623.552 312.714 623.034 312.941C622.515 313.161 622.1 313.477 621.787 313.889C621.475 314.301 621.308 314.784 621.286 315.338H616.865C616.887 314.081 617.245 312.973 617.941 312.014C618.637 311.055 619.575 310.306 620.754 309.766C621.94 309.219 623.279 308.946 624.77 308.946C626.276 308.946 627.593 309.219 628.722 309.766C629.852 310.313 630.729 311.052 631.354 311.982C631.986 312.906 632.298 313.942 632.291 315.093C632.298 316.315 631.919 317.334 631.151 318.151C630.392 318.967 629.401 319.486 628.179 319.706V319.876C629.784 320.082 631.006 320.64 631.844 321.549C632.689 322.451 633.108 323.58 633.101 324.937C633.108 326.18 632.749 327.284 632.025 328.25C631.308 329.216 630.317 329.976 629.053 330.53C627.789 331.084 626.34 331.361 624.706 331.361ZM643.03 327.227V323.594L652.139 309.244H655.271V314.273H653.417L647.675 323.36V323.531H660.619V327.227H643.03ZM653.502 331.062V326.119L653.588 324.511V309.244H657.913V331.062H653.502ZM672.247 331.542C670.415 331.535 668.838 331.084 667.517 330.189C666.203 329.294 665.191 327.998 664.481 326.3C663.778 324.603 663.43 322.561 663.437 320.175C663.437 317.795 663.788 315.768 664.491 314.092C665.202 312.415 666.214 311.141 667.528 310.267C668.849 309.386 670.422 308.946 672.247 308.946C674.072 308.946 675.642 309.386 676.956 310.267C678.277 311.148 679.292 312.426 680.003 314.102C680.713 315.771 681.064 317.795 681.057 320.175C681.057 322.568 680.702 324.614 679.992 326.311C679.289 328.009 678.28 329.305 676.966 330.2C675.653 331.094 674.079 331.542 672.247 331.542ZM672.247 327.717C673.497 327.717 674.495 327.089 675.241 325.832C675.986 324.575 676.356 322.689 676.349 320.175C676.349 318.52 676.178 317.142 675.837 316.041C675.503 314.94 675.028 314.113 674.41 313.559C673.799 313.005 673.078 312.728 672.247 312.728C671.004 312.728 670.01 313.349 669.264 314.592C668.518 315.835 668.142 317.696 668.135 320.175C668.135 321.851 668.302 323.25 668.635 324.372C668.976 325.487 669.456 326.325 670.074 326.886C670.692 327.44 671.416 327.717 672.247 327.717ZM692.901 331.542C691.069 331.535 689.492 331.084 688.171 330.189C686.857 329.294 685.845 327.998 685.135 326.3C684.432 324.603 684.084 322.561 684.091 320.175C684.091 317.795 684.442 315.768 685.146 314.092C685.856 312.415 686.868 311.141 688.182 310.267C689.503 309.386 691.076 308.946 692.901 308.946C694.727 308.946 696.296 309.386 697.61 310.267C698.931 311.148 699.947 312.426 700.657 314.102C701.367 315.771 701.719 317.795 701.712 320.175C701.712 322.568 701.357 324.614 700.646 326.311C699.943 328.009 698.935 329.305 697.621 330.2C696.307 331.094 694.734 331.542 692.901 331.542ZM692.901 327.717C694.151 327.717 695.149 327.089 695.895 325.832C696.641 324.575 697.01 322.689 697.003 320.175C697.003 318.52 696.832 317.142 696.491 316.041C696.158 314.94 695.682 314.113 695.064 313.559C694.453 313.005 693.732 312.728 692.901 312.728C691.658 312.728 690.664 313.349 689.918 314.592C689.173 315.835 688.796 317.696 688.789 320.175C688.789 321.851 688.956 323.25 689.29 324.372C689.631 325.487 690.11 326.325 690.728 326.886C691.346 327.44 692.07 327.717 692.901 327.717ZM720.499 331.542C718.667 331.535 717.09 331.084 715.769 330.189C714.455 329.294 713.443 327.998 712.733 326.3C712.029 324.603 711.681 322.561 711.689 320.175C711.689 317.795 712.04 315.768 712.743 314.092C713.453 312.415 714.466 311.141 715.779 310.267C717.1 309.386 718.674 308.946 720.499 308.946C722.324 308.946 723.894 309.386 725.208 310.267C726.529 311.148 727.544 312.426 728.255 314.102C728.965 315.771 729.316 317.795 729.309 320.175C729.309 322.568 728.954 324.614 728.244 326.311C727.541 328.009 726.532 329.305 725.218 330.2C723.904 331.094 722.331 331.542 720.499 331.542ZM720.499 327.717C721.749 327.717 722.747 327.089 723.493 325.832C724.238 324.575 724.608 322.689 724.6 320.175C724.6 318.52 724.43 317.142 724.089 316.041C723.755 314.94 723.279 314.113 722.662 313.559C722.051 313.005 721.33 312.728 720.499 312.728C719.256 312.728 718.262 313.349 717.516 314.592C716.77 315.835 716.394 317.696 716.387 320.175C716.387 321.851 716.554 323.25 716.887 324.372C717.228 325.487 717.708 326.325 718.326 326.886C718.944 327.44 719.668 327.717 720.499 327.717ZM741.153 331.542C739.321 331.535 737.744 331.084 736.423 330.189C735.109 329.294 734.097 327.998 733.387 326.3C732.684 324.603 732.336 322.561 732.343 320.175C732.343 317.795 732.694 315.768 733.398 314.092C734.108 312.415 735.12 311.141 736.434 310.267C737.755 309.386 739.328 308.946 741.153 308.946C742.979 308.946 744.548 309.386 745.862 310.267C747.183 311.148 748.199 312.426 748.909 314.102C749.619 315.771 749.971 317.795 749.964 320.175C749.964 322.568 749.608 324.614 748.898 326.311C748.195 328.009 747.187 329.305 745.873 330.2C744.559 331.094 742.986 331.542 741.153 331.542ZM741.153 327.717C742.403 327.717 743.401 327.089 744.147 325.832C744.893 324.575 745.262 322.689 745.255 320.175C745.255 318.52 745.084 317.142 744.743 316.041C744.41 314.94 743.934 314.113 743.316 313.559C742.705 313.005 741.984 312.728 741.153 312.728C739.91 312.728 738.916 313.349 738.17 314.592C737.425 315.835 737.048 317.696 737.041 320.175C737.041 321.851 737.208 323.25 737.542 324.372C737.883 325.487 738.362 326.325 738.98 326.886C739.598 327.44 740.322 327.717 741.153 327.717ZM761.808 331.542C759.975 331.535 758.398 331.084 757.077 330.189C755.763 329.294 754.751 327.998 754.041 326.3C753.338 324.603 752.99 322.561 752.997 320.175C752.997 317.795 753.349 315.768 754.052 314.092C754.762 312.415 755.774 311.141 757.088 310.267C758.409 309.386 759.982 308.946 761.808 308.946C763.633 308.946 765.202 309.386 766.516 310.267C767.837 311.148 768.853 312.426 769.563 314.102C770.273 315.771 770.625 317.795 770.618 320.175C770.618 322.568 770.263 324.614 769.553 326.311C768.849 328.009 767.841 329.305 766.527 330.2C765.213 331.094 763.64 331.542 761.808 331.542ZM761.808 327.717C763.058 327.717 764.055 327.089 764.801 325.832C765.547 324.575 765.916 322.689 765.909 320.175C765.909 318.52 765.739 317.142 765.398 316.041C765.064 314.94 764.588 314.113 763.97 313.559C763.359 313.005 762.638 312.728 761.808 312.728C760.565 312.728 759.57 313.349 758.825 314.592C758.079 315.835 757.702 317.696 757.695 320.175C757.695 321.851 757.862 323.25 758.196 324.372C758.537 325.487 759.016 326.325 759.634 326.886C760.252 327.44 760.977 327.717 761.808 327.717Z" fill="white"/>
<path d="M1156 393.5H1334C1349.74 393.5 1362.5 406.26 1362.5 422V453C1362.5 468.74 1349.74 481.5 1334 481.5H1156C1140.26 481.5 1127.5 468.74 1127.5 453V422C1127.5 406.26 1140.26 393.5 1156 393.5Z" fill="url(#paint6_linear_3837_2263)" stroke="url(#paint7_linear_3837_2263)" stroke-width="3"/>
<path d="M1157.34 446.801V431.716H1161.15V446.801H1157.34ZM1151.7 441.165V437.352H1166.79V441.165H1151.7ZM1186.52 450.423C1185.4 450.416 1184.32 450.228 1183.28 449.859C1182.24 449.489 1181.31 448.889 1180.48 448.058C1179.66 447.227 1179.01 446.126 1178.52 444.756C1178.05 443.385 1177.81 441.702 1177.81 439.706C1177.82 437.874 1178.03 436.237 1178.44 434.795C1178.86 433.346 1179.45 432.117 1180.23 431.109C1181.01 430.1 1181.94 429.333 1183.03 428.808C1184.12 428.275 1185.34 428.009 1186.68 428.009C1188.14 428.009 1189.43 428.293 1190.54 428.861C1191.66 429.422 1192.55 430.185 1193.23 431.151C1193.91 432.117 1194.32 433.2 1194.46 434.401H1189.91C1189.74 433.641 1189.36 433.044 1188.79 432.611C1188.23 432.178 1187.52 431.961 1186.68 431.961C1185.26 431.961 1184.18 432.579 1183.45 433.815C1182.71 435.05 1182.34 436.73 1182.33 438.854H1182.48C1182.8 438.207 1183.24 437.657 1183.8 437.202C1184.36 436.741 1184.99 436.389 1185.7 436.148C1186.42 435.899 1187.18 435.775 1187.97 435.775C1189.27 435.775 1190.42 436.08 1191.43 436.691C1192.43 437.295 1193.23 438.126 1193.81 439.184C1194.39 440.242 1194.69 441.453 1194.69 442.817C1194.69 444.294 1194.34 445.608 1193.65 446.759C1192.97 447.909 1192.01 448.811 1190.79 449.464C1189.56 450.111 1188.14 450.43 1186.52 450.423ZM1186.5 446.801C1187.21 446.801 1187.85 446.631 1188.41 446.29C1188.97 445.949 1189.41 445.487 1189.73 444.905C1190.05 444.322 1190.21 443.669 1190.21 442.945C1190.21 442.22 1190.05 441.57 1189.73 440.995C1189.42 440.42 1188.99 439.962 1188.43 439.621C1187.88 439.28 1187.25 439.109 1186.54 439.109C1186 439.109 1185.51 439.209 1185.05 439.408C1184.61 439.607 1184.21 439.884 1183.87 440.239C1183.54 440.594 1183.28 441.006 1183.08 441.474C1182.89 441.936 1182.8 442.43 1182.8 442.955C1182.8 443.658 1182.96 444.301 1183.28 444.884C1183.6 445.466 1184.04 445.931 1184.6 446.279C1185.16 446.627 1185.79 446.801 1186.5 446.801ZM1213.45 450.604C1211.62 450.597 1210.04 450.146 1208.72 449.251C1207.41 448.357 1206.4 447.06 1205.69 445.363C1204.98 443.665 1204.64 441.624 1204.64 439.237C1204.64 436.858 1205 434.83 1205.7 433.154C1206.41 431.478 1207.42 430.203 1208.73 429.33C1210.06 428.449 1211.63 428.009 1213.45 428.009C1215.28 428.009 1216.85 428.449 1218.16 429.33C1219.48 430.21 1220.5 431.489 1221.21 433.165C1221.92 434.834 1222.27 436.858 1222.26 439.237C1222.26 441.631 1221.91 443.676 1221.2 445.374C1220.5 447.071 1219.49 448.367 1218.17 449.262C1216.86 450.157 1215.29 450.604 1213.45 450.604ZM1213.45 446.78C1214.7 446.78 1215.7 446.151 1216.45 444.894C1217.19 443.637 1217.56 441.751 1217.56 439.237C1217.56 437.582 1217.39 436.205 1217.04 435.104C1216.71 434.003 1216.23 433.175 1215.62 432.621C1215.01 432.067 1214.28 431.79 1213.45 431.79C1212.21 431.79 1211.22 432.412 1210.47 433.655C1209.73 434.898 1209.35 436.759 1209.34 439.237C1209.34 440.913 1209.51 442.312 1209.84 443.435C1210.18 444.55 1210.66 445.388 1211.28 445.949C1211.9 446.503 1212.62 446.78 1213.45 446.78ZM1234.11 450.604C1232.28 450.597 1230.7 450.146 1229.38 449.251C1228.06 448.357 1227.05 447.06 1226.34 445.363C1225.64 443.665 1225.29 441.624 1225.3 439.237C1225.3 436.858 1225.65 434.83 1226.35 433.154C1227.06 431.478 1228.07 430.203 1229.39 429.33C1230.71 428.449 1232.28 428.009 1234.11 428.009C1235.93 428.009 1237.5 428.449 1238.82 429.33C1240.14 430.21 1241.15 431.489 1241.86 433.165C1242.57 434.834 1242.93 436.858 1242.92 439.237C1242.92 441.631 1242.56 443.676 1241.85 445.374C1241.15 447.071 1240.14 448.367 1238.83 449.262C1237.51 450.157 1235.94 450.604 1234.11 450.604ZM1234.11 446.78C1235.36 446.78 1236.36 446.151 1237.1 444.894C1237.85 443.637 1238.22 441.751 1238.21 439.237C1238.21 437.582 1238.04 436.205 1237.7 435.104C1237.36 434.003 1236.89 433.175 1236.27 432.621C1235.66 432.067 1234.94 431.79 1234.11 431.79C1232.87 431.79 1231.87 432.412 1231.13 433.655C1230.38 434.898 1230 436.759 1230 439.237C1230 440.913 1230.16 442.312 1230.5 443.435C1230.84 444.55 1231.32 445.388 1231.94 445.949C1232.55 446.503 1233.28 446.78 1234.11 446.78ZM1254.76 450.604C1252.93 450.597 1251.35 450.146 1250.03 449.251C1248.72 448.357 1247.71 447.06 1247 445.363C1246.29 443.665 1245.95 441.624 1245.95 439.237C1245.95 436.858 1246.3 434.83 1247.01 433.154C1247.72 431.478 1248.73 430.203 1250.04 429.33C1251.36 428.449 1252.94 428.009 1254.76 428.009C1256.59 428.009 1258.16 428.449 1259.47 429.33C1260.79 430.21 1261.81 431.489 1262.52 433.165C1263.23 434.834 1263.58 436.858 1263.57 439.237C1263.57 441.631 1263.22 443.676 1262.51 445.374C1261.8 447.071 1260.8 448.367 1259.48 449.262C1258.17 450.157 1256.59 450.604 1254.76 450.604ZM1254.76 446.78C1256.01 446.78 1257.01 446.151 1257.76 444.894C1258.5 443.637 1258.87 441.751 1258.86 439.237C1258.86 437.582 1258.69 436.205 1258.35 435.104C1258.02 434.003 1257.54 433.175 1256.93 432.621C1256.31 432.067 1255.59 431.79 1254.76 431.79C1253.52 431.79 1252.53 432.412 1251.78 433.655C1251.03 434.898 1250.66 436.759 1250.65 439.237C1250.65 440.913 1250.82 442.312 1251.15 443.435C1251.49 444.55 1251.97 445.388 1252.59 445.949C1253.21 446.503 1253.93 446.78 1254.76 446.78ZM1282.36 450.604C1280.53 450.597 1278.95 450.146 1277.63 449.251C1276.32 448.357 1275.3 447.06 1274.59 445.363C1273.89 443.665 1273.54 441.624 1273.55 439.237C1273.55 436.858 1273.9 434.83 1274.6 433.154C1275.31 431.478 1276.33 430.203 1277.64 429.33C1278.96 428.449 1280.53 428.009 1282.36 428.009C1284.19 428.009 1285.76 428.449 1287.07 429.33C1288.39 430.21 1289.41 431.489 1290.12 433.165C1290.83 434.834 1291.18 436.858 1291.17 439.237C1291.17 441.631 1290.82 443.676 1290.11 445.374C1289.4 447.071 1288.39 448.367 1287.08 449.262C1285.77 450.157 1284.19 450.604 1282.36 450.604ZM1282.36 446.78C1283.61 446.78 1284.61 446.151 1285.35 444.894C1286.1 443.637 1286.47 441.751 1286.46 439.237C1286.46 437.582 1286.29 436.205 1285.95 435.104C1285.62 434.003 1285.14 433.175 1284.52 432.621C1283.91 432.067 1283.19 431.79 1282.36 431.79C1281.12 431.79 1280.12 432.412 1279.38 433.655C1278.63 434.898 1278.26 436.759 1278.25 439.237C1278.25 440.913 1278.41 442.312 1278.75 443.435C1279.09 444.55 1279.57 445.388 1280.19 445.949C1280.8 446.503 1281.53 446.78 1282.36 446.78ZM1303.01 450.604C1301.18 450.597 1299.61 450.146 1298.28 449.251C1296.97 448.357 1295.96 447.06 1295.25 445.363C1294.55 443.665 1294.2 441.624 1294.2 439.237C1294.2 436.858 1294.56 434.83 1295.26 433.154C1295.97 431.478 1296.98 430.203 1298.3 429.33C1299.62 428.449 1301.19 428.009 1303.01 428.009C1304.84 428.009 1306.41 428.449 1307.72 429.33C1309.04 430.21 1310.06 431.489 1310.77 433.165C1311.48 434.834 1311.83 436.858 1311.82 439.237C1311.82 441.631 1311.47 443.676 1310.76 445.374C1310.06 447.071 1309.05 448.367 1307.73 449.262C1306.42 450.157 1304.85 450.604 1303.01 450.604ZM1303.01 446.78C1304.26 446.78 1305.26 446.151 1306.01 444.894C1306.75 443.637 1307.12 441.751 1307.12 439.237C1307.12 437.582 1306.95 436.205 1306.6 435.104C1306.27 434.003 1305.8 433.175 1305.18 432.621C1304.57 432.067 1303.85 431.79 1303.01 431.79C1301.77 431.79 1300.78 432.412 1300.03 433.655C1299.29 434.898 1298.91 436.759 1298.9 439.237C1298.9 440.913 1299.07 442.312 1299.4 443.435C1299.74 444.55 1300.22 445.388 1300.84 445.949C1301.46 446.503 1302.18 446.78 1303.01 446.78ZM1323.67 450.604C1321.84 450.597 1320.26 450.146 1318.94 449.251C1317.62 448.357 1316.61 447.06 1315.9 445.363C1315.2 443.665 1314.85 441.624 1314.86 439.237C1314.86 436.858 1315.21 434.83 1315.91 433.154C1316.62 431.478 1317.64 430.203 1318.95 429.33C1320.27 428.449 1321.84 428.009 1323.67 428.009C1325.49 428.009 1327.06 428.449 1328.38 429.33C1329.7 430.21 1330.71 431.489 1331.42 433.165C1332.13 434.834 1332.49 436.858 1332.48 439.237C1332.48 441.631 1332.12 443.676 1331.41 445.374C1330.71 447.071 1329.7 448.367 1328.39 449.262C1327.07 450.157 1325.5 450.604 1323.67 450.604ZM1323.67 446.78C1324.92 446.78 1325.92 446.151 1326.66 444.894C1327.41 443.637 1327.78 441.751 1327.77 439.237C1327.77 437.582 1327.6 436.205 1327.26 435.104C1326.93 434.003 1326.45 433.175 1325.83 432.621C1325.22 432.067 1324.5 431.79 1323.67 431.79C1322.43 431.79 1321.43 432.412 1320.69 433.655C1319.94 434.898 1319.56 436.759 1319.56 439.237C1319.56 440.913 1319.72 442.312 1320.06 443.435C1320.4 444.55 1320.88 445.388 1321.5 445.949C1322.11 446.503 1322.84 446.78 1323.67 446.78Z" fill="white"/>
<path opacity="0.2" d="M840 155.688H1089V548.688H840V155.688Z" fill="#459F63"/>
<path d="M1089 155.688H840V548.688H1089" stroke="#459F63" stroke-width="2"/>
<path opacity="0.2" d="M1385 391.938H1646V548.69H1385V391.938Z" fill="#459F63"/>
<path d="M1646 391.938H1385V548.69H1646" stroke="#459F63" stroke-width="2"/>
<path d="M402.051 555.711H495.949C517.792 555.711 535.5 573.418 535.5 595.262V734.711H362.5V595.262C362.5 573.418 380.208 555.711 402.051 555.711Z" fill="#459F63"/>
<path d="M402.051 555.711H495.949C517.792 555.711 535.5 573.418 535.5 595.262V734.711H362.5V595.262C362.5 573.418 380.208 555.711 402.051 555.711Z" fill="url(#paint8_linear_3837_2263)"/>
<path d="M402.051 555.711H495.949C517.792 555.711 535.5 573.418 535.5 595.262V734.711H362.5V595.262C362.5 573.418 380.208 555.711 402.051 555.711Z" stroke="url(#paint9_linear_3837_2263)" stroke-width="3"/>
<path d="M200.5 529.5C210.982 529.5 219.5 538.218 219.5 549C219.5 559.782 210.982 568.5 200.5 568.5C190.018 568.5 181.5 559.782 181.5 549C181.5 538.218 190.018 529.5 200.5 529.5Z" fill="#459F63" stroke="white"/>
<path d="M16.1387 578.471L16.1387 581.617C15.2338 581.803 14.4388 582.128 13.7538 582.594C13.0688 583.05 12.4937 583.608 12.0286 584.268C11.555 584.919 11.1998 585.642 10.963 586.437C10.7262 587.232 10.6078 588.061 10.6078 588.924C10.6078 590.497 11.0053 591.922 11.8002 593.199C12.5952 594.467 13.7665 595.478 15.3141 596.231C16.8618 596.975 18.7604 597.347 21.01 597.347C23.2595 597.347 25.1582 596.975 26.7058 596.231C28.2534 595.478 29.4247 594.467 30.2197 593.199C31.0147 591.922 31.4121 590.497 31.4121 588.924C31.4121 588.061 31.2937 587.232 31.0569 586.437C30.8201 585.642 30.4692 584.919 30.004 584.268C29.5304 583.608 28.9511 583.05 28.2661 582.594C27.5726 582.128 26.7777 581.803 25.8812 581.617L25.8812 578.471C27.209 578.708 28.3972 579.139 29.4459 579.765C30.4946 580.391 31.3868 581.169 32.1225 582.099C32.8498 583.029 33.4038 584.074 33.7843 585.232C34.1649 586.382 34.3552 587.613 34.3552 588.924C34.3552 591.139 33.8139 593.11 32.7314 594.835C31.6489 596.56 30.1098 597.918 28.1139 598.907C26.118 599.897 23.7501 600.391 21.01 600.391C18.2699 600.391 15.9019 599.897 13.906 598.907C11.9102 597.918 10.371 596.56 9.28849 594.835C8.20599 593.11 7.66474 591.139 7.66474 588.924C7.66474 587.613 7.85502 586.382 8.23559 585.232C8.61615 584.074 9.17432 583.029 9.91008 582.099C10.6374 581.169 11.5254 580.391 12.5741 579.765C13.6143 579.139 14.8025 578.708 16.1387 578.471ZM17.3058 574.909L14.5149 574.909L14.5149 559.078L17.3058 559.078L17.3058 565.471L34 565.471L34 568.465L17.3058 568.465L17.3058 574.909ZM34.4059 547.807C34.4059 549.566 33.9873 551.109 33.1501 552.437C32.3128 553.756 31.1415 554.788 29.6362 555.532C28.1308 556.268 26.3717 556.636 24.359 556.636C22.3293 556.636 20.5575 556.268 19.0437 555.532C17.5299 554.788 16.3544 553.756 15.5171 552.437C14.6799 551.109 14.2612 549.566 14.2612 547.807C14.2612 546.047 14.6799 544.508 15.5171 543.189C16.3544 541.861 17.5299 540.829 19.0437 540.094C20.5575 539.349 22.3293 538.977 24.359 538.977C26.3717 538.977 28.1308 539.349 29.6362 540.094C31.1415 540.829 32.3128 541.861 33.1501 543.189C33.9873 544.508 34.4059 546.047 34.4059 547.807ZM31.7166 547.807C31.7166 546.47 31.3741 545.371 30.6891 544.508C30.004 543.646 29.1034 543.007 27.987 542.593C26.8707 542.178 25.6613 541.971 24.359 541.971C23.0566 541.971 21.843 542.178 20.7182 542.593C19.5934 543.007 18.6843 543.646 17.9908 544.508C17.2973 545.371 16.9506 546.47 16.9506 547.807C16.9506 549.143 17.2973 550.242 17.9908 551.105C18.6843 551.967 19.5934 552.606 20.7182 553.02C21.843 553.435 23.0566 553.642 24.359 553.642C25.6613 553.642 26.8707 553.435 27.987 553.02C29.1034 552.606 30.004 551.967 30.6891 551.105C31.3741 550.242 31.7166 549.143 31.7166 547.807ZM29.5854 531.414L14.5149 522.026L14.5149 518.576L34 518.576L34 521.57L18.9295 521.57L34 530.906L34 534.407L14.5149 534.407L14.5149 531.414L29.5854 531.414ZM29.9406 502.437L14.5149 495.637L14.5149 492.796L34 501.219L34 503.654L14.5149 511.925L14.5149 509.135L29.9406 502.437ZM14.5149 510.099L34 510.099L34 513.092L14.5149 513.092L14.5149 510.099ZM34 494.774L14.5149 494.774L14.5149 491.781L34 491.781L34 494.774ZM34.4059 478.385C34.4059 480.144 33.9873 481.687 33.1501 483.015C32.3128 484.334 31.1415 485.366 29.6362 486.11C28.1308 486.846 26.3717 487.214 24.359 487.214C22.3293 487.214 20.5575 486.846 19.0437 486.11C17.5299 485.366 16.3544 484.334 15.5171 483.015C14.6799 481.687 14.2612 480.144 14.2612 478.385C14.2612 476.626 14.6799 475.086 15.5171 473.767C16.3544 472.439 17.5299 471.408 19.0437 470.672C20.5575 469.928 22.3293 469.556 24.359 469.556C26.3717 469.556 28.1308 469.928 29.6362 470.672C31.1415 471.408 32.3128 472.439 33.1501 473.767C33.9873 475.086 34.4059 476.626 34.4059 478.385ZM31.7166 478.385C31.7166 477.049 31.3741 475.949 30.6891 475.086C30.004 474.224 29.1034 473.585 27.987 473.171C26.8707 472.757 25.6613 472.549 24.359 472.549C23.0566 472.549 21.843 472.757 20.7182 473.171C19.5934 473.585 18.6843 474.224 17.9908 475.086C17.2973 475.949 16.9506 477.049 16.9506 478.385C16.9506 479.721 17.2973 480.82 17.9908 481.683C18.6843 482.546 19.5934 483.184 20.7182 483.598C21.843 484.013 23.0566 484.22 24.359 484.22C25.6613 484.22 26.8707 484.013 27.987 483.598C29.1034 483.184 30.004 482.546 30.6891 481.683C31.3741 480.82 31.7166 479.721 31.7166 478.385ZM34.4059 457.07C34.4059 458.896 33.9746 460.47 33.112 461.789C32.2494 463.108 31.0612 464.123 29.5474 464.833C28.0335 465.544 26.3041 465.899 24.359 465.899C22.38 465.899 20.6336 465.535 19.1198 464.808C17.5975 464.072 16.4093 463.049 15.5552 461.738C14.6925 460.419 14.2612 458.88 14.2612 457.121C14.2612 455.75 14.5149 454.516 15.0224 453.416C15.5298 452.317 16.2402 451.416 17.1535 450.714C18.0669 450.012 19.1325 449.577 20.3503 449.408L20.3503 452.401C19.4623 452.63 18.6758 453.137 17.9908 453.924C17.2973 454.702 16.9506 455.75 16.9506 457.07C16.9506 458.237 17.255 459.26 17.8639 460.14C18.4644 461.011 19.3143 461.692 20.4137 462.182C21.5047 462.664 22.7859 462.905 24.2575 462.905C25.7628 462.905 27.0737 462.668 28.19 462.195C29.3063 461.713 30.1732 461.036 30.7905 460.165C31.4079 459.286 31.7166 458.254 31.7166 457.07C31.7166 456.292 31.5813 455.586 31.3107 454.951C31.04 454.317 30.651 453.78 30.1436 453.34C29.6362 452.9 29.0272 452.588 28.3169 452.401L28.3169 449.408C29.467 449.577 30.503 449.995 31.4248 450.664C32.3382 451.323 33.0655 452.199 33.6067 453.289C34.1395 454.372 34.4059 455.632 34.4059 457.07ZM17.3058 446.566L14.5149 446.566L14.5149 430.735L17.3058 430.735L17.3058 437.128L34 437.128L34 440.122L17.3058 440.122L17.3058 446.566ZM21.5681 423.78L21.5681 418.198C21.5681 415.915 22.1474 414.168 23.306 412.959C24.4647 411.749 25.932 411.145 27.7079 411.145C28.875 411.145 29.9364 411.415 30.892 411.957C31.8392 412.498 32.5961 413.293 33.1627 414.342C33.7209 415.39 34 416.676 34 418.198L34 426.368L14.5149 426.368L14.5149 423.374L31.2092 423.374L31.2092 418.198C31.2092 417.014 30.8963 416.041 30.2704 415.28C29.6446 414.519 28.8412 414.139 27.8602 414.139C26.8284 414.139 25.9869 414.519 25.3357 415.28C24.6845 416.041 24.359 417.014 24.359 418.198L24.359 423.78L21.5681 423.78ZM34 398.266L31.2092 398.266L31.2092 397.555C31.2092 396.972 31.095 396.486 30.8667 396.097C30.6299 395.708 30.2197 395.395 29.6362 395.158C29.0442 394.913 28.2238 394.726 27.1751 394.6C26.118 394.464 24.7733 394.367 23.1411 394.308L14.5149 393.953L14.5149 380.963L34 380.963L34 383.956L17.3058 383.956L17.3058 391.111L24.2575 391.416C25.8558 391.483 27.2639 391.627 28.4818 391.847C29.6911 392.058 30.706 392.384 31.5263 392.824C32.3466 393.255 32.964 393.83 33.3784 394.549C33.7928 395.268 34 396.168 34 397.251L34 398.266ZM34.4059 367.3C34.4059 369.178 33.9915 370.797 33.1627 372.159C32.3255 373.512 31.1584 374.556 29.6615 375.292C28.1562 376.019 26.4056 376.383 24.4097 376.383C22.4138 376.383 20.6548 376.019 19.1325 375.292C17.6018 374.556 16.4093 373.533 15.5552 372.222C14.6925 370.903 14.2612 369.364 14.2612 367.605C14.2612 366.59 14.4304 365.588 14.7686 364.598C15.1069 363.609 15.6566 362.708 16.4178 361.896C17.1705 361.084 18.1684 360.437 19.4116 359.955C20.6548 359.473 22.1855 359.232 24.0038 359.232L25.2723 359.232L25.2723 374.252L22.6845 374.252L22.6845 362.277C21.585 362.277 20.604 362.497 19.7414 362.936C18.8788 363.368 18.198 363.985 17.699 364.789C17.2001 365.583 16.9506 366.522 16.9506 367.605C16.9506 368.797 17.2466 369.829 17.8386 370.7C18.4221 371.563 19.1832 372.227 20.122 372.692C21.0607 373.157 22.0671 373.389 23.1411 373.389L24.8664 373.389C26.3379 373.389 27.5853 373.136 28.6086 372.628C29.6235 372.112 30.3973 371.398 30.9301 370.484C31.4544 369.571 31.7166 368.51 31.7166 367.3C31.7166 366.514 31.6066 365.803 31.3868 365.169C31.1584 364.526 30.8201 363.972 30.3719 363.507C29.9152 363.042 29.3486 362.683 28.672 362.429L29.4839 359.537C30.4649 359.841 31.3276 360.353 32.0718 361.072C32.8075 361.79 33.3826 362.678 33.797 363.736C34.203 364.793 34.4059 365.981 34.4059 367.3ZM14.5149 339.658L34 339.658L34 342.652L14.5149 342.652L14.5149 339.658ZM23.8008 340.825L26.5916 340.825C26.8453 341.502 27.0694 342.174 27.2639 342.842C27.45 343.511 27.598 344.213 27.7079 344.948C27.8094 345.684 27.8602 346.492 27.8602 347.371C27.8602 349.579 27.2639 351.35 26.0715 352.686C24.8791 354.014 23.0904 354.678 20.7055 354.678L14.4642 354.678L14.4642 351.684L20.7055 351.684C21.7034 351.684 22.5238 351.494 23.1665 351.113C23.8092 350.733 24.2871 350.217 24.6 349.566C24.9129 348.915 25.0693 348.183 25.0693 347.371C25.0693 346.103 24.9552 344.957 24.7268 343.933C24.49 342.902 24.1814 341.866 23.8008 340.825ZM34.4059 325.996C34.4059 327.874 33.9915 329.493 33.1627 330.855C32.3255 332.208 31.1584 333.252 29.6615 333.988C28.1562 334.715 26.4056 335.079 24.4097 335.079C22.4138 335.079 20.6548 334.715 19.1325 333.988C17.6018 333.252 16.4093 332.229 15.5552 330.918C14.6925 329.599 14.2612 328.06 14.2612 326.3C14.2612 325.286 14.4304 324.283 14.7686 323.294C15.1069 322.305 15.6566 321.404 16.4178 320.592C17.1705 319.78 18.1684 319.133 19.4116 318.651C20.6548 318.169 22.1855 317.928 24.0038 317.928L25.2723 317.928L25.2723 332.948L22.6845 332.948L22.6845 320.973C21.585 320.973 20.604 321.192 19.7414 321.632C18.8788 322.064 18.198 322.681 17.699 323.484C17.2001 324.279 16.9506 325.218 16.9506 326.3C16.9506 327.493 17.2466 328.525 17.8386 329.396C18.4221 330.258 19.1832 330.922 20.122 331.387C21.0607 331.853 22.0671 332.085 23.1411 332.085L24.8664 332.085C26.3379 332.085 27.5853 331.831 28.6086 331.324C29.6235 330.808 30.3973 330.093 30.9301 329.18C31.4544 328.267 31.7166 327.205 31.7166 325.996C31.7166 325.21 31.6066 324.499 31.3868 323.865C31.1584 323.222 30.8201 322.668 30.3719 322.203C29.9152 321.738 29.3486 321.378 28.672 321.125L29.4839 318.232C30.4649 318.537 31.3276 319.049 32.0718 319.767C32.8075 320.486 33.3826 321.374 33.797 322.431C34.203 323.489 34.4059 324.677 34.4059 325.996ZM22.8874 300.333L25.6782 300.333L25.6782 311.09L22.8874 311.09L22.8874 300.333ZM14.5149 310.38L34 310.38L34 313.374L14.5149 313.374L14.5149 310.38ZM14.5149 298.05L34 298.05L34 301.043L14.5149 301.043L14.5149 298.05ZM29.5854 289.588L14.5149 280.201L14.5149 276.751L34 276.751L34 279.744L18.9295 279.744L34 289.081L34 292.582L14.5149 292.582L14.5149 289.588L29.5854 289.588ZM34 259.546L17.255 259.546L17.255 264.721C17.255 265.889 17.5256 266.806 18.0669 267.474C18.6081 268.142 19.3524 268.476 20.2996 268.476C21.2298 268.476 21.9614 268.176 22.4942 267.576C23.027 266.967 23.2934 266.134 23.2934 265.077L23.2934 258.785L26.0842 258.785L26.0842 265.077C26.0842 266.396 25.8516 267.533 25.3865 268.489C24.9213 269.445 24.2575 270.181 23.3948 270.696C22.5238 271.212 21.492 271.47 20.2996 271.47C19.0987 271.47 18.0669 271.2 17.2043 270.658C16.3417 270.117 15.6778 269.343 15.2126 268.337C14.7475 267.322 14.5149 266.117 14.5149 264.721L14.5149 256.704L34 256.704L34 259.546ZM34 272.536L24.3082 267.005L24.3082 263.757L34 269.288L34 272.536ZM30.448 246.743L31.8181 246.946C32.7822 247.09 33.8139 247.31 34.9133 247.606C36.0128 247.893 37.0488 248.193 38.0213 248.506C38.9939 248.819 39.7677 249.077 40.3428 249.28L40.3428 251.563C39.8015 251.453 39.0869 251.31 38.1989 251.132C37.3109 250.955 36.3172 250.777 35.2178 250.599C34.1268 250.413 33.0105 250.261 31.8688 250.143L30.448 249.99L30.448 246.743ZM41.3069 231.149L14.5149 231.149L14.5149 228.257L17.6102 228.257L17.6102 227.902C17.2719 227.682 16.8406 227.377 16.3163 226.988C15.7835 226.591 15.3099 226.024 14.8955 225.288C14.4726 224.544 14.2612 223.538 14.2612 222.269C14.2612 220.629 14.6714 219.182 15.4917 217.931C16.3121 216.679 17.4749 215.702 18.9803 215C20.4856 214.298 22.2616 213.947 24.3082 213.947C26.3717 213.947 28.1604 214.298 29.6742 215C31.1796 215.702 32.3466 216.675 33.1754 217.918C33.9958 219.161 34.4059 220.595 34.4059 222.218C34.4059 223.47 34.1987 224.472 33.7843 225.225C33.3615 225.978 32.8837 226.557 32.3509 226.963C31.8096 227.369 31.3614 227.682 31.0062 227.902L31.0062 228.155L41.3069 228.155L41.3069 231.149ZM24.2575 228.206C25.729 228.206 27.0271 227.99 28.1519 227.559C29.2683 227.128 30.1436 226.498 30.7778 225.669C31.4037 224.84 31.7166 223.825 31.7166 222.624C31.7166 221.373 31.3868 220.328 30.7271 219.491C30.059 218.645 29.1625 218.011 28.0378 217.588C26.9045 217.157 25.6444 216.941 24.2575 216.941C22.8874 216.941 21.6527 217.153 20.5533 217.576C19.4454 217.99 18.5701 218.62 17.9274 219.466C17.2762 220.303 16.9506 221.356 16.9506 222.624C16.9506 223.842 17.2592 224.866 17.8766 225.694C18.4855 226.523 19.3397 227.149 20.4391 227.572C21.5301 227.995 22.8028 228.206 24.2575 228.206ZM41.3069 208.15C41.3069 208.658 41.2646 209.11 41.18 209.508C41.1039 209.905 41.0278 210.18 40.9517 210.332L38.3131 209.571C38.4991 208.844 38.5668 208.201 38.516 207.643C38.4653 207.085 38.2158 206.59 37.7676 206.159C37.3278 205.719 36.6132 205.317 35.6237 204.953L34.1015 204.395L14.5149 211.601L14.5149 208.353L30.0421 202.974L30.0421 202.772L14.5149 197.393L14.5149 194.145L36.8416 202.416C37.8479 202.788 38.681 203.249 39.3406 203.799C40.0087 204.349 40.5035 204.987 40.8248 205.715C41.1462 206.433 41.3069 207.245 41.3069 208.15ZM7.20804 175.732L9.03476 174.21C9.60984 174.802 10.0115 175.487 10.2399 176.265C10.4682 177.043 10.6078 177.923 10.6585 178.904C10.7093 179.885 10.76 180.976 10.8107 182.176C10.8615 183.53 11.1913 184.65 11.8002 185.538C12.4091 186.426 13.2887 187.111 14.4388 187.593C15.589 188.075 17.0013 188.384 18.6758 188.519L18.6758 188.266C17.458 187.606 16.5615 186.693 15.9865 185.525C15.4114 184.358 15.1238 183.107 15.1238 181.771C15.1238 180.248 15.479 178.878 16.1894 177.66C16.8998 176.443 17.9527 175.478 19.3481 174.768C20.7436 174.058 22.4646 173.702 24.5112 173.702C26.5493 173.702 28.3084 174.066 29.7884 174.793C31.2684 175.512 32.4101 176.523 33.2135 177.825C34.0084 179.119 34.4059 180.637 34.4059 182.379C34.4059 184.122 33.9958 185.648 33.1754 186.959C32.3466 188.27 31.1204 189.289 29.4966 190.016C27.8644 190.743 25.8474 191.107 23.4456 191.107L21.3651 191.107C17.0267 191.107 13.7369 190.371 11.4958 188.9C9.25464 187.42 8.09603 185.196 8.01991 182.227C7.98609 181.179 7.97763 180.244 7.99454 179.424C8.01146 178.603 7.9734 177.889 7.88037 177.28C7.78735 176.671 7.56323 176.155 7.20804 175.732ZM31.7166 182.379C31.7166 181.204 31.4206 180.193 30.8286 179.348C30.2366 178.493 29.4036 177.838 28.3295 177.381C27.247 176.925 25.9742 176.696 24.5112 176.696C23.0904 176.696 21.881 176.929 20.8831 177.394C19.8852 177.851 19.124 178.506 18.5997 179.36C18.0754 180.214 17.8132 181.238 17.8132 182.43C17.8132 183.301 17.9612 184.084 18.2572 184.777C18.5532 185.47 18.9887 186.062 19.5638 186.553C20.1389 187.043 20.8408 187.424 21.6696 187.695C22.4984 187.957 23.4456 188.096 24.5112 188.113C26.6931 188.113 28.4395 187.602 29.7503 186.578C31.0612 185.555 31.7166 184.155 31.7166 182.379ZM34 170.848L31.2092 170.848L31.2092 170.138C31.2092 169.554 31.095 169.068 30.8666 168.679C30.6298 168.29 30.2197 167.977 29.6361 167.74C29.0441 167.495 28.2238 167.309 27.1751 167.182C26.118 167.047 24.7733 166.95 23.1411 166.89L14.5149 166.535L14.5149 153.545L34 153.545L34 156.539L17.3058 156.539L17.3058 163.694L24.2575 163.998C25.8558 164.066 27.2639 164.209 28.4818 164.429C29.6911 164.641 30.706 164.966 31.5263 165.406C32.3466 165.837 32.964 166.413 33.3784 167.131C33.7928 167.85 34 168.751 34 169.833L34 170.848ZM29.5854 145.058L14.5149 135.671L14.5149 132.221L34 132.221L34 135.214L18.9295 135.214L34 144.551L34 148.052L14.5149 148.052L14.5149 145.058L29.5854 145.058Z" fill="#223C78"/>
<defs>
<linearGradient id="paint0_linear_3837_2263" x1="1524" y1="895.701" x2="1524" y2="394.211" gradientUnits="userSpaceOnUse">
<stop stop-color="#E2E6EB"/>
<stop offset="1" stop-color="#656669"/>
</linearGradient>
<linearGradient id="paint1_linear_3837_2263" x1="1446.44" y1="819.626" x2="1446.44" y2="373.303" gradientUnits="userSpaceOnUse">
<stop stop-color="#BCB0D4"/>
<stop offset="1" stop-color="#F3EDFF"/>
</linearGradient>
<linearGradient id="paint2_linear_3837_2263" x1="973" y1="1212.14" x2="973" y2="200.668" gradientUnits="userSpaceOnUse">
<stop stop-color="white"/>
<stop offset="1" stop-color="#A5B8BF"/>
</linearGradient>
<linearGradient id="paint3_linear_3837_2263" x1="899.499" y1="1088.2" x2="888.408" y2="115.527" gradientUnits="userSpaceOnUse">
<stop stop-color="#F3EDFF"/>
<stop offset="1" stop-color="#A3A3A3"/>
</linearGradient>
<linearGradient id="paint4_linear_3837_2263" x1="676" y1="445.089" x2="676" y2="298.377" gradientUnits="userSpaceOnUse">
<stop stop-color="white"/>
<stop offset="1" stop-color="#A5B8BF"/>
</linearGradient>
<linearGradient id="paint5_linear_3837_2263" x1="559.902" y1="414.144" x2="559.753" y2="272.797" gradientUnits="userSpaceOnUse">
<stop stop-color="#F3EDFF"/>
<stop offset="1" stop-color="#A3A3A3"/>
</linearGradient>
<linearGradient id="paint6_linear_3837_2263" x1="1245" y1="542.836" x2="1245" y2="392" gradientUnits="userSpaceOnUse">
<stop stop-color="#E2E6EB"/>
<stop offset="1" stop-color="#656669"/>
</linearGradient>
<linearGradient id="paint7_linear_3837_2263" x1="1140.12" y1="505.195" x2="1140.12" y2="386.437" gradientUnits="userSpaceOnUse">
<stop stop-color="#BCB0D4"/>
<stop offset="1" stop-color="#F3EDFF"/>
</linearGradient>
<linearGradient id="paint8_linear_3837_2263" x1="426" y1="527.977" x2="281.914" y2="819.243" gradientUnits="userSpaceOnUse">
<stop offset="0.243638" stop-color="white" stop-opacity="0"/>
<stop offset="1" stop-color="white" stop-opacity="0.75"/>
</linearGradient>
<linearGradient id="paint9_linear_3837_2263" x1="371.438" y1="780.601" x2="372.937" y2="428.254" gradientUnits="userSpaceOnUse">
<stop stop-color="#B2A6CA"/>
<stop offset="1" stop-color="#F3EDFF"/>
</linearGradient>
</defs>
</svg>
