<svg width="1676" height="918" viewBox="0 0 1676 918" fill="none" xmlns="http://www.w3.org/2000/svg">
<path opacity="0.2" d="M229.336 78.8047H1649" stroke="#223C78" stroke-width="3.49155" stroke-linecap="round"/>
<path opacity="0.2" d="M229.336 364.805H1649" stroke="#223C78" stroke-width="3.49155" stroke-linecap="round"/>
<path opacity="0.2" d="M229.336 508.172H1649" stroke="#223C78" stroke-width="3.49155" stroke-linecap="round"/>
<path opacity="0.2" d="M229.336 653.453H1649" stroke="#223C78" stroke-width="3.49155" stroke-linecap="round"/>
<path d="M99.7781 72.8182V91H97.5763V75.1264H97.4698L93.0309 78.0739V75.8366L97.5763 72.8182H99.7781ZM110.938 91.2486C109.6 91.2486 108.461 90.8846 107.52 90.1566C106.578 89.4227 105.859 88.3603 105.362 86.9695C104.865 85.5727 104.616 83.8859 104.616 81.9091C104.616 79.9441 104.865 78.2662 105.362 76.8754C105.865 75.4786 106.587 74.4132 107.528 73.6793C108.475 72.9395 109.612 72.5696 110.938 72.5696C112.263 72.5696 113.397 72.9395 114.338 73.6793C115.285 74.4132 116.007 75.4786 116.504 76.8754C117.007 78.2662 117.259 79.9441 117.259 81.9091C117.259 83.8859 117.01 85.5727 116.513 86.9695C116.016 88.3603 115.297 89.4227 114.355 90.1566C113.414 90.8846 112.275 91.2486 110.938 91.2486ZM110.938 89.2955C112.263 89.2955 113.293 88.6562 114.027 87.3778C114.761 86.0994 115.128 84.2765 115.128 81.9091C115.128 80.3348 114.959 78.9942 114.622 77.8874C114.29 76.7807 113.811 75.9373 113.184 75.3572C112.562 74.7772 111.813 74.4872 110.938 74.4872C109.624 74.4872 108.597 75.1353 107.857 76.4315C107.117 77.7217 106.747 79.5476 106.747 81.9091C106.747 83.4834 106.913 84.821 107.244 85.9219C107.576 87.0227 108.052 87.8602 108.674 88.4343C109.301 89.0084 110.056 89.2955 110.938 89.2955ZM126.562 91.2486C125.225 91.2486 124.086 90.8846 123.145 90.1566C122.203 89.4227 121.484 88.3603 120.987 86.9695C120.49 85.5727 120.241 83.8859 120.241 81.9091C120.241 79.9441 120.49 78.2662 120.987 76.8754C121.49 75.4786 122.212 74.4132 123.153 73.6793C124.1 72.9395 125.237 72.5696 126.562 72.5696C127.888 72.5696 129.022 72.9395 129.963 73.6793C130.91 74.4132 131.632 75.4786 132.129 76.8754C132.632 78.2662 132.884 79.9441 132.884 81.9091C132.884 83.8859 132.635 85.5727 132.138 86.9695C131.641 88.3603 130.922 89.4227 129.98 90.1566C129.039 90.8846 127.9 91.2486 126.562 91.2486ZM126.562 89.2955C127.888 89.2955 128.918 88.6562 129.652 87.3778C130.386 86.0994 130.753 84.2765 130.753 81.9091C130.753 80.3348 130.584 78.9942 130.247 77.8874C129.915 76.7807 129.436 75.9373 128.809 75.3572C128.187 74.7772 127.438 74.4872 126.562 74.4872C125.249 74.4872 124.222 75.1353 123.482 76.4315C122.742 77.7217 122.372 79.5476 122.372 81.9091C122.372 83.4834 122.538 84.821 122.869 85.9219C123.201 87.0227 123.677 87.8602 124.299 88.4343C124.926 89.0084 125.681 89.2955 126.562 89.2955ZM142.188 91.2486C140.85 91.2486 139.711 90.8846 138.77 90.1566C137.828 89.4227 137.109 88.3603 136.612 86.9695C136.115 85.5727 135.866 83.8859 135.866 81.9091C135.866 79.9441 136.115 78.2662 136.612 76.8754C137.115 75.4786 137.837 74.4132 138.778 73.6793C139.725 72.9395 140.862 72.5696 142.188 72.5696C143.513 72.5696 144.647 72.9395 145.588 73.6793C146.535 74.4132 147.257 75.4786 147.754 76.8754C148.257 78.2662 148.509 79.9441 148.509 81.9091C148.509 83.8859 148.26 85.5727 147.763 86.9695C147.266 88.3603 146.547 89.4227 145.605 90.1566C144.664 90.8846 143.525 91.2486 142.188 91.2486ZM142.188 89.2955C143.513 89.2955 144.543 88.6562 145.277 87.3778C146.011 86.0994 146.378 84.2765 146.378 81.9091C146.378 80.3348 146.209 78.9942 145.872 77.8874C145.54 76.7807 145.061 75.9373 144.434 75.3572C143.812 74.7772 143.063 74.4872 142.188 74.4872C140.874 74.4872 139.847 75.1353 139.107 76.4315C138.367 77.7217 137.997 79.5476 137.997 81.9091C137.997 83.4834 138.163 84.821 138.494 85.9219C138.826 87.0227 139.302 87.8602 139.924 88.4343C140.551 89.0084 141.306 89.2955 142.188 89.2955Z" fill="#223C78"/>
<path d="M111.051 234.249C109.831 234.249 108.754 234.033 107.819 233.6C106.89 233.163 106.165 232.562 105.644 231.798C105.123 231.029 104.866 230.153 104.872 229.17C104.866 228.401 105.017 227.691 105.324 227.04C105.632 226.383 106.052 225.835 106.585 225.397C107.124 224.953 107.724 224.672 108.387 224.554V224.447C107.517 224.223 106.825 223.734 106.31 222.983C105.795 222.225 105.541 221.364 105.546 220.399C105.541 219.476 105.774 218.65 106.248 217.922C106.721 217.194 107.372 216.62 108.201 216.2C109.035 215.78 109.985 215.57 111.051 215.57C112.104 215.57 113.045 215.78 113.874 216.2C114.702 216.62 115.353 217.194 115.827 217.922C116.306 218.65 116.549 219.476 116.555 220.399C116.549 221.364 116.286 222.225 115.765 222.983C115.25 223.734 114.566 224.223 113.714 224.447V224.554C114.371 224.672 114.963 224.953 115.49 225.397C116.016 225.835 116.437 226.383 116.75 227.04C117.064 227.691 117.224 228.401 117.23 229.17C117.224 230.153 116.957 231.029 116.431 231.798C115.91 232.562 115.185 233.163 114.256 233.6C113.332 234.033 112.264 234.249 111.051 234.249ZM111.051 232.295C111.873 232.295 112.584 232.162 113.181 231.896C113.779 231.63 114.241 231.254 114.566 230.768C114.892 230.283 115.058 229.715 115.063 229.064C115.058 228.377 114.88 227.771 114.531 227.244C114.182 226.717 113.705 226.303 113.101 226.001C112.504 225.699 111.82 225.548 111.051 225.548C110.275 225.548 109.583 225.699 108.973 226.001C108.37 226.303 107.893 226.717 107.544 227.244C107.201 227.771 107.032 228.377 107.038 229.064C107.032 229.715 107.189 230.283 107.508 230.768C107.834 231.254 108.299 231.63 108.902 231.896C109.506 232.162 110.222 232.295 111.051 232.295ZM111.051 223.666C111.702 223.666 112.279 223.536 112.782 223.276C113.291 223.015 113.69 222.651 113.98 222.184C114.27 221.716 114.418 221.169 114.424 220.541C114.418 219.926 114.273 219.39 113.989 218.934C113.705 218.473 113.312 218.118 112.809 217.869C112.305 217.614 111.719 217.487 111.051 217.487C110.37 217.487 109.775 217.614 109.266 217.869C108.757 218.118 108.364 218.473 108.085 218.934C107.807 219.39 107.671 219.926 107.677 220.541C107.671 221.169 107.81 221.716 108.094 222.184C108.384 222.651 108.784 223.015 109.293 223.276C109.802 223.536 110.388 223.666 111.051 223.666ZM126.562 234.249C125.225 234.249 124.086 233.885 123.145 233.157C122.203 232.423 121.484 231.36 120.987 229.969C120.49 228.573 120.241 226.886 120.241 224.909C120.241 222.944 120.49 221.266 120.987 219.875C121.49 218.479 122.212 217.413 123.153 216.679C124.1 215.94 125.237 215.57 126.562 215.57C127.888 215.57 129.022 215.94 129.963 216.679C130.91 217.413 131.632 218.479 132.129 219.875C132.632 221.266 132.884 222.944 132.884 224.909C132.884 226.886 132.635 228.573 132.138 229.969C131.641 231.36 130.922 232.423 129.98 233.157C129.039 233.885 127.9 234.249 126.562 234.249ZM126.562 232.295C127.888 232.295 128.918 231.656 129.652 230.378C130.386 229.099 130.753 227.277 130.753 224.909C130.753 223.335 130.584 221.994 130.247 220.887C129.915 219.781 129.436 218.937 128.809 218.357C128.187 217.777 127.438 217.487 126.562 217.487C125.249 217.487 124.222 218.135 123.482 219.431C122.742 220.722 122.372 222.548 122.372 224.909C122.372 226.483 122.538 227.821 122.869 228.922C123.201 230.023 123.677 230.86 124.299 231.434C124.926 232.008 125.681 232.295 126.562 232.295ZM142.188 234.249C140.85 234.249 139.711 233.885 138.77 233.157C137.828 232.423 137.109 231.36 136.612 229.969C136.115 228.573 135.866 226.886 135.866 224.909C135.866 222.944 136.115 221.266 136.612 219.875C137.115 218.479 137.837 217.413 138.778 216.679C139.725 215.94 140.862 215.57 142.188 215.57C143.513 215.57 144.647 215.94 145.588 216.679C146.535 217.413 147.257 218.479 147.754 219.875C148.257 221.266 148.509 222.944 148.509 224.909C148.509 226.886 148.26 228.573 147.763 229.969C147.266 231.36 146.547 232.423 145.605 233.157C144.664 233.885 143.525 234.249 142.188 234.249ZM142.188 232.295C143.513 232.295 144.543 231.656 145.277 230.378C146.011 229.099 146.378 227.277 146.378 224.909C146.378 223.335 146.209 221.994 145.872 220.887C145.54 219.781 145.061 218.937 144.434 218.357C143.812 217.777 143.063 217.487 142.188 217.487C140.874 217.487 139.847 218.135 139.107 219.431C138.367 220.722 137.997 222.548 137.997 224.909C137.997 226.483 138.163 227.821 138.494 228.922C138.826 230.023 139.302 230.86 139.924 231.434C140.551 232.008 141.306 232.295 142.188 232.295Z" fill="#223C78"/>
<path d="M111.068 377.249C110.323 377.237 109.577 377.095 108.831 376.822C108.085 376.55 107.405 376.092 106.789 375.446C106.174 374.795 105.68 373.916 105.307 372.81C104.934 371.697 104.747 370.3 104.747 368.619C104.747 367.009 104.898 365.583 105.2 364.34C105.502 363.091 105.94 362.041 106.514 361.189C107.088 360.33 107.781 359.679 108.592 359.235C109.408 358.792 110.329 358.57 111.353 358.57C112.371 358.57 113.276 358.774 114.069 359.182C114.868 359.585 115.519 360.147 116.022 360.869C116.525 361.591 116.851 362.423 116.999 363.364H114.833C114.631 362.547 114.241 361.869 113.661 361.331C113.081 360.792 112.311 360.523 111.353 360.523C109.944 360.523 108.834 361.135 108.023 362.36C107.218 363.586 106.813 365.305 106.807 367.518H106.949C107.281 367.015 107.674 366.586 108.13 366.231C108.592 365.87 109.101 365.592 109.657 365.397C110.213 365.201 110.802 365.104 111.424 365.104C112.465 365.104 113.418 365.364 114.282 365.885C115.146 366.4 115.839 367.113 116.36 368.025C116.88 368.93 117.141 369.969 117.141 371.141C117.141 372.265 116.889 373.295 116.386 374.23C115.883 375.159 115.176 375.899 114.264 376.45C113.359 376.994 112.294 377.26 111.068 377.249ZM111.068 375.295C111.814 375.295 112.483 375.109 113.075 374.736C113.673 374.363 114.143 373.863 114.486 373.236C114.836 372.608 115.01 371.91 115.01 371.141C115.01 370.389 114.842 369.705 114.504 369.09C114.173 368.468 113.714 367.974 113.128 367.607C112.548 367.24 111.885 367.057 111.139 367.057C110.577 367.057 110.053 367.169 109.568 367.394C109.083 367.613 108.657 367.915 108.29 368.3C107.929 368.684 107.645 369.125 107.437 369.623C107.23 370.114 107.127 370.632 107.127 371.176C107.127 371.898 107.295 372.573 107.633 373.2C107.976 373.828 108.444 374.334 109.035 374.718C109.633 375.103 110.311 375.295 111.068 375.295ZM126.562 377.249C125.225 377.249 124.086 376.885 123.145 376.157C122.203 375.423 121.484 374.36 120.987 372.969C120.49 371.573 120.241 369.886 120.241 367.909C120.241 365.944 120.49 364.266 120.987 362.875C121.49 361.479 122.212 360.413 123.153 359.679C124.1 358.94 125.237 358.57 126.562 358.57C127.888 358.57 129.022 358.94 129.963 359.679C130.91 360.413 131.632 361.479 132.129 362.875C132.632 364.266 132.884 365.944 132.884 367.909C132.884 369.886 132.635 371.573 132.138 372.969C131.641 374.36 130.922 375.423 129.98 376.157C129.039 376.885 127.9 377.249 126.562 377.249ZM126.562 375.295C127.888 375.295 128.918 374.656 129.652 373.378C130.386 372.099 130.753 370.277 130.753 367.909C130.753 366.335 130.584 364.994 130.247 363.887C129.915 362.781 129.436 361.937 128.809 361.357C128.187 360.777 127.438 360.487 126.562 360.487C125.249 360.487 124.222 361.135 123.482 362.431C122.742 363.722 122.372 365.548 122.372 367.909C122.372 369.483 122.538 370.821 122.869 371.922C123.201 373.023 123.677 373.86 124.299 374.434C124.926 375.008 125.681 375.295 126.562 375.295ZM142.188 377.249C140.85 377.249 139.711 376.885 138.77 376.157C137.828 375.423 137.109 374.36 136.612 372.969C136.115 371.573 135.866 369.886 135.866 367.909C135.866 365.944 136.115 364.266 136.612 362.875C137.115 361.479 137.837 360.413 138.778 359.679C139.725 358.94 140.862 358.57 142.188 358.57C143.513 358.57 144.647 358.94 145.588 359.679C146.535 360.413 147.257 361.479 147.754 362.875C148.257 364.266 148.509 365.944 148.509 367.909C148.509 369.886 148.26 371.573 147.763 372.969C147.266 374.36 146.547 375.423 145.605 376.157C144.664 376.885 143.525 377.249 142.188 377.249ZM142.188 375.295C143.513 375.295 144.543 374.656 145.277 373.378C146.011 372.099 146.378 370.277 146.378 367.909C146.378 366.335 146.209 364.994 145.872 363.887C145.54 362.781 145.061 361.937 144.434 361.357C143.812 360.777 143.063 360.487 142.188 360.487C140.874 360.487 139.847 361.135 139.107 362.431C138.367 363.722 137.997 365.548 137.997 367.909C137.997 369.483 138.163 370.821 138.494 371.922C138.826 373.023 139.302 373.86 139.924 374.434C140.551 375.008 141.306 375.295 142.188 375.295Z" fill="#223C78"/>
<path d="M104.166 516.271V514.46L112.156 501.818H113.47V504.624H112.582L106.545 514.176V514.318H117.305V516.271H104.166ZM112.724 520V515.721V514.877V501.818H114.819V520H112.724ZM126.562 520.249C125.225 520.249 124.086 519.885 123.145 519.157C122.203 518.423 121.484 517.36 120.987 515.969C120.49 514.573 120.241 512.886 120.241 510.909C120.241 508.944 120.49 507.266 120.987 505.875C121.49 504.479 122.212 503.413 123.153 502.679C124.1 501.94 125.237 501.57 126.562 501.57C127.888 501.57 129.022 501.94 129.963 502.679C130.91 503.413 131.632 504.479 132.129 505.875C132.632 507.266 132.884 508.944 132.884 510.909C132.884 512.886 132.635 514.573 132.138 515.969C131.641 517.36 130.922 518.423 129.98 519.157C129.039 519.885 127.9 520.249 126.562 520.249ZM126.562 518.295C127.888 518.295 128.918 517.656 129.652 516.378C130.386 515.099 130.753 513.277 130.753 510.909C130.753 509.335 130.584 507.994 130.247 506.887C129.915 505.781 129.436 504.937 128.809 504.357C128.187 503.777 127.438 503.487 126.562 503.487C125.249 503.487 124.222 504.135 123.482 505.431C122.742 506.722 122.372 508.548 122.372 510.909C122.372 512.483 122.538 513.821 122.869 514.922C123.201 516.023 123.677 516.86 124.299 517.434C124.926 518.008 125.681 518.295 126.562 518.295ZM142.188 520.249C140.85 520.249 139.711 519.885 138.77 519.157C137.828 518.423 137.109 517.36 136.612 515.969C136.115 514.573 135.866 512.886 135.866 510.909C135.866 508.944 136.115 507.266 136.612 505.875C137.115 504.479 137.837 503.413 138.778 502.679C139.725 501.94 140.862 501.57 142.188 501.57C143.513 501.57 144.647 501.94 145.588 502.679C146.535 503.413 147.257 504.479 147.754 505.875C148.257 507.266 148.509 508.944 148.509 510.909C148.509 512.886 148.26 514.573 147.763 515.969C147.266 517.36 146.547 518.423 145.605 519.157C144.664 519.885 143.525 520.249 142.188 520.249ZM142.188 518.295C143.513 518.295 144.543 517.656 145.277 516.378C146.011 515.099 146.378 513.277 146.378 510.909C146.378 509.335 146.209 507.994 145.872 506.887C145.54 505.781 145.061 504.937 144.434 504.357C143.812 503.777 143.063 503.487 142.188 503.487C140.874 503.487 139.847 504.135 139.107 505.431C138.367 506.722 137.997 508.548 137.997 510.909C137.997 512.483 138.163 513.821 138.494 514.922C138.826 516.023 139.302 516.86 139.924 517.434C140.551 518.008 141.306 518.295 142.188 518.295Z" fill="#223C78"/>
<path d="M105.495 663V661.402L111.497 654.832C112.201 654.063 112.781 653.394 113.237 652.826C113.693 652.252 114.03 651.713 114.249 651.21C114.474 650.701 114.586 650.169 114.586 649.612C114.586 648.973 114.432 648.42 114.125 647.952C113.823 647.484 113.408 647.123 112.882 646.869C112.355 646.614 111.763 646.487 111.106 646.487C110.408 646.487 109.798 646.632 109.277 646.922C108.762 647.206 108.363 647.606 108.079 648.121C107.801 648.636 107.662 649.239 107.662 649.932H105.566C105.566 648.866 105.812 647.931 106.303 647.126C106.795 646.321 107.463 645.694 108.31 645.244C109.162 644.795 110.118 644.57 111.177 644.57C112.243 644.57 113.187 644.795 114.009 645.244C114.832 645.694 115.477 646.301 115.945 647.064C116.412 647.828 116.646 648.677 116.646 649.612C116.646 650.281 116.525 650.935 116.282 651.574C116.045 652.208 115.631 652.915 115.039 653.696C114.453 654.471 113.639 655.418 112.598 656.537L108.514 660.905V661.047H116.966V663H105.495ZM126.562 663.249C125.225 663.249 124.086 662.885 123.145 662.157C122.203 661.423 121.484 660.36 120.987 658.969C120.49 657.573 120.241 655.886 120.241 653.909C120.241 651.944 120.49 650.266 120.987 648.875C121.49 647.479 122.212 646.413 123.153 645.679C124.1 644.94 125.237 644.57 126.562 644.57C127.888 644.57 129.022 644.94 129.963 645.679C130.91 646.413 131.632 647.479 132.129 648.875C132.632 650.266 132.884 651.944 132.884 653.909C132.884 655.886 132.635 657.573 132.138 658.969C131.641 660.36 130.922 661.423 129.98 662.157C129.039 662.885 127.9 663.249 126.562 663.249ZM126.562 661.295C127.888 661.295 128.918 660.656 129.652 659.378C130.386 658.099 130.753 656.277 130.753 653.909C130.753 652.335 130.584 650.994 130.247 649.887C129.915 648.781 129.436 647.937 128.809 647.357C128.187 646.777 127.438 646.487 126.562 646.487C125.249 646.487 124.222 647.135 123.482 648.431C122.742 649.722 122.372 651.548 122.372 653.909C122.372 655.483 122.538 656.821 122.869 657.922C123.201 659.023 123.677 659.86 124.299 660.434C124.926 661.008 125.681 661.295 126.562 661.295ZM142.188 663.249C140.85 663.249 139.711 662.885 138.77 662.157C137.828 661.423 137.109 660.36 136.612 658.969C136.115 657.573 135.866 655.886 135.866 653.909C135.866 651.944 136.115 650.266 136.612 648.875C137.115 647.479 137.837 646.413 138.778 645.679C139.725 644.94 140.862 644.57 142.188 644.57C143.513 644.57 144.647 644.94 145.588 645.679C146.535 646.413 147.257 647.479 147.754 648.875C148.257 650.266 148.509 651.944 148.509 653.909C148.509 655.886 148.26 657.573 147.763 658.969C147.266 660.36 146.547 661.423 145.605 662.157C144.664 662.885 143.525 663.249 142.188 663.249ZM142.188 661.295C143.513 661.295 144.543 660.656 145.277 659.378C146.011 658.099 146.378 656.277 146.378 653.909C146.378 652.335 146.209 650.994 145.872 649.887C145.54 648.781 145.061 647.937 144.434 647.357C143.812 646.777 143.063 646.487 142.188 646.487C140.874 646.487 139.847 647.135 139.107 648.431C138.367 649.722 137.997 651.548 137.997 653.909C137.997 655.483 138.163 656.821 138.494 657.922C138.826 659.023 139.302 659.86 139.924 660.434C140.551 661.008 141.306 661.295 142.188 661.295Z" fill="#223C78"/>
<path d="M167.617 78.8594H190.062" stroke="#459F63" stroke-width="6.98309" stroke-linecap="round"/>
<path d="M167.617 364.125H190.062" stroke="#459F63" stroke-width="6.98309" stroke-linecap="round"/>
<path opacity="0.2" d="M229.336 222.172H1649" stroke="#223C78" stroke-width="3.49155" stroke-linecap="round"/>
<path d="M167.617 221.508H190.062" stroke="#459F63" stroke-width="6.98309" stroke-linecap="round"/>
<path d="M167.617 506.789H190.062" stroke="#459F63" stroke-width="6.98309" stroke-linecap="round"/>
<path d="M167.617 653.664H190.062" stroke="#459F63" stroke-width="6.98309" stroke-linecap="round"/>
<path d="M138.148 806.249C136.81 806.249 135.671 805.885 134.73 805.157C133.789 804.423 133.07 803.36 132.573 801.969C132.076 800.573 131.827 798.886 131.827 796.909C131.827 794.944 132.076 793.266 132.573 791.875C133.076 790.479 133.798 789.413 134.739 788.679C135.686 787.94 136.822 787.57 138.148 787.57C139.474 787.57 140.607 787.94 141.548 788.679C142.495 789.413 143.217 790.479 143.714 791.875C144.217 793.266 144.469 794.944 144.469 796.909C144.469 798.886 144.22 800.573 143.723 801.969C143.226 803.36 142.507 804.423 141.566 805.157C140.625 805.885 139.486 806.249 138.148 806.249ZM138.148 804.295C139.474 804.295 140.504 803.656 141.237 802.378C141.971 801.099 142.338 799.277 142.338 796.909C142.338 795.335 142.17 793.994 141.832 792.887C141.501 791.781 141.021 790.937 140.394 790.357C139.773 789.777 139.024 789.487 138.148 789.487C136.834 789.487 135.807 790.135 135.067 791.431C134.328 792.722 133.958 794.548 133.958 796.909C133.958 798.483 134.123 799.821 134.455 800.922C134.786 802.023 135.263 802.86 135.884 803.434C136.511 804.008 137.266 804.295 138.148 804.295Z" fill="#223C78"/>
<path d="M338.585 856.721V878.539H334.025V860.471H325.204V878.539H320.644V856.721H338.585ZM342.976 878.539V856.721H351.584C353.239 856.721 354.649 857.037 355.814 857.669C356.979 858.294 357.866 859.164 358.477 860.279C359.095 861.387 359.404 862.665 359.404 864.114C359.404 865.563 359.091 866.842 358.466 867.95C357.841 869.058 356.936 869.92 355.75 870.538C354.571 871.156 353.143 871.465 351.467 871.465H345.981V867.768H350.721C351.609 867.768 352.341 867.616 352.916 867.31C353.498 866.998 353.932 866.568 354.216 866.021C354.507 865.467 354.653 864.832 354.653 864.114C354.653 863.39 354.507 862.758 354.216 862.218C353.932 861.671 353.498 861.249 352.916 860.95C352.334 860.645 351.595 860.492 350.7 860.492H347.589V878.539H342.976ZM362.4 878.539V856.721H377.102V860.524H367.013V865.723H376.346V869.526H367.013V874.736H377.145V878.539H362.4ZM399.317 856.721V878.539H394.757V860.471H385.936V878.539H381.377V856.721H399.317ZM407.469 878.539H402.526L410.058 856.721H416.003L423.524 878.539H418.581L413.116 861.707H412.945L407.469 878.539ZM407.161 869.963H418.837V873.564H407.161V869.963ZM426.15 878.539V856.721H434.758C436.413 856.721 437.823 857.037 438.988 857.669C440.152 858.294 441.04 859.164 441.651 860.279C442.269 861.387 442.578 862.665 442.578 864.114C442.578 865.563 442.265 866.842 441.64 867.95C441.015 869.058 440.11 869.92 438.924 870.538C437.745 871.156 436.317 871.465 434.641 871.465H429.154V867.768H433.895C434.783 867.768 435.515 867.616 436.09 867.31C436.672 866.998 437.105 866.568 437.39 866.021C437.681 865.467 437.826 864.832 437.826 864.114C437.826 863.39 437.681 862.758 437.39 862.218C437.105 861.671 436.672 861.249 436.09 860.95C435.507 860.645 434.769 860.492 433.874 860.492H430.763V878.539H426.15ZM446.815 878.539H441.872L449.404 856.721H455.349L462.87 878.539H457.927L452.461 861.707H452.291L446.815 878.539ZM446.506 869.963H458.182V873.564H446.506V869.963ZM461.999 860.524V856.721H479.918V860.524H473.238V878.539H468.679V860.524H461.999ZM489.812 878.539V856.721H493.573L502.33 871.732H502.511V856.721H506.314V878.539H502.607L493.818 863.582H493.637V878.539H489.812ZM509.233 872.168V869.707H518.651V872.168H509.233ZM513.932 867.939C512.859 867.939 511.929 867.708 511.14 867.246C510.359 866.785 509.756 866.156 509.329 865.361C508.903 864.565 508.69 863.663 508.69 862.655V861.717C508.69 860.716 508.903 859.817 509.329 859.022C509.756 858.219 510.359 857.587 511.14 857.126C511.922 856.664 512.845 856.433 513.91 856.433C514.99 856.433 515.917 856.664 516.691 857.126C517.472 857.587 518.072 858.219 518.491 859.022C518.917 859.817 519.131 860.716 519.131 861.717V862.655C519.131 863.656 518.921 864.555 518.502 865.35C518.09 866.146 517.493 866.778 516.712 867.246C515.938 867.708 515.011 867.939 513.932 867.939ZM513.932 865.297C514.606 865.297 515.128 865.059 515.498 864.583C515.874 864.1 516.062 863.457 516.062 862.655V861.717C516.062 860.922 515.878 860.29 515.508 859.821C515.139 859.352 514.606 859.118 513.91 859.118C513.221 859.118 512.692 859.352 512.323 859.821C511.961 860.29 511.78 860.922 511.78 861.717V862.655C511.78 863.457 511.964 864.1 512.334 864.583C512.703 865.059 513.236 865.297 513.932 865.297ZM522.731 878.539V875.215L530.498 868.024C531.158 867.385 531.712 866.81 532.16 866.298C532.614 865.787 532.959 865.286 533.193 864.796C533.427 864.299 533.545 863.763 533.545 863.188C533.545 862.548 533.399 861.998 533.108 861.536C532.817 861.067 532.419 860.709 531.915 860.46C531.41 860.205 530.839 860.077 530.199 860.077C529.532 860.077 528.949 860.212 528.452 860.482C527.955 860.751 527.572 861.138 527.302 861.643C527.032 862.147 526.897 862.747 526.897 863.443H522.518C522.518 862.016 522.841 860.776 523.488 859.725C524.134 858.674 525.04 857.861 526.204 857.286C527.369 856.71 528.711 856.423 530.231 856.423C531.794 856.423 533.154 856.7 534.312 857.254C535.476 857.8 536.382 858.56 537.028 859.533C537.675 860.506 537.998 861.621 537.998 862.879C537.998 863.702 537.834 864.516 537.508 865.318C537.188 866.121 536.616 867.012 535.792 867.992C534.969 868.965 533.807 870.134 532.309 871.497L529.123 874.619V874.768H538.285V878.539H522.731Z" fill="#459F63"/>
<path d="M377.277 617.883V612.343L390.22 600.358C391.321 599.293 392.245 598.334 392.99 597.482C393.748 596.629 394.322 595.795 394.713 594.978C395.103 594.149 395.299 593.256 395.299 592.297C395.299 591.232 395.056 590.314 394.571 589.545C394.085 588.763 393.422 588.166 392.582 587.751C391.742 587.325 390.789 587.112 389.723 587.112C388.611 587.112 387.64 587.337 386.811 587.787C385.983 588.237 385.344 588.882 384.894 589.722C384.444 590.563 384.219 591.563 384.219 592.723H376.921C376.921 590.344 377.46 588.278 378.537 586.526C379.614 584.774 381.124 583.419 383.065 582.46C385.006 581.501 387.243 581.022 389.777 581.022C392.381 581.022 394.648 581.484 396.577 582.407C398.518 583.318 400.027 584.585 401.105 586.207C402.182 587.828 402.72 589.687 402.72 591.782C402.72 593.155 402.448 594.51 401.904 595.848C401.371 597.186 400.418 598.671 399.045 600.305C397.672 601.926 395.737 603.874 393.239 606.146L387.93 611.349V611.597H403.2V617.883H377.277ZM423.028 618.682C419.975 618.67 417.347 617.918 415.145 616.427C412.955 614.935 411.268 612.775 410.085 609.946C408.913 607.117 408.333 603.714 408.345 599.737C408.345 595.771 408.93 592.392 410.102 589.598C411.286 586.804 412.973 584.68 415.163 583.224C417.364 581.756 419.986 581.022 423.028 581.022C426.071 581.022 428.687 581.756 430.877 583.224C433.078 584.692 434.771 586.822 435.955 589.616C437.138 592.397 437.724 595.771 437.712 599.737C437.712 603.726 437.121 607.135 435.937 609.964C434.765 612.793 433.084 614.953 430.894 616.445C428.704 617.936 426.082 618.682 423.028 618.682ZM423.028 612.308C425.112 612.308 426.775 611.26 428.018 609.165C429.261 607.07 429.876 603.927 429.864 599.737C429.864 596.978 429.58 594.682 429.012 592.847C428.456 591.013 427.663 589.634 426.633 588.71C425.615 587.787 424.413 587.325 423.028 587.325C420.957 587.325 419.3 588.361 418.057 590.433C416.814 592.504 416.187 595.605 416.175 599.737C416.175 602.53 416.453 604.862 417.009 606.732C417.578 608.591 418.377 609.987 419.406 610.923C420.436 611.846 421.644 612.308 423.028 612.308ZM457.452 618.682C454.398 618.67 451.771 617.918 449.569 616.427C447.379 614.935 445.692 612.775 444.508 609.946C443.337 607.117 442.757 603.714 442.768 599.737C442.768 595.771 443.354 592.392 444.526 589.598C445.71 586.804 447.397 584.68 449.587 583.224C451.788 581.756 454.41 581.022 457.452 581.022C460.494 581.022 463.11 581.756 465.3 583.224C467.502 584.692 469.195 586.822 470.378 589.616C471.562 592.397 472.148 595.771 472.136 599.737C472.136 603.726 471.544 607.135 470.361 609.964C469.189 612.793 467.508 614.953 465.318 616.445C463.128 617.936 460.506 618.682 457.452 618.682ZM457.452 612.308C459.536 612.308 461.199 611.26 462.442 609.165C463.685 607.07 464.3 603.927 464.288 599.737C464.288 596.978 464.004 594.682 463.436 592.847C462.88 591.013 462.087 589.634 461.057 588.71C460.039 587.787 458.837 587.325 457.452 587.325C455.381 587.325 453.724 588.361 452.481 590.433C451.238 592.504 450.61 595.605 450.599 599.737C450.599 602.53 450.877 604.862 451.433 606.732C452.001 608.591 452.8 609.987 453.83 610.923C454.86 611.846 456.067 612.308 457.452 612.308Z" fill="#459F63"/>
<path d="M897.401 12.6364V49H889.712V19.9339H889.499L881.172 25.1541V18.3359L890.174 12.6364H897.401ZM920.301 49.799C917.247 49.7872 914.619 49.0355 912.417 47.544C910.228 46.0526 908.541 43.8923 907.357 41.0632C906.185 38.2341 905.605 34.831 905.617 30.8537C905.617 26.8883 906.203 23.5088 907.375 20.7152C908.559 17.9216 910.245 15.7969 912.435 14.3409C914.637 12.8731 917.259 12.1392 920.301 12.1392C923.343 12.1392 925.959 12.8731 928.149 14.3409C930.351 15.8087 932.043 17.9394 933.227 20.733C934.411 23.5147 934.997 26.8883 934.985 30.8537C934.985 34.8428 934.393 38.2519 933.209 41.081C932.037 43.91 930.357 46.0703 928.167 47.5618C925.977 49.0533 923.355 49.799 920.301 49.799ZM920.301 43.4247C922.384 43.4247 924.047 42.3771 925.29 40.282C926.533 38.1868 927.149 35.044 927.137 30.8537C927.137 28.0956 926.853 25.7992 926.285 23.9645C925.728 22.1297 924.935 20.7507 923.905 19.8274C922.887 18.9041 921.686 18.4425 920.301 18.4425C918.229 18.4425 916.572 19.4782 915.329 21.5497C914.086 23.6212 913.459 26.7225 913.447 30.8537C913.447 33.6473 913.725 35.9792 914.282 37.8494C914.85 39.7079 915.649 41.1046 916.679 42.0398C917.709 42.9631 918.916 43.4247 920.301 43.4247ZM954.725 49.799C951.671 49.7872 949.043 49.0355 946.841 47.544C944.651 46.0526 942.965 43.8923 941.781 41.0632C940.609 38.2341 940.029 34.831 940.041 30.8537C940.041 26.8883 940.627 23.5088 941.799 20.7152C942.982 17.9216 944.669 15.7969 946.859 14.3409C949.061 12.8731 951.683 12.1392 954.725 12.1392C957.767 12.1392 960.383 12.8731 962.573 14.3409C964.775 15.8087 966.467 17.9394 967.651 20.733C968.835 23.5147 969.421 26.8883 969.409 30.8537C969.409 34.8428 968.817 38.2519 967.633 41.081C966.461 43.91 964.78 46.0703 962.591 47.5618C960.401 49.0533 957.779 49.799 954.725 49.799ZM954.725 43.4247C956.808 43.4247 958.471 42.3771 959.714 40.282C960.957 38.1868 961.573 35.044 961.561 30.8537C961.561 28.0956 961.277 25.7992 960.708 23.9645C960.152 22.1297 959.359 20.7507 958.329 19.8274C957.311 18.9041 956.11 18.4425 954.725 18.4425C952.653 18.4425 950.996 19.4782 949.753 21.5497C948.51 23.6212 947.883 26.7225 947.871 30.8537C947.871 33.6473 948.149 35.9792 948.706 37.8494C949.274 39.7079 950.073 41.1046 951.103 42.0398C952.132 42.9631 953.34 43.4247 954.725 43.4247ZM989.149 49.799C986.095 49.7872 983.467 49.0355 981.265 47.544C979.075 46.0526 977.388 43.8923 976.205 41.0632C975.033 38.2341 974.453 34.831 974.465 30.8537C974.465 26.8883 975.051 23.5088 976.222 20.7152C977.406 17.9216 979.093 15.7969 981.283 14.3409C983.485 12.8731 986.106 12.1392 989.149 12.1392C992.191 12.1392 994.807 12.8731 996.997 14.3409C999.198 15.8087 1000.89 17.9394 1002.07 20.733C1003.26 23.5147 1003.84 26.8883 1003.83 30.8537C1003.83 34.8428 1003.24 38.2519 1002.06 41.081C1000.89 43.91 999.204 46.0703 997.014 47.5618C994.825 49.0533 992.203 49.799 989.149 49.799ZM989.149 43.4247C991.232 43.4247 992.895 42.3771 994.138 40.282C995.381 38.1868 995.996 35.044 995.985 30.8537C995.985 28.0956 995.7 25.7992 995.132 23.9645C994.576 22.1297 993.783 20.7507 992.753 19.8274C991.735 18.9041 990.534 18.4425 989.149 18.4425C987.077 18.4425 985.42 19.4782 984.177 21.5497C982.934 23.6212 982.307 26.7225 982.295 30.8537C982.295 33.6473 982.573 35.9792 983.129 37.8494C983.698 39.7079 984.497 41.1046 985.526 42.0398C986.556 42.9631 987.764 43.4247 989.149 43.4247Z" fill="#9CB0B8"/>
<path d="M1467.06 167.497C1464.33 167.497 1461.89 167.053 1459.76 166.165C1457.64 165.266 1455.98 164.041 1454.77 162.49C1453.57 160.939 1452.96 159.182 1452.96 157.217C1452.96 155.701 1453.31 154.311 1453.99 153.044C1454.69 151.766 1455.64 150.706 1456.83 149.866C1458.03 149.013 1459.37 148.469 1460.85 148.232V147.984C1458.9 147.593 1457.33 146.652 1456.12 145.161C1454.92 143.657 1454.31 141.911 1454.31 139.923C1454.31 138.04 1454.86 136.366 1455.96 134.898C1457.06 133.418 1458.57 132.258 1460.49 131.418C1462.42 130.565 1464.61 130.139 1467.06 130.139C1469.51 130.139 1471.69 130.565 1473.61 131.418C1475.54 132.27 1477.06 133.436 1478.16 134.915C1479.26 136.383 1479.82 138.052 1479.83 139.923C1479.82 141.923 1479.2 143.669 1477.98 145.161C1476.76 146.652 1475.2 147.593 1473.29 147.984V148.232C1474.75 148.469 1476.07 149.013 1477.25 149.866C1478.45 150.706 1479.39 151.766 1480.09 153.044C1480.8 154.311 1481.16 155.701 1481.18 157.217C1481.16 159.182 1480.55 160.939 1479.35 162.49C1478.14 164.041 1476.47 165.266 1474.34 166.165C1472.22 167.053 1469.8 167.497 1467.06 167.497ZM1467.06 161.851C1468.28 161.851 1469.35 161.632 1470.26 161.194C1471.17 160.744 1471.88 160.129 1472.39 159.347C1472.91 158.554 1473.17 157.643 1473.17 156.613C1473.17 155.559 1472.9 154.63 1472.37 153.825C1471.84 153.009 1471.11 152.369 1470.2 151.908C1469.29 151.434 1468.24 151.197 1467.06 151.197C1465.89 151.197 1464.84 151.434 1463.92 151.908C1462.99 152.369 1462.27 153.009 1461.73 153.825C1461.21 154.63 1460.95 155.559 1460.95 156.613C1460.95 157.643 1461.21 158.554 1461.72 159.347C1462.23 160.129 1462.94 160.744 1463.86 161.194C1464.79 161.632 1465.85 161.851 1467.06 161.851ZM1467.06 145.604C1468.08 145.604 1468.98 145.397 1469.78 144.983C1470.57 144.569 1471.19 143.995 1471.64 143.261C1472.09 142.527 1472.32 141.68 1472.32 140.722C1472.32 139.775 1472.09 138.946 1471.64 138.236C1471.19 137.514 1470.58 136.951 1469.8 136.549C1469.01 136.135 1468.1 135.928 1467.06 135.928C1466.03 135.928 1465.12 136.135 1464.33 136.549C1463.53 136.951 1462.91 137.514 1462.46 138.236C1462.02 138.946 1461.8 139.775 1461.8 140.722C1461.8 141.68 1462.03 142.527 1462.48 143.261C1462.93 143.995 1463.55 144.569 1464.34 144.983C1465.14 145.397 1466.04 145.604 1467.06 145.604ZM1500.81 167.799C1497.76 167.787 1495.13 167.036 1492.93 165.544C1490.74 164.053 1489.05 161.892 1487.87 159.063C1486.69 156.234 1486.11 152.831 1486.13 148.854C1486.13 144.888 1486.71 141.509 1487.88 138.715C1489.07 135.922 1490.75 133.797 1492.94 132.341C1495.15 130.873 1497.77 130.139 1500.81 130.139C1503.85 130.139 1506.47 130.873 1508.66 132.341C1510.86 133.809 1512.55 135.939 1513.74 138.733C1514.92 141.515 1515.51 144.888 1515.49 148.854C1515.49 152.843 1514.9 156.252 1513.72 159.081C1512.55 161.91 1510.87 164.07 1508.68 165.562C1506.49 167.053 1503.86 167.799 1500.81 167.799ZM1500.81 161.425C1502.89 161.425 1504.56 160.377 1505.8 158.282C1507.04 156.187 1507.66 153.044 1507.65 148.854C1507.65 146.096 1507.36 143.799 1506.79 141.964C1506.24 140.13 1505.44 138.751 1504.41 137.827C1503.4 136.904 1502.19 136.442 1500.81 136.442C1498.74 136.442 1497.08 137.478 1495.84 139.55C1494.6 141.621 1493.97 144.723 1493.96 148.854C1493.96 151.647 1494.23 153.979 1494.79 155.849C1495.36 157.708 1496.16 159.105 1497.19 160.04C1498.22 160.963 1499.42 161.425 1500.81 161.425ZM1535.23 167.799C1532.18 167.787 1529.55 167.036 1527.35 165.544C1525.16 164.053 1523.47 161.892 1522.29 159.063C1521.12 156.234 1520.54 152.831 1520.55 148.854C1520.55 144.888 1521.14 141.509 1522.31 138.715C1523.49 135.922 1525.18 133.797 1527.37 132.341C1529.57 130.873 1532.19 130.139 1535.23 130.139C1538.28 130.139 1540.89 130.873 1543.08 132.341C1545.28 133.809 1546.98 135.939 1548.16 138.733C1549.34 141.515 1549.93 144.888 1549.92 148.854C1549.92 152.843 1549.33 156.252 1548.14 159.081C1546.97 161.91 1545.29 164.07 1543.1 165.562C1540.91 167.053 1538.29 167.799 1535.23 167.799ZM1535.23 161.425C1537.32 161.425 1538.98 160.377 1540.22 158.282C1541.47 156.187 1542.08 153.044 1542.07 148.854C1542.07 146.096 1541.79 143.799 1541.22 141.964C1540.66 140.13 1539.87 138.751 1538.84 137.827C1537.82 136.904 1536.62 136.442 1535.23 136.442C1533.16 136.442 1531.5 137.478 1530.26 139.55C1529.02 141.621 1528.39 144.723 1528.38 148.854C1528.38 151.647 1528.66 153.979 1529.21 155.849C1529.78 157.708 1530.58 159.105 1531.61 160.04C1532.64 160.963 1533.85 161.425 1535.23 161.425Z" fill="#656669"/>
<path d="M870.694 856.721V878.539H866.134V860.471H857.313V878.539H852.754V856.721H870.694ZM875.086 878.539V856.721H883.694C885.349 856.721 886.758 857.037 887.923 857.669C889.088 858.294 889.976 859.164 890.586 860.279C891.204 861.387 891.513 862.665 891.513 864.114C891.513 865.563 891.201 866.842 890.576 867.95C889.951 869.058 889.045 869.92 887.859 870.538C886.68 871.156 885.253 871.465 883.577 871.465H878.09V867.768H882.831C883.719 867.768 884.45 867.616 885.025 867.31C885.608 866.998 886.041 866.568 886.325 866.021C886.616 865.467 886.762 864.832 886.762 864.114C886.762 863.39 886.616 862.758 886.325 862.218C886.041 861.671 885.608 861.249 885.025 860.95C884.443 860.645 883.704 860.492 882.809 860.492H879.699V878.539H875.086ZM894.51 878.539V856.721H909.211V860.524H899.123V865.723H908.455V869.526H899.123V874.736H909.254V878.539H894.51ZM931.426 856.721V878.539H926.867V860.471H918.046V878.539H913.486V856.721H931.426ZM939.579 878.539H934.636L942.168 856.721H948.112L955.634 878.539H950.69L945.225 861.707H945.055L939.579 878.539ZM939.27 869.963H950.946V873.564H939.27V869.963ZM958.26 878.539V856.721H966.868C968.522 856.721 969.932 857.037 971.097 857.669C972.262 858.294 973.15 859.164 973.76 860.279C974.378 861.387 974.687 862.665 974.687 864.114C974.687 865.563 974.375 866.842 973.75 867.95C973.125 869.058 972.219 869.92 971.033 870.538C969.854 871.156 968.426 871.465 966.75 871.465H961.264V867.768H966.005C966.892 867.768 967.624 867.616 968.199 867.31C968.782 866.998 969.215 866.568 969.499 866.021C969.79 865.467 969.936 864.832 969.936 864.114C969.936 863.39 969.79 862.758 969.499 862.218C969.215 861.671 968.782 861.249 968.199 860.95C967.617 860.645 966.878 860.492 965.983 860.492H962.873V878.539H958.26ZM978.925 878.539H973.981L981.513 856.721H987.458L994.979 878.539H990.036L984.571 861.707H984.4L978.925 878.539ZM978.616 869.963H990.292V873.564H978.616V869.963ZM994.108 860.524V856.721H1012.03V860.524H1005.35V878.539H1000.79V860.524H994.108ZM1021.92 878.539V856.721H1025.68L1034.44 871.732H1034.62V856.721H1038.42V878.539H1034.72L1025.93 863.582H1025.75V878.539H1021.92ZM1041.34 872.168V869.707H1050.76V872.168H1041.34ZM1046.04 867.939C1044.97 867.939 1044.04 867.708 1043.25 867.246C1042.47 866.785 1041.86 866.156 1041.44 865.361C1041.01 864.565 1040.8 863.663 1040.8 862.655V861.717C1040.8 860.716 1041.01 859.817 1041.44 859.022C1041.86 858.219 1042.47 857.587 1043.25 857.126C1044.03 856.664 1044.95 856.433 1046.02 856.433C1047.1 856.433 1048.03 856.664 1048.8 857.126C1049.58 857.587 1050.18 858.219 1050.6 859.022C1051.03 859.817 1051.24 860.716 1051.24 861.717V862.655C1051.24 863.656 1051.03 864.555 1050.61 865.35C1050.2 866.146 1049.6 866.778 1048.82 867.246C1048.05 867.708 1047.12 867.939 1046.04 867.939ZM1046.04 865.297C1046.72 865.297 1047.24 865.059 1047.61 864.583C1047.98 864.1 1048.17 863.457 1048.17 862.655V861.717C1048.17 860.922 1047.99 860.29 1047.62 859.821C1047.25 859.352 1046.72 859.118 1046.02 859.118C1045.33 859.118 1044.8 859.352 1044.43 859.821C1044.07 860.29 1043.89 860.922 1043.89 861.717V862.655C1043.89 863.457 1044.07 864.1 1044.44 864.583C1044.81 865.059 1045.34 865.297 1046.04 865.297ZM1064.33 856.721V878.539H1059.72V861.099H1059.59L1054.6 864.232V860.141L1060 856.721H1064.33Z" fill="#223C78"/>
<path d="M1411.15 856.721V878.539H1406.59V860.471H1397.76V878.539H1393.2V856.721H1411.15ZM1415.54 878.539V856.721H1424.14C1425.8 856.721 1427.21 857.037 1428.37 857.669C1429.54 858.294 1430.43 859.164 1431.04 860.279C1431.66 861.387 1431.96 862.665 1431.96 864.114C1431.96 865.563 1431.65 866.842 1431.03 867.95C1430.4 869.058 1429.5 869.92 1428.31 870.538C1427.13 871.156 1425.7 871.465 1424.03 871.465H1418.54V867.768H1423.28C1424.17 867.768 1424.9 867.616 1425.48 867.31C1426.06 866.998 1426.49 866.568 1426.78 866.021C1427.07 865.467 1427.21 864.832 1427.21 864.114C1427.21 863.39 1427.07 862.758 1426.78 862.218C1426.49 861.671 1426.06 861.249 1425.48 860.95C1424.89 860.645 1424.16 860.492 1423.26 860.492H1420.15V878.539H1415.54ZM1434.96 878.539V856.721H1449.66V860.524H1439.57V865.723H1448.91V869.526H1439.57V874.736H1449.71V878.539H1434.96ZM1471.88 856.721V878.539H1467.32V860.471H1458.5V878.539H1453.94V856.721H1471.88ZM1480.03 878.539H1475.09L1482.62 856.721H1488.56L1496.08 878.539H1491.14L1485.68 861.707H1485.51L1480.03 878.539ZM1479.72 869.963H1491.4V873.564H1479.72V869.963ZM1498.71 878.539V856.721H1507.32C1508.97 856.721 1510.38 857.037 1511.55 857.669C1512.71 858.294 1513.6 859.164 1514.21 860.279C1514.83 861.387 1515.14 862.665 1515.14 864.114C1515.14 865.563 1514.83 866.842 1514.2 867.95C1513.58 869.058 1512.67 869.92 1511.48 870.538C1510.31 871.156 1508.88 871.465 1507.2 871.465H1501.72V867.768H1506.46C1507.34 867.768 1508.08 867.616 1508.65 867.31C1509.23 866.998 1509.67 866.568 1509.95 866.021C1510.24 865.467 1510.39 864.832 1510.39 864.114C1510.39 863.39 1510.24 862.758 1509.95 862.218C1509.67 861.671 1509.23 861.249 1508.65 860.95C1508.07 860.645 1507.33 860.492 1506.43 860.492H1503.32V878.539H1498.71ZM1519.38 878.539H1514.43L1521.96 856.721H1527.91L1535.43 878.539H1530.49L1525.02 861.707H1524.85L1519.38 878.539ZM1519.07 869.963H1530.74V873.564H1519.07V869.963ZM1534.56 860.524V856.721H1552.48V860.524H1545.8V878.539H1541.24V860.524H1534.56ZM1562.37 878.539V856.721H1566.13L1574.89 871.732H1575.07V856.721H1578.88V878.539H1575.17L1566.38 863.582H1566.2V878.539H1562.37ZM1581.79 872.168V869.707H1591.21V872.168H1581.79ZM1586.49 867.939C1585.42 867.939 1584.49 867.708 1583.7 867.246C1582.92 866.785 1582.32 866.156 1581.89 865.361C1581.46 864.565 1581.25 863.663 1581.25 862.655V861.717C1581.25 860.716 1581.46 859.817 1581.89 859.022C1582.32 858.219 1582.92 857.587 1583.7 857.126C1584.48 856.664 1585.41 856.433 1586.47 856.433C1587.55 856.433 1588.48 856.664 1589.25 857.126C1590.03 857.587 1590.63 858.219 1591.05 859.022C1591.48 859.817 1591.69 860.716 1591.69 861.717V862.655C1591.69 863.656 1591.48 864.555 1591.06 865.35C1590.65 866.146 1590.05 866.778 1589.27 867.246C1588.5 867.708 1587.57 867.939 1586.49 867.939ZM1586.49 865.297C1587.17 865.297 1587.69 865.059 1588.06 864.583C1588.43 864.1 1588.62 863.457 1588.62 862.655V861.717C1588.62 860.922 1588.44 860.29 1588.07 859.821C1587.7 859.352 1587.17 859.118 1586.47 859.118C1585.78 859.118 1585.25 859.352 1584.88 859.821C1584.52 860.29 1584.34 860.922 1584.34 861.717V862.655C1584.34 863.457 1584.52 864.1 1584.89 864.583C1585.26 865.059 1585.8 865.297 1586.49 865.297ZM1603.36 878.837C1601.77 878.837 1600.35 878.564 1599.11 878.017C1597.87 877.463 1596.89 876.703 1596.18 875.737C1595.47 874.764 1595.1 873.642 1595.08 872.371H1599.72C1599.75 872.903 1599.93 873.372 1600.25 873.777C1600.57 874.175 1601.01 874.484 1601.55 874.704C1602.09 874.924 1602.69 875.034 1603.37 875.034C1604.07 875.034 1604.69 874.91 1605.23 874.661C1605.77 874.413 1606.19 874.068 1606.5 873.628C1606.8 873.187 1606.96 872.68 1606.96 872.104C1606.96 871.522 1606.79 871.007 1606.47 870.56C1606.15 870.105 1605.69 869.75 1605.08 869.494C1604.49 869.239 1603.78 869.111 1602.95 869.111H1600.92V865.723H1602.95C1603.65 865.723 1604.26 865.602 1604.79 865.361C1605.33 865.119 1605.75 864.786 1606.05 864.359C1606.35 863.926 1606.5 863.422 1606.5 862.847C1606.5 862.3 1606.37 861.82 1606.11 861.408C1605.85 860.989 1605.49 860.663 1605.02 860.428C1604.56 860.194 1604.02 860.077 1603.4 860.077C1602.77 860.077 1602.2 860.19 1601.68 860.418C1601.17 860.638 1600.75 860.954 1600.44 861.366C1600.12 861.778 1599.96 862.261 1599.94 862.815H1595.52C1595.54 861.558 1595.9 860.45 1596.59 859.491C1597.29 858.532 1598.23 857.783 1599.4 857.243C1600.59 856.696 1601.93 856.423 1603.42 856.423C1604.93 856.423 1606.24 856.696 1607.37 857.243C1608.5 857.79 1609.38 858.528 1610 859.459C1610.64 860.382 1610.95 861.419 1610.94 862.57C1610.95 863.791 1610.57 864.81 1609.8 865.627C1609.04 866.444 1608.05 866.962 1606.83 867.183V867.353C1608.43 867.559 1609.66 868.116 1610.49 869.026C1611.34 869.928 1611.76 871.057 1611.75 872.413C1611.76 873.656 1611.4 874.761 1610.68 875.727C1609.96 876.692 1608.97 877.452 1607.7 878.006C1606.44 878.56 1604.99 878.837 1603.36 878.837Z" fill="#223C78"/>
<path d="M167.617 803.484H190.062" stroke="#459F63" stroke-width="6.98309" stroke-linecap="round"/>
<path d="M229.336 805.039L1649 805.039" stroke="#223C78" stroke-width="4" stroke-linecap="round"/>
<path d="M1444 224.5H1560C1575.74 224.5 1588.5 237.26 1588.5 253V801.5H1415.5V253L1415.51 252.265C1415.9 236.864 1428.51 224.5 1444 224.5Z" fill="url(#paint0_linear_3691_22546)" stroke="url(#paint1_linear_3691_22546)" stroke-width="3"/>
<path d="M904.051 80.5H997.949C1019.79 80.5001 1037.5 98.2075 1037.5 120.051V801.5H864.5V120.051L864.513 119.03C865.054 97.6587 882.549 80.5001 904.051 80.5Z" fill="url(#paint2_linear_3691_22546)" stroke="url(#paint3_linear_3691_22546)" stroke-width="3"/>
<path d="M380.051 658.5H473.949C495.792 658.5 513.5 676.208 513.5 698.051V801.5H340.5V698.051C340.5 676.208 358.208 658.5 380.051 658.5Z" fill="#459F63"/>
<path d="M380.051 658.5H473.949C495.792 658.5 513.5 676.208 513.5 698.051V801.5H340.5V698.051C340.5 676.208 358.208 658.5 380.051 658.5Z" fill="url(#paint4_linear_3691_22546)"/>
<path d="M380.051 658.5H473.949C495.792 658.5 513.5 676.208 513.5 698.051V801.5H340.5V698.051C340.5 676.208 358.208 658.5 380.051 658.5Z" stroke="url(#paint5_linear_3691_22546)" stroke-width="3"/>
<defs>
<linearGradient id="paint0_linear_3691_22546" x1="1502" y1="1073.48" x2="1502" y2="223" gradientUnits="userSpaceOnUse">
<stop stop-color="#E2E6EB"/>
<stop offset="1" stop-color="#656669"/>
</linearGradient>
<linearGradient id="paint1_linear_3691_22546" x1="1424.44" y1="944.463" x2="1424.44" y2="187.542" gradientUnits="userSpaceOnUse">
<stop stop-color="#BCB0D4"/>
<stop offset="1" stop-color="#F3EDFF"/>
</linearGradient>
<linearGradient id="paint2_linear_3691_22546" x1="951" y1="1392.02" x2="951" y2="140.208" gradientUnits="userSpaceOnUse">
<stop stop-color="white"/>
<stop offset="1" stop-color="#A5B8BF"/>
</linearGradient>
<linearGradient id="paint3_linear_3691_22546" x1="877.499" y1="1238.63" x2="860.512" y2="34.9209" gradientUnits="userSpaceOnUse">
<stop stop-color="#F3EDFF"/>
<stop offset="1" stop-color="#A3A3A3"/>
</linearGradient>
<linearGradient id="paint4_linear_3691_22546" x1="404" y1="635.955" x2="304.29" y2="887.218" gradientUnits="userSpaceOnUse">
<stop offset="0.243638" stop-color="white" stop-opacity="0"/>
<stop offset="1" stop-color="white" stop-opacity="0.75"/>
</linearGradient>
<linearGradient id="paint5_linear_3691_22546" x1="349.438" y1="838.61" x2="350.403" y2="555.956" gradientUnits="userSpaceOnUse">
<stop stop-color="#B2A6CA"/>
<stop offset="1" stop-color="#F3EDFF"/>
</linearGradient>
</defs>
</svg>
