<svg width="1652" height="851" viewBox="0 0 1652 851" fill="none" xmlns="http://www.w3.org/2000/svg">
<path opacity="0.2" d="M229.336 11.8047H1649" stroke="#223C78" stroke-width="3.49155" stroke-linecap="round"/>
<path opacity="0.2" d="M229.336 297.805H1649" stroke="#223C78" stroke-width="3.49155" stroke-linecap="round"/>
<path opacity="0.2" d="M229.336 441.172H1649" stroke="#223C78" stroke-width="3.49155" stroke-linecap="round"/>
<path d="M179 548.656H1649" stroke="#459F63" stroke-width="6" stroke-linecap="round" stroke-dasharray="15 15"/>
<path opacity="0.2" d="M229.336 586.453H1649" stroke="#223C78" stroke-width="3.49155" stroke-linecap="round"/>
<path d="M60.882 24.2486C59.7101 24.2486 58.6655 24.0473 57.7481 23.6449C56.8367 23.2424 56.1117 22.6831 55.5731 21.967C55.0404 21.2449 54.7504 20.4074 54.703 19.4545H56.9403C56.9876 20.0405 57.1888 20.5465 57.5439 20.9727C57.8991 21.3929 58.3637 21.7184 58.9378 21.9492C59.5119 22.18 60.1481 22.2955 60.8465 22.2955C61.6278 22.2955 62.3202 22.1593 62.9239 21.8871C63.5276 21.6148 64.0011 21.236 64.3444 20.7507C64.6876 20.2654 64.8593 19.7031 64.8593 19.0639C64.8593 18.3951 64.6936 17.8062 64.3621 17.2972C64.0307 16.7823 63.5454 16.3799 62.9062 16.0898C62.267 15.7998 61.4857 15.6548 60.5624 15.6548H59.1064V13.7017H60.5624C61.2845 13.7017 61.9178 13.5715 62.4623 13.3111C63.0127 13.0507 63.4418 12.6837 63.7496 12.2102C64.0632 11.7367 64.2201 11.1804 64.2201 10.5412C64.2201 9.92566 64.084 9.39003 63.8117 8.9343C63.5394 8.47857 63.1547 8.12346 62.6576 7.86896C62.1663 7.61446 61.5863 7.48722 60.9175 7.48722C60.2902 7.48722 59.6983 7.60263 59.142 7.83345C58.5915 8.05836 58.1417 8.38684 57.7925 8.81889C57.4433 9.24503 57.2539 9.75994 57.2243 10.3636H55.0937C55.1292 9.41075 55.4162 8.57623 55.9548 7.86008C56.4934 7.13802 57.1977 6.57576 58.0677 6.1733C58.9437 5.77083 59.9055 5.5696 60.953 5.5696C62.0776 5.5696 63.0423 5.79747 63.8472 6.2532C64.6521 6.70301 65.2706 7.29782 65.7027 8.03764C66.1347 8.77746 66.3508 9.57647 66.3508 10.4347C66.3508 11.4586 66.0815 12.3316 65.5429 13.0536C65.0102 13.7757 64.2852 14.2758 63.3678 14.554V14.696C64.516 14.8854 65.4127 15.3737 66.0578 16.1609C66.7029 16.9421 67.0255 17.9098 67.0255 19.0639C67.0255 20.0523 66.7562 20.9401 66.2176 21.7273C65.6849 22.5085 64.9569 23.1241 64.0336 23.5739C63.1104 24.0237 62.0598 24.2486 60.882 24.2486ZM76.5869 24.2486C75.2493 24.2486 74.11 23.8846 73.1689 23.1566C72.2279 22.4227 71.5088 21.3603 71.0116 19.9695C70.5145 18.5727 70.2659 16.8859 70.2659 14.9091C70.2659 12.9441 70.5145 11.2662 71.0116 9.87535C71.5147 8.47857 72.2368 7.41323 73.1778 6.67933C74.1248 5.93951 75.2612 5.5696 76.5869 5.5696C77.9127 5.5696 79.0461 5.93951 79.9871 6.67933C80.9341 7.41323 81.6562 8.47857 82.1533 9.87535C82.6564 11.2662 82.9079 12.9441 82.9079 14.9091C82.9079 16.8859 82.6594 18.5727 82.1622 19.9695C81.665 21.3603 80.9459 22.4227 80.0049 23.1566C79.0638 23.8846 77.9245 24.2486 76.5869 24.2486ZM76.5869 22.2955C77.9127 22.2955 78.9425 21.6562 79.6764 20.3778C80.4103 19.0994 80.7773 17.2765 80.7773 14.9091C80.7773 13.3348 80.6086 11.9942 80.2712 10.8874C79.9398 9.78066 79.4604 8.93726 78.833 8.35724C78.2116 7.77723 77.4629 7.48722 76.5869 7.48722C75.273 7.48722 74.2461 8.1353 73.5063 9.43146C72.7665 10.7217 72.3966 12.5476 72.3966 14.9091C72.3966 16.4834 72.5623 17.821 72.8937 18.9219C73.2252 20.0227 73.7016 20.8602 74.3231 21.4343C74.9504 22.0084 75.705 22.2955 76.5869 22.2955ZM93.6324 5.81818H96.2602L102.439 20.9105H102.652L108.831 5.81818H111.459V24H109.399V10.1861H109.222L103.54 24H101.551L95.8696 10.1861H95.692V24H93.6324V5.81818ZM114.311 24V21.9759H114.844C115.601 21.9759 116.19 21.7332 116.61 21.2479C117.031 20.7625 117.333 19.9783 117.516 18.8952C117.705 17.8121 117.833 16.3769 117.898 14.5895L118.217 5.81818H129.297V24H127.095V7.77131H120.312L120.028 15.0156C119.957 16.9214 119.783 18.5431 119.505 19.8807C119.226 21.2183 118.738 22.2392 118.04 22.9435C117.341 23.6478 116.323 24 114.986 24H114.311ZM133.696 24V5.81818H135.898V13.9148H145.592V5.81818H147.794V24H145.592V15.8679H135.898V24H133.696Z" fill="#223C78"/>
<path d="M55.9348 167V165.402L61.9363 158.832C62.6406 158.063 63.2206 157.394 63.6763 156.826C64.132 156.252 64.4694 155.713 64.6884 155.21C64.9133 154.701 65.0257 154.169 65.0257 153.612C65.0257 152.973 64.8719 152.42 64.5641 151.952C64.2623 151.484 63.848 151.123 63.3212 150.869C62.7944 150.614 62.2026 150.487 61.5456 150.487C60.8472 150.487 60.2376 150.632 59.7168 150.922C59.2019 151.206 58.8024 151.606 58.5183 152.121C58.2401 152.636 58.101 153.239 58.101 153.932H56.0059C56.0059 152.866 56.2515 151.931 56.7427 151.126C57.234 150.321 57.9028 149.694 58.7491 149.244C59.6014 148.795 60.5572 148.57 61.6167 148.57C62.682 148.57 63.626 148.795 64.4487 149.244C65.2714 149.694 65.9165 150.301 66.3841 151.064C66.8516 151.828 67.0854 152.677 67.0854 153.612C67.0854 154.281 66.9641 154.935 66.7214 155.574C66.4847 156.208 66.0704 156.915 65.4785 157.696C64.8926 158.471 64.0788 159.418 63.0371 160.537L58.9533 164.905V165.047H67.405V167H55.9348ZM76.7534 167.249C75.7117 167.249 74.7736 167.041 73.9391 166.627C73.1046 166.213 72.4358 165.645 71.9327 164.923C71.4296 164.201 71.1544 163.378 71.1071 162.455H73.2377C73.3206 163.277 73.6935 163.958 74.3564 164.496C75.0252 165.029 75.8242 165.295 76.7534 165.295C77.4991 165.295 78.162 165.121 78.742 164.772C79.3279 164.422 79.7866 163.943 80.1181 163.333C80.4554 162.718 80.6241 162.022 80.6241 161.247C80.6241 160.454 80.4495 159.747 80.1003 159.125C79.757 158.498 79.2836 158.004 78.6799 157.643C78.0762 157.282 77.3867 157.098 76.6113 157.092C76.055 157.086 75.4838 157.172 74.8979 157.35C74.312 157.521 73.8296 157.743 73.4508 158.016L71.3912 157.767L72.492 148.818H81.938V150.771H74.3386L73.6994 156.134H73.8059C74.1788 155.838 74.6464 155.592 75.2086 155.397C75.7709 155.201 76.3568 155.104 76.9664 155.104C78.0791 155.104 79.0705 155.37 79.9405 155.903C80.8165 156.429 81.503 157.152 82.0002 158.069C82.5033 158.986 82.7548 160.034 82.7548 161.212C82.7548 162.372 82.4944 163.407 81.9735 164.319C81.4586 165.224 80.7484 165.941 79.8429 166.467C78.9373 166.988 77.9075 167.249 76.7534 167.249ZM93.6324 148.818H96.2602L102.439 163.911H102.652L108.831 148.818H111.459V167H109.399V153.186H109.222L103.54 167H101.551L95.8696 153.186H95.692V167H93.6324V148.818ZM114.311 167V164.976H114.844C115.601 164.976 116.19 164.733 116.61 164.248C117.031 163.763 117.333 162.978 117.516 161.895C117.705 160.812 117.833 159.377 117.898 157.589L118.217 148.818H129.297V167H127.095V150.771H120.312L120.028 158.016C119.957 159.921 119.783 161.543 119.505 162.881C119.226 164.218 118.738 165.239 118.04 165.944C117.341 166.648 116.323 167 114.986 167H114.311ZM133.696 167V148.818H135.898V156.915H145.592V148.818H147.794V167H145.592V158.868H135.898V167H133.696Z" fill="#223C78"/>
<path d="M55.5198 310V308.402L61.5212 301.832C62.2255 301.063 62.8055 300.394 63.2613 299.826C63.717 299.252 64.0544 298.713 64.2733 298.21C64.4983 297.701 64.6107 297.169 64.6107 296.612C64.6107 295.973 64.4568 295.42 64.1491 294.952C63.8472 294.484 63.4329 294.123 62.9062 293.869C62.3794 293.614 61.7876 293.487 61.1306 293.487C60.4322 293.487 59.8226 293.632 59.3018 293.922C58.7868 294.206 58.3873 294.606 58.1032 295.121C57.8251 295.636 57.686 296.239 57.686 296.932H55.5908C55.5908 295.866 55.8364 294.931 56.3277 294.126C56.8189 293.321 57.4877 292.694 58.3341 292.244C59.1863 291.795 60.1422 291.57 61.2016 291.57C62.267 291.57 63.211 291.795 64.0336 292.244C64.8563 292.694 65.5015 293.301 65.969 294.064C66.4366 294.828 66.6704 295.677 66.6704 296.612C66.6704 297.281 66.549 297.935 66.3064 298.574C66.0696 299.208 65.6553 299.915 65.0635 300.696C64.4775 301.471 63.6637 302.418 62.6221 303.537L58.5383 307.905V308.047H66.99V310H55.5198ZM76.5869 310.249C75.2493 310.249 74.11 309.885 73.1689 309.157C72.2279 308.423 71.5088 307.36 71.0116 305.969C70.5145 304.573 70.2659 302.886 70.2659 300.909C70.2659 298.944 70.5145 297.266 71.0116 295.875C71.5147 294.479 72.2368 293.413 73.1778 292.679C74.1248 291.94 75.2612 291.57 76.5869 291.57C77.9127 291.57 79.0461 291.94 79.9871 292.679C80.9341 293.413 81.6562 294.479 82.1533 295.875C82.6564 297.266 82.9079 298.944 82.9079 300.909C82.9079 302.886 82.6594 304.573 82.1622 305.969C81.665 307.36 80.9459 308.423 80.0049 309.157C79.0638 309.885 77.9245 310.249 76.5869 310.249ZM76.5869 308.295C77.9127 308.295 78.9425 307.656 79.6764 306.378C80.4103 305.099 80.7773 303.277 80.7773 300.909C80.7773 299.335 80.6086 297.994 80.2712 296.887C79.9398 295.781 79.4604 294.937 78.833 294.357C78.2116 293.777 77.4629 293.487 76.5869 293.487C75.273 293.487 74.2461 294.135 73.5063 295.431C72.7665 296.722 72.3966 298.548 72.3966 300.909C72.3966 302.483 72.5623 303.821 72.8937 304.922C73.2252 306.023 73.7016 306.86 74.3231 307.434C74.9504 308.008 75.705 308.295 76.5869 308.295ZM93.6324 291.818H96.2602L102.439 306.911H102.652L108.831 291.818H111.459V310H109.399V296.186H109.222L103.54 310H101.551L95.8696 296.186H95.692V310H93.6324V291.818ZM114.311 310V307.976H114.844C115.601 307.976 116.19 307.733 116.61 307.248C117.031 306.763 117.333 305.978 117.516 304.895C117.705 303.812 117.833 302.377 117.898 300.589L118.217 291.818H129.297V310H127.095V293.771H120.312L120.028 301.016C119.957 302.921 119.783 304.543 119.505 305.881C119.226 307.218 118.738 308.239 118.04 308.944C117.341 309.648 116.323 310 114.986 310H114.311ZM133.696 310V291.818H135.898V299.915H145.592V291.818H147.794V310H145.592V301.868H135.898V310H133.696Z" fill="#223C78"/>
<path d="M65.8425 434.818V453H63.6408V437.126H63.5343L59.0953 440.074V437.837L63.6408 434.818H65.8425ZM76.7534 453.249C75.7117 453.249 74.7736 453.041 73.9391 452.627C73.1046 452.213 72.4358 451.645 71.9327 450.923C71.4296 450.201 71.1544 449.378 71.1071 448.455H73.2377C73.3206 449.277 73.6935 449.958 74.3564 450.496C75.0252 451.029 75.8242 451.295 76.7534 451.295C77.4991 451.295 78.162 451.121 78.742 450.772C79.3279 450.422 79.7866 449.943 80.1181 449.333C80.4554 448.718 80.6241 448.022 80.6241 447.247C80.6241 446.454 80.4495 445.747 80.1003 445.125C79.757 444.498 79.2836 444.004 78.6799 443.643C78.0762 443.282 77.3867 443.098 76.6113 443.092C76.055 443.086 75.4838 443.172 74.8979 443.35C74.312 443.521 73.8296 443.743 73.4508 444.016L71.3912 443.767L72.492 434.818H81.938V436.771H74.3386L73.6994 442.134H73.8059C74.1788 441.838 74.6464 441.592 75.2086 441.397C75.7709 441.201 76.3568 441.104 76.9664 441.104C78.0791 441.104 79.0705 441.37 79.9405 441.903C80.8165 442.429 81.503 443.152 82.0002 444.069C82.5033 444.986 82.7548 446.034 82.7548 447.212C82.7548 448.372 82.4944 449.407 81.9735 450.319C81.4586 451.224 80.7484 451.941 79.8429 452.467C78.9373 452.988 77.9075 453.249 76.7534 453.249ZM93.6324 434.818H96.2602L102.439 449.911H102.652L108.831 434.818H111.459V453H109.399V439.186H109.222L103.54 453H101.551L95.8696 439.186H95.692V453H93.6324V434.818ZM114.311 453V450.976H114.844C115.601 450.976 116.19 450.733 116.61 450.248C117.031 449.763 117.333 448.978 117.516 447.895C117.705 446.812 117.833 445.377 117.898 443.589L118.217 434.818H129.297V453H127.095V436.771H120.312L120.028 444.016C119.957 445.921 119.783 447.543 119.505 448.881C119.226 450.218 118.738 451.239 118.04 451.944C117.341 452.648 116.323 453 114.986 453H114.311ZM133.696 453V434.818H135.898V442.915H145.592V434.818H147.794V453H145.592V444.868H135.898V453H133.696Z" fill="#223C78"/>
<path d="M65.4275 577.818V596H63.2258V580.126H63.1192L58.6803 583.074V580.837L63.2258 577.818H65.4275ZM76.5869 596.249C75.2493 596.249 74.11 595.885 73.1689 595.157C72.2279 594.423 71.5088 593.36 71.0116 591.969C70.5145 590.573 70.2659 588.886 70.2659 586.909C70.2659 584.944 70.5145 583.266 71.0116 581.875C71.5147 580.479 72.2368 579.413 73.1778 578.679C74.1248 577.94 75.2612 577.57 76.5869 577.57C77.9127 577.57 79.0461 577.94 79.9871 578.679C80.9341 579.413 81.6562 580.479 82.1533 581.875C82.6564 583.266 82.9079 584.944 82.9079 586.909C82.9079 588.886 82.6594 590.573 82.1622 591.969C81.665 593.36 80.9459 594.423 80.0049 595.157C79.0638 595.885 77.9245 596.249 76.5869 596.249ZM76.5869 594.295C77.9127 594.295 78.9425 593.656 79.6764 592.378C80.4103 591.099 80.7773 589.277 80.7773 586.909C80.7773 585.335 80.6086 583.994 80.2712 582.887C79.9398 581.781 79.4604 580.937 78.833 580.357C78.2116 579.777 77.4629 579.487 76.5869 579.487C75.273 579.487 74.2461 580.135 73.5063 581.431C72.7665 582.722 72.3966 584.548 72.3966 586.909C72.3966 588.483 72.5623 589.821 72.8937 590.922C73.2252 592.023 73.7016 592.86 74.3231 593.434C74.9504 594.008 75.705 594.295 76.5869 594.295ZM93.6324 577.818H96.2602L102.439 592.911H102.652L108.831 577.818H111.459V596H109.399V582.186H109.222L103.54 596H101.551L95.8696 582.186H95.692V596H93.6324V577.818ZM114.311 596V593.976H114.844C115.601 593.976 116.19 593.733 116.61 593.248C117.031 592.763 117.333 591.978 117.516 590.895C117.705 589.812 117.833 588.377 117.898 586.589L118.217 577.818H129.297V596H127.095V579.771H120.312L120.028 587.016C119.957 588.921 119.783 590.543 119.505 591.881C119.226 593.218 118.738 594.239 118.04 594.944C117.341 595.648 116.323 596 114.986 596H114.311ZM133.696 596V577.818H135.898V585.915H145.592V577.818H147.794V596H145.592V587.868H135.898V596H133.696Z" fill="#223C78"/>
<path d="M167.617 11.8594H190.062" stroke="#459F63" stroke-width="6.98309" stroke-linecap="round"/>
<path d="M167.617 297.125H190.062" stroke="#459F63" stroke-width="6.98309" stroke-linecap="round"/>
<path opacity="0.2" d="M229.336 155.172H1649" stroke="#223C78" stroke-width="3.49155" stroke-linecap="round"/>
<path d="M167.617 154.508H190.062" stroke="#459F63" stroke-width="6.98309" stroke-linecap="round"/>
<path d="M167.617 439.789H190.062" stroke="#459F63" stroke-width="6.98309" stroke-linecap="round"/>
<path d="M167.617 586.664H190.062" stroke="#459F63" stroke-width="6.98309" stroke-linecap="round"/>
<path d="M72.7138 739.249C71.6722 739.249 70.7341 739.041 69.8996 738.627C69.065 738.213 68.3962 737.645 67.8932 736.923C67.3901 736.201 67.1149 735.378 67.0675 734.455H69.1982C69.2811 735.277 69.6539 735.958 70.3168 736.496C70.9856 737.029 71.7846 737.295 72.7138 737.295C73.4596 737.295 74.1225 737.121 74.7025 736.772C75.2884 736.422 75.7471 735.943 76.0785 735.333C76.4159 734.718 76.5846 734.022 76.5846 733.247C76.5846 732.454 76.41 731.747 76.0608 731.125C75.7175 730.498 75.244 730.004 74.6403 729.643C74.0366 729.282 73.3471 729.098 72.5718 729.092C72.0154 729.086 71.4443 729.172 70.8584 729.35C70.2724 729.521 69.7901 729.743 69.4113 730.016L67.3516 729.767L68.4525 720.818H77.8985V722.771H70.2991L69.6599 728.134H69.7664C70.1393 727.838 70.6068 727.592 71.1691 727.397C71.7314 727.201 72.3173 727.104 72.9269 727.104C74.0396 727.104 75.031 727.37 75.901 727.903C76.7769 728.429 77.4635 729.152 77.9606 730.069C78.4637 730.986 78.7153 732.034 78.7153 733.212C78.7153 734.372 78.4548 735.407 77.934 736.319C77.4191 737.224 76.7089 737.941 75.8033 738.467C74.8978 738.988 73.868 739.249 72.7138 739.249ZM89.5928 720.818H92.2207L98.3997 735.911H98.6127L104.792 720.818H107.42V739H105.36V725.186H105.182L99.5005 739H97.5119L91.83 725.186H91.6525V739H89.5928V720.818ZM110.272 739V736.976H110.804C111.562 736.976 112.151 736.733 112.571 736.248C112.991 735.763 113.293 734.978 113.476 733.895C113.666 732.812 113.793 731.377 113.858 729.589L114.178 720.818H125.257V739H123.056V722.771H116.273L115.989 730.016C115.918 731.921 115.743 733.543 115.465 734.881C115.187 736.218 114.699 737.239 114 737.944C113.302 738.648 112.284 739 110.946 739H110.272ZM129.656 739V720.818H131.858V728.915H141.553V720.818H143.754V739H141.553V730.868H131.858V739H129.656Z" fill="#223C78"/>
<path d="M338.585 789.721V811.539H334.025V793.471H325.204V811.539H320.644V789.721H338.585ZM342.976 811.539V789.721H351.584C353.239 789.721 354.649 790.037 355.814 790.669C356.979 791.294 357.866 792.164 358.477 793.279C359.095 794.387 359.404 795.665 359.404 797.114C359.404 798.563 359.091 799.842 358.466 800.95C357.841 802.058 356.936 802.92 355.75 803.538C354.571 804.156 353.143 804.465 351.467 804.465H345.981V800.768H350.721C351.609 800.768 352.341 800.616 352.916 800.31C353.498 799.998 353.932 799.568 354.216 799.021C354.507 798.467 354.653 797.832 354.653 797.114C354.653 796.39 354.507 795.758 354.216 795.218C353.932 794.671 353.498 794.249 352.916 793.95C352.334 793.645 351.595 793.492 350.7 793.492H347.589V811.539H342.976ZM362.4 811.539V789.721H377.102V793.524H367.013V798.723H376.346V802.526H367.013V807.736H377.145V811.539H362.4ZM399.317 789.721V811.539H394.757V793.471H385.936V811.539H381.377V789.721H399.317ZM407.469 811.539H402.526L410.058 789.721H416.003L423.524 811.539H418.581L413.116 794.707H412.945L407.469 811.539ZM407.161 802.963H418.837V806.564H407.161V802.963ZM426.15 811.539V789.721H434.758C436.413 789.721 437.823 790.037 438.988 790.669C440.152 791.294 441.04 792.164 441.651 793.279C442.269 794.387 442.578 795.665 442.578 797.114C442.578 798.563 442.265 799.842 441.64 800.95C441.015 802.058 440.11 802.92 438.924 803.538C437.745 804.156 436.317 804.465 434.641 804.465H429.154V800.768H433.895C434.783 800.768 435.515 800.616 436.09 800.31C436.672 799.998 437.105 799.568 437.39 799.021C437.681 798.467 437.826 797.832 437.826 797.114C437.826 796.39 437.681 795.758 437.39 795.218C437.105 794.671 436.672 794.249 436.09 793.95C435.507 793.645 434.769 793.492 433.874 793.492H430.763V811.539H426.15ZM446.815 811.539H441.872L449.404 789.721H455.349L462.87 811.539H457.927L452.461 794.707H452.291L446.815 811.539ZM446.506 802.963H458.182V806.564H446.506V802.963ZM461.999 793.524V789.721H479.918V793.524H473.238V811.539H468.679V793.524H461.999ZM489.812 811.539V789.721H493.573L502.33 804.732H502.511V789.721H506.314V811.539H502.607L493.818 796.582H493.637V811.539H489.812ZM509.233 805.168V802.707H518.651V805.168H509.233ZM513.932 800.939C512.859 800.939 511.929 800.708 511.14 800.246C510.359 799.785 509.756 799.156 509.329 798.361C508.903 797.565 508.69 796.663 508.69 795.655V794.717C508.69 793.716 508.903 792.817 509.329 792.022C509.756 791.219 510.359 790.587 511.14 790.126C511.922 789.664 512.845 789.433 513.91 789.433C514.99 789.433 515.917 789.664 516.691 790.126C517.472 790.587 518.072 791.219 518.491 792.022C518.917 792.817 519.131 793.716 519.131 794.717V795.655C519.131 796.656 518.921 797.555 518.502 798.35C518.09 799.146 517.493 799.778 516.712 800.246C515.938 800.708 515.011 800.939 513.932 800.939ZM513.932 798.297C514.606 798.297 515.128 798.059 515.498 797.583C515.874 797.1 516.062 796.457 516.062 795.655V794.717C516.062 793.922 515.878 793.29 515.508 792.821C515.139 792.352 514.606 792.118 513.91 792.118C513.221 792.118 512.692 792.352 512.323 792.821C511.961 793.29 511.78 793.922 511.78 794.717V795.655C511.78 796.457 511.964 797.1 512.334 797.583C512.703 798.059 513.236 798.297 513.932 798.297ZM522.731 811.539V808.215L530.498 801.024C531.158 800.385 531.712 799.81 532.16 799.298C532.614 798.787 532.959 798.286 533.193 797.796C533.427 797.299 533.545 796.763 533.545 796.188C533.545 795.548 533.399 794.998 533.108 794.536C532.817 794.067 532.419 793.709 531.915 793.46C531.41 793.205 530.839 793.077 530.199 793.077C529.532 793.077 528.949 793.212 528.452 793.482C527.955 793.751 527.572 794.138 527.302 794.643C527.032 795.147 526.897 795.747 526.897 796.443H522.518C522.518 795.016 522.841 793.776 523.488 792.725C524.134 791.674 525.04 790.861 526.204 790.286C527.369 789.71 528.711 789.423 530.231 789.423C531.794 789.423 533.154 789.7 534.312 790.254C535.476 790.8 536.382 791.56 537.028 792.533C537.675 793.506 537.998 794.621 537.998 795.879C537.998 796.702 537.834 797.516 537.508 798.318C537.188 799.121 536.616 800.012 535.792 800.992C534.969 801.965 533.807 803.134 532.309 804.497L529.123 807.619V807.768H538.285V811.539H522.731Z" fill="#459F63"/>
<path d="M306.57 469.519V505.883H298.882V476.817H298.669L290.342 482.037V475.219L299.344 469.519H306.57ZM331.033 469.519V505.883H323.345V476.817H323.132L314.805 482.037V475.219L323.807 469.519H331.033ZM365.204 506.38C363.334 506.368 361.529 506.054 359.789 505.439C358.06 504.823 356.51 503.823 355.137 502.438C353.764 501.053 352.675 499.219 351.87 496.934C351.077 494.649 350.68 491.844 350.68 488.518C350.692 485.464 351.041 482.735 351.728 480.332C352.426 477.918 353.42 475.87 354.711 474.189C356.013 472.508 357.569 471.23 359.38 470.354C361.191 469.466 363.221 469.022 365.471 469.022C367.897 469.022 370.04 469.496 371.898 470.442C373.757 471.378 375.248 472.65 376.373 474.26C377.509 475.87 378.195 477.675 378.432 479.675H370.85C370.555 478.409 369.933 477.415 368.986 476.692C368.039 475.97 366.867 475.609 365.471 475.609C363.103 475.609 361.304 476.639 360.073 478.699C358.854 480.759 358.232 483.558 358.208 487.097H358.457C359.002 486.02 359.735 485.103 360.659 484.345C361.594 483.576 362.653 482.99 363.837 482.587C365.033 482.173 366.293 481.966 367.619 481.966C369.773 481.966 371.691 482.475 373.372 483.493C375.053 484.499 376.378 485.884 377.349 487.648C378.32 489.411 378.805 491.43 378.805 493.702C378.805 496.165 378.231 498.354 377.083 500.272C375.946 502.19 374.354 503.693 372.306 504.782C370.27 505.859 367.903 506.392 365.204 506.38ZM365.169 500.343C366.352 500.343 367.412 500.059 368.347 499.491C369.282 498.923 370.016 498.153 370.549 497.183C371.081 496.212 371.348 495.123 371.348 493.915C371.348 492.708 371.081 491.625 370.549 490.666C370.028 489.707 369.306 488.944 368.382 488.376C367.459 487.808 366.406 487.523 365.222 487.523C364.334 487.523 363.511 487.689 362.754 488.021C362.008 488.352 361.351 488.814 360.783 489.406C360.227 489.997 359.789 490.684 359.469 491.465C359.15 492.235 358.99 493.057 358.99 493.933C358.99 495.105 359.256 496.176 359.789 497.147C360.333 498.118 361.067 498.893 361.99 499.473C362.926 500.053 363.985 500.343 365.169 500.343ZM398.514 506.682C395.46 506.67 392.832 505.918 390.63 504.427C388.44 502.935 386.754 500.775 385.57 497.946C384.398 495.117 383.818 491.714 383.83 487.737C383.83 483.771 384.416 480.392 385.588 477.598C386.771 474.804 388.458 472.68 390.648 471.224C392.85 469.756 395.472 469.022 398.514 469.022C401.556 469.022 404.172 469.756 406.362 471.224C408.564 472.692 410.256 474.822 411.44 477.616C412.624 480.397 413.21 483.771 413.198 487.737C413.198 491.726 412.606 495.135 411.422 497.964C410.25 500.793 408.569 502.953 406.38 504.445C404.19 505.936 401.568 506.682 398.514 506.682ZM398.514 500.308C400.597 500.308 402.26 499.26 403.503 497.165C404.746 495.07 405.362 491.927 405.35 487.737C405.35 484.978 405.066 482.682 404.498 480.847C403.941 479.013 403.148 477.634 402.118 476.71C401.1 475.787 399.899 475.325 398.514 475.325C396.442 475.325 394.785 476.361 393.542 478.433C392.299 480.504 391.672 483.605 391.66 487.737C391.66 490.53 391.938 492.862 392.495 494.732C393.063 496.591 393.862 497.987 394.892 498.923C395.922 499.846 397.129 500.308 398.514 500.308ZM432.938 506.682C429.884 506.67 427.256 505.918 425.054 504.427C422.864 502.935 421.177 500.775 419.994 497.946C418.822 495.117 418.242 491.714 418.254 487.737C418.254 483.771 418.84 480.392 420.012 477.598C421.195 474.804 422.882 472.68 425.072 471.224C427.274 469.756 429.896 469.022 432.938 469.022C435.98 469.022 438.596 469.756 440.786 471.224C442.987 472.692 444.68 474.822 445.864 477.616C447.048 480.397 447.633 483.771 447.622 487.737C447.622 491.726 447.03 495.135 445.846 497.964C444.674 500.793 442.993 502.953 440.803 504.445C438.614 505.936 435.992 506.682 432.938 506.682ZM432.938 500.308C435.021 500.308 436.684 499.26 437.927 497.165C439.17 495.07 439.785 491.927 439.774 487.737C439.774 484.978 439.49 482.682 438.921 480.847C438.365 479.013 437.572 477.634 436.542 476.71C435.524 475.787 434.323 475.325 432.938 475.325C430.866 475.325 429.209 476.361 427.966 478.433C426.723 480.504 426.096 483.605 426.084 487.737C426.084 490.53 426.362 492.862 426.919 494.732C427.487 496.591 428.286 497.987 429.316 498.923C430.345 499.846 431.553 500.308 432.938 500.308ZM478.934 506.682C475.88 506.67 473.252 505.918 471.05 504.427C468.86 502.935 467.174 500.775 465.99 497.946C464.818 495.117 464.238 491.714 464.25 487.737C464.25 483.771 464.836 480.392 466.008 477.598C467.191 474.804 468.878 472.68 471.068 471.224C473.27 469.756 475.892 469.022 478.934 469.022C481.976 469.022 484.592 469.756 486.782 471.224C488.983 472.692 490.676 474.822 491.86 477.616C493.044 480.397 493.63 483.771 493.618 487.737C493.618 491.726 493.026 495.135 491.842 497.964C490.67 500.793 488.989 502.953 486.8 504.445C484.61 505.936 481.988 506.682 478.934 506.682ZM478.934 500.308C481.017 500.308 482.68 499.26 483.923 497.165C485.166 495.07 485.782 491.927 485.77 487.737C485.77 484.978 485.486 482.682 484.917 480.847C484.361 479.013 483.568 477.634 482.538 476.71C481.52 475.787 480.319 475.325 478.934 475.325C476.862 475.325 475.205 476.361 473.962 478.433C472.719 480.504 472.092 483.605 472.08 487.737C472.08 490.53 472.358 492.862 472.915 494.732C473.483 496.591 474.282 497.987 475.312 498.923C476.341 499.846 477.549 500.308 478.934 500.308ZM513.358 506.682C510.304 506.67 507.676 505.918 505.474 504.427C503.284 502.935 501.597 500.775 500.414 497.946C499.242 495.117 498.662 491.714 498.674 487.737C498.674 483.771 499.26 480.392 500.431 477.598C501.615 474.804 503.302 472.68 505.492 471.224C507.694 469.756 510.315 469.022 513.358 469.022C516.4 469.022 519.016 469.756 521.206 471.224C523.407 472.692 525.1 474.822 526.284 477.616C527.467 480.397 528.053 483.771 528.042 487.737C528.042 491.726 527.45 495.135 526.266 497.964C525.094 500.793 523.413 502.953 521.223 504.445C519.033 505.936 516.412 506.682 513.358 506.682ZM513.358 500.308C515.441 500.308 517.104 499.26 518.347 497.165C519.59 495.07 520.205 491.927 520.194 487.737C520.194 484.978 519.909 482.682 519.341 480.847C518.785 479.013 517.992 477.634 516.962 476.71C515.944 475.787 514.743 475.325 513.358 475.325C511.286 475.325 509.629 476.361 508.386 478.433C507.143 480.504 506.516 483.605 506.504 487.737C506.504 490.53 506.782 492.862 507.338 494.732C507.907 496.591 508.706 497.987 509.735 498.923C510.765 499.846 511.973 500.308 513.358 500.308ZM547.781 506.682C544.727 506.67 542.1 505.918 539.898 504.427C537.708 502.935 536.021 500.775 534.838 497.946C533.666 495.117 533.086 491.714 533.097 487.737C533.097 483.771 533.683 480.392 534.855 477.598C536.039 474.804 537.726 472.68 539.916 471.224C542.117 469.756 544.739 469.022 547.781 469.022C550.824 469.022 553.44 469.756 555.629 471.224C557.831 472.692 559.524 474.822 560.708 477.616C561.891 480.397 562.477 483.771 562.465 487.737C562.465 491.726 561.874 495.135 560.69 497.964C559.518 500.793 557.837 502.953 555.647 504.445C553.457 505.936 550.835 506.682 547.781 506.682ZM547.781 500.308C549.865 500.308 551.528 499.26 552.771 497.165C554.014 495.07 554.629 491.927 554.617 487.737C554.617 484.978 554.333 482.682 553.765 480.847C553.209 479.013 552.416 477.634 551.386 476.71C550.368 475.787 549.166 475.325 547.781 475.325C545.71 475.325 544.053 476.361 542.81 478.433C541.567 480.504 540.94 483.605 540.928 487.737C540.928 490.53 541.206 492.862 541.762 494.732C542.33 496.591 543.129 497.987 544.159 498.923C545.189 499.846 546.396 500.308 547.781 500.308Z" fill="#459F63"/>
<path d="M798.539 114V108.46L811.483 96.4751C812.584 95.4098 813.507 94.451 814.253 93.5987C815.011 92.7464 815.585 91.9119 815.975 91.0952C816.366 90.2666 816.561 89.3729 816.561 88.4141C816.561 87.3487 816.319 86.4313 815.833 85.6619C815.348 84.8807 814.685 84.2829 813.845 83.8686C813.004 83.4425 812.051 83.2294 810.986 83.2294C809.873 83.2294 808.903 83.4543 808.074 83.9041C807.245 84.3539 806.606 84.9991 806.156 85.8395C805.707 86.6799 805.482 87.6802 805.482 88.8402H798.184C798.184 86.4609 798.723 84.3954 799.8 82.6435C800.877 80.8916 802.386 79.5362 804.328 78.5774C806.269 77.6186 808.506 77.1392 811.039 77.1392C813.643 77.1392 815.91 77.6009 817.84 78.5241C819.781 79.4356 821.29 80.7022 822.367 82.3239C823.445 83.9455 823.983 85.804 823.983 87.8991C823.983 89.2723 823.711 90.6276 823.166 91.9652C822.634 93.3028 821.681 94.7884 820.308 96.4219C818.935 98.0436 816.999 99.9908 814.502 102.263L809.193 107.466V107.714H824.463V114H798.539ZM843.315 114.497C840.805 114.497 838.568 114.036 836.603 113.112C834.65 112.189 833.099 110.916 831.951 109.295C830.803 107.673 830.205 105.815 830.158 103.719H837.615C837.698 105.128 838.29 106.27 839.391 107.146C840.491 108.022 841.799 108.46 843.315 108.46C844.522 108.46 845.587 108.194 846.511 107.661C847.446 107.117 848.174 106.365 848.695 105.406C849.227 104.436 849.494 103.323 849.494 102.068C849.494 100.79 849.221 99.6652 848.677 98.6946C848.144 97.724 847.404 96.9664 846.457 96.4219C845.51 95.8774 844.427 95.5992 843.208 95.5874C842.143 95.5874 841.107 95.8063 840.101 96.2443C839.107 96.6823 838.331 97.2801 837.775 98.0376L830.939 96.8125L832.661 77.6364H854.891V83.9219H839L838.059 93.0305H838.272C838.911 92.1309 839.876 91.3852 841.166 90.7933C842.456 90.2015 843.901 89.9055 845.499 89.9055C847.688 89.9055 849.642 90.4205 851.358 91.4503C853.074 92.4801 854.43 93.8946 855.424 95.6939C856.418 97.4813 856.91 99.541 856.898 101.873C856.91 104.323 856.341 106.501 855.193 108.407C854.057 110.301 852.465 111.792 850.417 112.881C848.381 113.959 846.013 114.497 843.315 114.497ZM888.09 114.799C885.036 114.787 882.408 114.036 880.206 112.544C878.017 111.053 876.33 108.892 875.146 106.063C873.974 103.234 873.394 99.831 873.406 95.8537C873.406 91.8883 873.992 88.5088 875.164 85.7152C876.348 82.9216 878.034 80.7969 880.224 79.3409C882.426 77.8731 885.048 77.1392 888.09 77.1392C891.132 77.1392 893.748 77.8731 895.938 79.3409C898.14 80.8087 899.832 82.9394 901.016 85.733C902.2 88.5147 902.786 91.8883 902.774 95.8537C902.774 99.8428 902.182 103.252 900.998 106.081C899.827 108.91 898.146 111.07 895.956 112.562C893.766 114.053 891.144 114.799 888.09 114.799ZM888.09 108.425C890.173 108.425 891.836 107.377 893.079 105.282C894.322 103.187 894.938 100.044 894.926 95.8537C894.926 93.0956 894.642 90.7992 894.074 88.9645C893.517 87.1297 892.724 85.7507 891.694 84.8274C890.676 83.9041 889.475 83.4425 888.09 83.4425C886.019 83.4425 884.361 84.4782 883.118 86.5497C881.876 88.6212 881.248 91.7225 881.236 95.8537C881.236 98.6473 881.515 100.979 882.071 102.849C882.639 104.708 883.438 106.105 884.468 107.04C885.498 107.963 886.705 108.425 888.09 108.425ZM922.514 114.799C919.46 114.787 916.832 114.036 914.63 112.544C912.44 111.053 910.754 108.892 909.57 106.063C908.398 103.234 907.818 99.831 907.83 95.8537C907.83 91.8883 908.416 88.5088 909.588 85.7152C910.771 82.9216 912.458 80.7969 914.648 79.3409C916.85 77.8731 919.472 77.1392 922.514 77.1392C925.556 77.1392 928.172 77.8731 930.362 79.3409C932.564 80.8087 934.256 82.9394 935.44 85.733C936.624 88.5147 937.21 91.8883 937.198 95.8537C937.198 99.8428 936.606 103.252 935.422 106.081C934.25 108.91 932.569 111.07 930.38 112.562C928.19 114.053 925.568 114.799 922.514 114.799ZM922.514 108.425C924.597 108.425 926.26 107.377 927.503 105.282C928.746 103.187 929.362 100.044 929.35 95.8537C929.35 93.0956 929.066 90.7992 928.498 88.9645C927.941 87.1297 927.148 85.7507 926.118 84.8274C925.1 83.9041 923.899 83.4425 922.514 83.4425C920.442 83.4425 918.785 84.4782 917.542 86.5497C916.299 88.6212 915.672 91.7225 915.66 95.8537C915.66 98.6473 915.938 100.979 916.495 102.849C917.063 104.708 917.862 106.105 918.892 107.04C919.922 107.963 921.129 108.425 922.514 108.425ZM956.938 114.799C953.884 114.787 951.256 114.036 949.054 112.544C946.864 111.053 945.177 108.892 943.994 106.063C942.822 103.234 942.242 99.831 942.254 95.8537C942.254 91.8883 942.84 88.5088 944.012 85.7152C945.195 82.9216 946.882 80.7969 949.072 79.3409C951.274 77.8731 953.896 77.1392 956.938 77.1392C959.98 77.1392 962.596 77.8731 964.786 79.3409C966.987 80.8087 968.68 82.9394 969.864 85.733C971.048 88.5147 971.633 91.8883 971.622 95.8537C971.622 99.8428 971.03 103.252 969.846 106.081C968.674 108.91 966.993 111.07 964.803 112.562C962.614 114.053 959.992 114.799 956.938 114.799ZM956.938 108.425C959.021 108.425 960.684 107.377 961.927 105.282C963.17 103.187 963.785 100.044 963.774 95.8537C963.774 93.0956 963.49 90.7992 962.921 88.9645C962.365 87.1297 961.572 85.7507 960.542 84.8274C959.524 83.9041 958.323 83.4425 956.938 83.4425C954.866 83.4425 953.209 84.4782 951.966 86.5497C950.723 88.6212 950.096 91.7225 950.084 95.8537C950.084 98.6473 950.362 100.979 950.919 102.849C951.487 104.708 952.286 106.105 953.316 107.04C954.345 107.963 955.553 108.425 956.938 108.425ZM1002.93 114.799C999.88 114.787 997.252 114.036 995.05 112.544C992.86 111.053 991.174 108.892 989.99 106.063C988.818 103.234 988.238 99.831 988.25 95.8537C988.25 91.8883 988.836 88.5088 990.008 85.7152C991.191 82.9216 992.878 80.7969 995.068 79.3409C997.27 77.8731 999.892 77.1392 1002.93 77.1392C1005.98 77.1392 1008.59 77.8731 1010.78 79.3409C1012.98 80.8087 1014.68 82.9394 1015.86 85.733C1017.04 88.5147 1017.63 91.8883 1017.62 95.8537C1017.62 99.8428 1017.03 103.252 1015.84 106.081C1014.67 108.91 1012.99 111.07 1010.8 112.562C1008.61 114.053 1005.99 114.799 1002.93 114.799ZM1002.93 108.425C1005.02 108.425 1006.68 107.377 1007.92 105.282C1009.17 103.187 1009.78 100.044 1009.77 95.8537C1009.77 93.0956 1009.49 90.7992 1008.92 88.9645C1008.36 87.1297 1007.57 85.7507 1006.54 84.8274C1005.52 83.9041 1004.32 83.4425 1002.93 83.4425C1000.86 83.4425 999.205 84.4782 997.962 86.5497C996.719 88.6212 996.092 91.7225 996.08 95.8537C996.08 98.6473 996.358 100.979 996.915 102.849C997.483 104.708 998.282 106.105 999.312 107.04C1000.34 107.963 1001.55 108.425 1002.93 108.425ZM1037.36 114.799C1034.3 114.787 1031.68 114.036 1029.47 112.544C1027.28 111.053 1025.6 108.892 1024.41 106.063C1023.24 103.234 1022.66 99.831 1022.67 95.8537C1022.67 91.8883 1023.26 88.5088 1024.43 85.7152C1025.62 82.9216 1027.3 80.7969 1029.49 79.3409C1031.69 77.8731 1034.32 77.1392 1037.36 77.1392C1040.4 77.1392 1043.02 77.8731 1045.21 79.3409C1047.41 80.8087 1049.1 82.9394 1050.28 85.733C1051.47 88.5147 1052.05 91.8883 1052.04 95.8537C1052.04 99.8428 1051.45 103.252 1050.27 106.081C1049.09 108.91 1047.41 111.07 1045.22 112.562C1043.03 114.053 1040.41 114.799 1037.36 114.799ZM1037.36 108.425C1039.44 108.425 1041.1 107.377 1042.35 105.282C1043.59 103.187 1044.21 100.044 1044.19 95.8537C1044.19 93.0956 1043.91 90.7992 1043.34 88.9645C1042.78 87.1297 1041.99 85.7507 1040.96 84.8274C1039.94 83.9041 1038.74 83.4425 1037.36 83.4425C1035.29 83.4425 1033.63 84.4782 1032.39 86.5497C1031.14 88.6212 1030.52 91.7225 1030.5 95.8537C1030.5 98.6473 1030.78 100.979 1031.34 102.849C1031.91 104.708 1032.71 106.105 1033.74 107.04C1034.77 107.963 1035.97 108.425 1037.36 108.425ZM1071.78 114.799C1068.73 114.787 1066.1 114.036 1063.9 112.544C1061.71 111.053 1060.02 108.892 1058.84 106.063C1057.67 103.234 1057.09 99.831 1057.1 95.8537C1057.1 91.8883 1057.68 88.5088 1058.86 85.7152C1060.04 82.9216 1061.73 80.7969 1063.92 79.3409C1066.12 77.8731 1068.74 77.1392 1071.78 77.1392C1074.82 77.1392 1077.44 77.8731 1079.63 79.3409C1081.83 80.8087 1083.52 82.9394 1084.71 85.733C1085.89 88.5147 1086.48 91.8883 1086.47 95.8537C1086.47 99.8428 1085.87 103.252 1084.69 106.081C1083.52 108.91 1081.84 111.07 1079.65 112.562C1077.46 114.053 1074.84 114.799 1071.78 114.799ZM1071.78 108.425C1073.86 108.425 1075.53 107.377 1076.77 105.282C1078.01 103.187 1078.63 100.044 1078.62 95.8537C1078.62 93.0956 1078.33 90.7992 1077.77 88.9645C1077.21 87.1297 1076.42 85.7507 1075.39 84.8274C1074.37 83.9041 1073.17 83.4425 1071.78 83.4425C1069.71 83.4425 1068.05 84.4782 1066.81 86.5497C1065.57 88.6212 1064.94 91.7225 1064.93 95.8537C1064.93 98.6473 1065.21 100.979 1065.76 102.849C1066.33 104.708 1067.13 106.105 1068.16 107.04C1069.19 107.963 1070.4 108.425 1071.78 108.425Z" fill="#9CB0B8"/>
<path d="M1373.3 319.48V355.844H1365.61V326.778H1365.4L1357.07 331.998V325.18L1366.07 319.48H1373.3ZM1383.38 355.844L1398.45 326.014V325.766H1380.89V319.48H1406.41V325.854L1391.31 355.844H1383.38ZM1437.2 356.341C1435.33 356.329 1433.53 356.015 1431.79 355.4C1430.06 354.784 1428.51 353.784 1427.14 352.399C1425.76 351.014 1424.67 349.179 1423.87 346.895C1423.08 344.61 1422.68 341.805 1422.68 338.479C1422.69 335.425 1423.04 332.696 1423.73 330.293C1424.43 327.879 1425.42 325.831 1426.71 324.15C1428.01 322.469 1429.57 321.191 1431.38 320.315C1433.19 319.427 1435.22 318.983 1437.47 318.983C1439.9 318.983 1442.04 319.456 1443.9 320.403C1445.76 321.339 1447.25 322.611 1448.37 324.221C1449.51 325.831 1450.2 327.636 1450.43 329.636H1442.85C1442.55 328.37 1441.93 327.375 1440.99 326.653C1440.04 325.931 1438.87 325.57 1437.47 325.57C1435.1 325.57 1433.3 326.6 1432.07 328.66C1430.85 330.719 1430.23 333.519 1430.21 337.058H1430.46C1431 335.981 1431.74 335.064 1432.66 334.306C1433.59 333.537 1434.65 332.951 1435.84 332.548C1437.03 332.134 1438.29 331.927 1439.62 331.927C1441.77 331.927 1443.69 332.436 1445.37 333.454C1447.05 334.46 1448.38 335.845 1449.35 337.609C1450.32 339.372 1450.81 341.391 1450.81 343.663C1450.81 346.125 1450.23 348.315 1449.08 350.233C1447.95 352.151 1446.35 353.654 1444.31 354.743C1442.27 355.82 1439.9 356.353 1437.2 356.341ZM1437.17 350.304C1438.35 350.304 1439.41 350.02 1440.35 349.452C1441.28 348.884 1442.02 348.114 1442.55 347.143C1443.08 346.173 1443.35 345.084 1443.35 343.876C1443.35 342.669 1443.08 341.586 1442.55 340.627C1442.03 339.668 1441.31 338.905 1440.38 338.337C1439.46 337.768 1438.41 337.484 1437.22 337.484C1436.33 337.484 1435.51 337.65 1434.75 337.982C1434.01 338.313 1433.35 338.775 1432.78 339.366C1432.23 339.958 1431.79 340.645 1431.47 341.426C1431.15 342.196 1430.99 343.018 1430.99 343.894C1430.99 345.066 1431.26 346.137 1431.79 347.108C1432.33 348.079 1433.07 348.854 1433.99 349.434C1434.93 350.014 1435.98 350.304 1437.17 350.304ZM1470.51 356.643C1467.46 356.631 1464.83 355.879 1462.63 354.388C1460.44 352.896 1458.75 350.736 1457.57 347.907C1456.4 345.078 1455.82 341.675 1455.83 337.697C1455.83 333.732 1456.42 330.353 1457.59 327.559C1458.77 324.765 1460.46 322.641 1462.65 321.185C1464.85 319.717 1467.47 318.983 1470.51 318.983C1473.56 318.983 1476.17 319.717 1478.36 321.185C1480.56 322.652 1482.26 324.783 1483.44 327.577C1484.62 330.358 1485.21 333.732 1485.2 337.697C1485.2 341.687 1484.61 345.096 1483.42 347.925C1482.25 350.754 1480.57 352.914 1478.38 354.406C1476.19 355.897 1473.57 356.643 1470.51 356.643ZM1470.51 350.268C1472.6 350.268 1474.26 349.221 1475.5 347.126C1476.75 345.031 1477.36 341.888 1477.35 337.697C1477.35 334.939 1477.07 332.643 1476.5 330.808C1475.94 328.973 1475.15 327.594 1474.12 326.671C1473.1 325.748 1471.9 325.286 1470.51 325.286C1468.44 325.286 1466.79 326.322 1465.54 328.393C1464.3 330.465 1463.67 333.566 1463.66 337.697C1463.66 340.491 1463.94 342.823 1464.49 344.693C1465.06 346.552 1465.86 347.948 1466.89 348.884C1467.92 349.807 1469.13 350.268 1470.51 350.268ZM1504.94 356.643C1501.88 356.631 1499.26 355.879 1497.05 354.388C1494.86 352.896 1493.18 350.736 1491.99 347.907C1490.82 345.078 1490.24 341.675 1490.25 337.697C1490.25 333.732 1490.84 330.353 1492.01 327.559C1493.2 324.765 1494.88 322.641 1497.07 321.185C1499.27 319.717 1501.9 318.983 1504.94 318.983C1507.98 318.983 1510.6 319.717 1512.79 321.185C1514.99 322.652 1516.68 324.783 1517.86 327.577C1519.05 330.358 1519.63 333.732 1519.62 337.697C1519.62 341.687 1519.03 345.096 1517.85 347.925C1516.67 350.754 1514.99 352.914 1512.8 354.406C1510.61 355.897 1507.99 356.643 1504.94 356.643ZM1504.94 350.268C1507.02 350.268 1508.68 349.221 1509.93 347.126C1511.17 345.031 1511.79 341.888 1511.77 337.697C1511.77 334.939 1511.49 332.643 1510.92 330.808C1510.36 328.973 1509.57 327.594 1508.54 326.671C1507.52 325.748 1506.32 325.286 1504.94 325.286C1502.87 325.286 1501.21 326.322 1499.97 328.393C1498.72 330.465 1498.1 333.566 1498.08 337.697C1498.08 340.491 1498.36 342.823 1498.92 344.693C1499.49 346.552 1500.29 347.948 1501.32 348.884C1502.35 349.807 1503.55 350.268 1504.94 350.268ZM1550.93 356.643C1547.88 356.631 1545.25 355.879 1543.05 354.388C1540.86 352.896 1539.17 350.736 1537.99 347.907C1536.82 345.078 1536.24 341.675 1536.25 337.697C1536.25 333.732 1536.84 330.353 1538.01 327.559C1539.19 324.765 1540.88 322.641 1543.07 321.185C1545.27 319.717 1547.89 318.983 1550.93 318.983C1553.98 318.983 1556.59 319.717 1558.78 321.185C1560.98 322.652 1562.68 324.783 1563.86 327.577C1565.04 330.358 1565.63 333.732 1565.62 337.697C1565.62 341.687 1565.03 345.096 1563.84 347.925C1562.67 350.754 1560.99 352.914 1558.8 354.406C1556.61 355.897 1553.99 356.643 1550.93 356.643ZM1550.93 350.268C1553.02 350.268 1554.68 349.221 1555.92 347.126C1557.17 345.031 1557.78 341.888 1557.77 337.697C1557.77 334.939 1557.49 332.643 1556.92 330.808C1556.36 328.973 1555.57 327.594 1554.54 326.671C1553.52 325.748 1552.32 325.286 1550.93 325.286C1548.86 325.286 1547.21 326.322 1545.96 328.393C1544.72 330.465 1544.09 333.566 1544.08 337.697C1544.08 340.491 1544.36 342.823 1544.91 344.693C1545.48 346.552 1546.28 347.948 1547.31 348.884C1548.34 349.807 1549.55 350.268 1550.93 350.268ZM1585.36 356.643C1582.3 356.631 1579.68 355.879 1577.47 354.388C1575.28 352.896 1573.6 350.736 1572.41 347.907C1571.24 345.078 1570.66 341.675 1570.67 337.697C1570.67 333.732 1571.26 330.353 1572.43 327.559C1573.62 324.765 1575.3 322.641 1577.49 321.185C1579.69 319.717 1582.32 318.983 1585.36 318.983C1588.4 318.983 1591.02 319.717 1593.21 321.185C1595.41 322.652 1597.1 324.783 1598.28 327.577C1599.47 330.358 1600.05 333.732 1600.04 337.697C1600.04 341.687 1599.45 345.096 1598.27 347.925C1597.09 350.754 1595.41 352.914 1593.22 354.406C1591.03 355.897 1588.41 356.643 1585.36 356.643ZM1585.36 350.268C1587.44 350.268 1589.1 349.221 1590.35 347.126C1591.59 345.031 1592.21 341.888 1592.19 337.697C1592.19 334.939 1591.91 332.643 1591.34 330.808C1590.78 328.973 1589.99 327.594 1588.96 326.671C1587.94 325.748 1586.74 325.286 1585.36 325.286C1583.29 325.286 1581.63 326.322 1580.39 328.393C1579.14 330.465 1578.52 333.566 1578.5 337.697C1578.5 340.491 1578.78 342.823 1579.34 344.693C1579.91 346.552 1580.71 347.948 1581.74 348.884C1582.77 349.807 1583.97 350.268 1585.36 350.268ZM1619.78 356.643C1616.73 356.631 1614.1 355.879 1611.9 354.388C1609.71 352.896 1608.02 350.736 1606.84 347.907C1605.67 345.078 1605.09 341.675 1605.1 337.697C1605.1 333.732 1605.68 330.353 1606.86 327.559C1608.04 324.765 1609.73 322.641 1611.92 321.185C1614.12 319.717 1616.74 318.983 1619.78 318.983C1622.82 318.983 1625.44 319.717 1627.63 321.185C1629.83 322.652 1631.52 324.783 1632.71 327.577C1633.89 330.358 1634.48 333.732 1634.47 337.697C1634.47 341.687 1633.87 345.096 1632.69 347.925C1631.52 350.754 1629.84 352.914 1627.65 354.406C1625.46 355.897 1622.84 356.643 1619.78 356.643ZM1619.78 350.268C1621.86 350.268 1623.53 349.221 1624.77 347.126C1626.01 345.031 1626.63 341.888 1626.62 337.697C1626.62 334.939 1626.33 332.643 1625.77 330.808C1625.21 328.973 1624.42 327.594 1623.39 326.671C1622.37 325.748 1621.17 325.286 1619.78 325.286C1617.71 325.286 1616.05 326.322 1614.81 328.393C1613.57 330.465 1612.94 333.566 1612.93 337.697C1612.93 340.491 1613.21 342.823 1613.76 344.693C1614.33 346.552 1615.13 347.948 1616.16 348.884C1617.19 349.807 1618.4 350.268 1619.78 350.268Z" fill="#656669"/>
<path d="M870.694 789.721V811.539H866.134V793.471H857.313V811.539H852.754V789.721H870.694ZM875.086 811.539V789.721H883.694C885.349 789.721 886.758 790.037 887.923 790.669C889.088 791.294 889.976 792.164 890.586 793.279C891.204 794.387 891.513 795.665 891.513 797.114C891.513 798.563 891.201 799.842 890.576 800.95C889.951 802.058 889.045 802.92 887.859 803.538C886.68 804.156 885.253 804.465 883.577 804.465H878.09V800.768H882.831C883.719 800.768 884.45 800.616 885.025 800.31C885.608 799.998 886.041 799.568 886.325 799.021C886.616 798.467 886.762 797.832 886.762 797.114C886.762 796.39 886.616 795.758 886.325 795.218C886.041 794.671 885.608 794.249 885.025 793.95C884.443 793.645 883.704 793.492 882.809 793.492H879.699V811.539H875.086ZM894.51 811.539V789.721H909.211V793.524H899.123V798.723H908.455V802.526H899.123V807.736H909.254V811.539H894.51ZM931.426 789.721V811.539H926.867V793.471H918.046V811.539H913.486V789.721H931.426ZM939.579 811.539H934.636L942.168 789.721H948.112L955.634 811.539H950.69L945.225 794.707H945.055L939.579 811.539ZM939.27 802.963H950.946V806.564H939.27V802.963ZM958.26 811.539V789.721H966.868C968.522 789.721 969.932 790.037 971.097 790.669C972.262 791.294 973.15 792.164 973.76 793.279C974.378 794.387 974.687 795.665 974.687 797.114C974.687 798.563 974.375 799.842 973.75 800.95C973.125 802.058 972.219 802.92 971.033 803.538C969.854 804.156 968.426 804.465 966.75 804.465H961.264V800.768H966.005C966.892 800.768 967.624 800.616 968.199 800.31C968.782 799.998 969.215 799.568 969.499 799.021C969.79 798.467 969.936 797.832 969.936 797.114C969.936 796.39 969.79 795.758 969.499 795.218C969.215 794.671 968.782 794.249 968.199 793.95C967.617 793.645 966.878 793.492 965.983 793.492H962.873V811.539H958.26ZM978.925 811.539H973.981L981.513 789.721H987.458L994.979 811.539H990.036L984.571 794.707H984.4L978.925 811.539ZM978.616 802.963H990.292V806.564H978.616V802.963ZM994.108 793.524V789.721H1012.03V793.524H1005.35V811.539H1000.79V793.524H994.108ZM1021.92 811.539V789.721H1025.68L1034.44 804.732H1034.62V789.721H1038.42V811.539H1034.72L1025.93 796.582H1025.75V811.539H1021.92ZM1041.34 805.168V802.707H1050.76V805.168H1041.34ZM1046.04 800.939C1044.97 800.939 1044.04 800.708 1043.25 800.246C1042.47 799.785 1041.86 799.156 1041.44 798.361C1041.01 797.565 1040.8 796.663 1040.8 795.655V794.717C1040.8 793.716 1041.01 792.817 1041.44 792.022C1041.86 791.219 1042.47 790.587 1043.25 790.126C1044.03 789.664 1044.95 789.433 1046.02 789.433C1047.1 789.433 1048.03 789.664 1048.8 790.126C1049.58 790.587 1050.18 791.219 1050.6 792.022C1051.03 792.817 1051.24 793.716 1051.24 794.717V795.655C1051.24 796.656 1051.03 797.555 1050.61 798.35C1050.2 799.146 1049.6 799.778 1048.82 800.246C1048.05 800.708 1047.12 800.939 1046.04 800.939ZM1046.04 798.297C1046.72 798.297 1047.24 798.059 1047.61 797.583C1047.98 797.1 1048.17 796.457 1048.17 795.655V794.717C1048.17 793.922 1047.99 793.29 1047.62 792.821C1047.25 792.352 1046.72 792.118 1046.02 792.118C1045.33 792.118 1044.8 792.352 1044.43 792.821C1044.07 793.29 1043.89 793.922 1043.89 794.717V795.655C1043.89 796.457 1044.07 797.1 1044.44 797.583C1044.81 798.059 1045.34 798.297 1046.04 798.297ZM1064.33 789.721V811.539H1059.72V794.099H1059.59L1054.6 797.232V793.141L1060 789.721H1064.33Z" fill="#223C78"/>
<path d="M1411.15 789.721V811.539H1406.59V793.471H1397.76V811.539H1393.2V789.721H1411.15ZM1415.54 811.539V789.721H1424.14C1425.8 789.721 1427.21 790.037 1428.37 790.669C1429.54 791.294 1430.43 792.164 1431.04 793.279C1431.66 794.387 1431.96 795.665 1431.96 797.114C1431.96 798.563 1431.65 799.842 1431.03 800.95C1430.4 802.058 1429.5 802.92 1428.31 803.538C1427.13 804.156 1425.7 804.465 1424.03 804.465H1418.54V800.768H1423.28C1424.17 800.768 1424.9 800.616 1425.48 800.31C1426.06 799.998 1426.49 799.568 1426.78 799.021C1427.07 798.467 1427.21 797.832 1427.21 797.114C1427.21 796.39 1427.07 795.758 1426.78 795.218C1426.49 794.671 1426.06 794.249 1425.48 793.95C1424.89 793.645 1424.16 793.492 1423.26 793.492H1420.15V811.539H1415.54ZM1434.96 811.539V789.721H1449.66V793.524H1439.57V798.723H1448.91V802.526H1439.57V807.736H1449.71V811.539H1434.96ZM1471.88 789.721V811.539H1467.32V793.471H1458.5V811.539H1453.94V789.721H1471.88ZM1480.03 811.539H1475.09L1482.62 789.721H1488.56L1496.08 811.539H1491.14L1485.68 794.707H1485.51L1480.03 811.539ZM1479.72 802.963H1491.4V806.564H1479.72V802.963ZM1498.71 811.539V789.721H1507.32C1508.97 789.721 1510.38 790.037 1511.55 790.669C1512.71 791.294 1513.6 792.164 1514.21 793.279C1514.83 794.387 1515.14 795.665 1515.14 797.114C1515.14 798.563 1514.83 799.842 1514.2 800.95C1513.58 802.058 1512.67 802.92 1511.48 803.538C1510.31 804.156 1508.88 804.465 1507.2 804.465H1501.72V800.768H1506.46C1507.34 800.768 1508.08 800.616 1508.65 800.31C1509.23 799.998 1509.67 799.568 1509.95 799.021C1510.24 798.467 1510.39 797.832 1510.39 797.114C1510.39 796.39 1510.24 795.758 1509.95 795.218C1509.67 794.671 1509.23 794.249 1508.65 793.95C1508.07 793.645 1507.33 793.492 1506.43 793.492H1503.32V811.539H1498.71ZM1519.38 811.539H1514.43L1521.96 789.721H1527.91L1535.43 811.539H1530.49L1525.02 794.707H1524.85L1519.38 811.539ZM1519.07 802.963H1530.74V806.564H1519.07V802.963ZM1534.56 793.524V789.721H1552.48V793.524H1545.8V811.539H1541.24V793.524H1534.56ZM1562.37 811.539V789.721H1566.13L1574.89 804.732H1575.07V789.721H1578.88V811.539H1575.17L1566.38 796.582H1566.2V811.539H1562.37ZM1581.79 805.168V802.707H1591.21V805.168H1581.79ZM1586.49 800.939C1585.42 800.939 1584.49 800.708 1583.7 800.246C1582.92 799.785 1582.32 799.156 1581.89 798.361C1581.46 797.565 1581.25 796.663 1581.25 795.655V794.717C1581.25 793.716 1581.46 792.817 1581.89 792.022C1582.32 791.219 1582.92 790.587 1583.7 790.126C1584.48 789.664 1585.41 789.433 1586.47 789.433C1587.55 789.433 1588.48 789.664 1589.25 790.126C1590.03 790.587 1590.63 791.219 1591.05 792.022C1591.48 792.817 1591.69 793.716 1591.69 794.717V795.655C1591.69 796.656 1591.48 797.555 1591.06 798.35C1590.65 799.146 1590.05 799.778 1589.27 800.246C1588.5 800.708 1587.57 800.939 1586.49 800.939ZM1586.49 798.297C1587.17 798.297 1587.69 798.059 1588.06 797.583C1588.43 797.1 1588.62 796.457 1588.62 795.655V794.717C1588.62 793.922 1588.44 793.29 1588.07 792.821C1587.7 792.352 1587.17 792.118 1586.47 792.118C1585.78 792.118 1585.25 792.352 1584.88 792.821C1584.52 793.29 1584.34 793.922 1584.34 794.717V795.655C1584.34 796.457 1584.52 797.1 1584.89 797.583C1585.26 798.059 1585.8 798.297 1586.49 798.297ZM1603.36 811.837C1601.77 811.837 1600.35 811.564 1599.11 811.017C1597.87 810.463 1596.89 809.703 1596.18 808.737C1595.47 807.764 1595.1 806.642 1595.08 805.371H1599.72C1599.75 805.903 1599.93 806.372 1600.25 806.777C1600.57 807.175 1601.01 807.484 1601.55 807.704C1602.09 807.924 1602.69 808.034 1603.37 808.034C1604.07 808.034 1604.69 807.91 1605.23 807.661C1605.77 807.413 1606.19 807.068 1606.5 806.628C1606.8 806.187 1606.96 805.68 1606.96 805.104C1606.96 804.522 1606.79 804.007 1606.47 803.56C1606.15 803.105 1605.69 802.75 1605.08 802.494C1604.49 802.239 1603.78 802.111 1602.95 802.111H1600.92V798.723H1602.95C1603.65 798.723 1604.26 798.602 1604.79 798.361C1605.33 798.119 1605.75 797.786 1606.05 797.359C1606.35 796.926 1606.5 796.422 1606.5 795.847C1606.5 795.3 1606.37 794.82 1606.11 794.408C1605.85 793.989 1605.49 793.663 1605.02 793.428C1604.56 793.194 1604.02 793.077 1603.4 793.077C1602.77 793.077 1602.2 793.19 1601.68 793.418C1601.17 793.638 1600.75 793.954 1600.44 794.366C1600.12 794.778 1599.96 795.261 1599.94 795.815H1595.52C1595.54 794.558 1595.9 793.45 1596.59 792.491C1597.29 791.532 1598.23 790.783 1599.4 790.243C1600.59 789.696 1601.93 789.423 1603.42 789.423C1604.93 789.423 1606.24 789.696 1607.37 790.243C1608.5 790.79 1609.38 791.528 1610 792.459C1610.64 793.382 1610.95 794.419 1610.94 795.57C1610.95 796.791 1610.57 797.81 1609.8 798.627C1609.04 799.444 1608.05 799.962 1606.83 800.183V800.353C1608.43 800.559 1609.66 801.116 1610.49 802.026C1611.34 802.928 1611.76 804.057 1611.75 805.413C1611.76 806.656 1611.4 807.761 1610.68 808.727C1609.96 809.692 1608.97 810.452 1607.7 811.006C1606.44 811.56 1604.99 811.837 1603.36 811.837Z" fill="#223C78"/>
<path d="M167.617 736.484H190.062" stroke="#459F63" stroke-width="6.98309" stroke-linecap="round"/>
<path d="M229.336 738.039L1649 738.039" stroke="#223C78" stroke-width="4" stroke-linecap="round"/>
<path d="M1444 395.711H1560C1575.74 395.711 1588.5 408.471 1588.5 424.211V734.711H1415.5V424.211C1415.5 408.471 1428.26 395.711 1444 395.711Z" fill="url(#paint0_linear_3691_22493)" stroke="url(#paint1_linear_3691_22493)" stroke-width="3"/>
<path d="M904.051 152.711H997.949C1019.79 152.711 1037.5 170.418 1037.5 192.262V734.711H864.5V192.262C864.5 170.418 882.208 152.711 904.051 152.711Z" fill="url(#paint2_linear_3691_22493)" stroke="url(#paint3_linear_3691_22493)" stroke-width="3"/>
<path d="M555 279.5H753C774.263 279.5 791.5 296.737 791.5 318V323C791.5 344.263 774.263 361.5 753 361.5H555C533.737 361.5 516.5 344.263 516.5 323V318C516.5 296.737 533.737 279.5 555 279.5Z" fill="url(#paint4_linear_3691_22493)" stroke="url(#paint5_linear_3691_22493)" stroke-width="3"/>
<path d="M559.15 327.739V312.653H562.964V327.739H559.15ZM553.514 322.103V318.289H568.599V322.103H553.514ZM589.456 309.244V331.062H584.843V313.623H584.715L579.719 316.755V312.664L585.12 309.244H589.456ZM602.706 331.361C601.115 331.361 599.698 331.087 598.455 330.54C597.22 329.987 596.243 329.227 595.526 328.261C594.816 327.288 594.45 326.165 594.428 324.894H599.073C599.102 325.427 599.276 325.896 599.595 326.3C599.922 326.698 600.355 327.007 600.895 327.227C601.435 327.447 602.042 327.558 602.717 327.558C603.42 327.558 604.041 327.433 604.581 327.185C605.121 326.936 605.544 326.592 605.849 326.151C606.154 325.711 606.307 325.203 606.307 324.628C606.307 324.045 606.144 323.531 605.817 323.083C605.497 322.629 605.036 322.273 604.432 322.018C603.835 321.762 603.125 321.634 602.301 321.634H600.267V318.246H602.301C602.997 318.246 603.612 318.126 604.144 317.884C604.684 317.643 605.103 317.309 605.401 316.883C605.7 316.45 605.849 315.945 605.849 315.37C605.849 314.823 605.718 314.344 605.455 313.932C605.199 313.513 604.837 313.186 604.368 312.952C603.906 312.717 603.367 312.6 602.749 312.6C602.124 312.6 601.552 312.714 601.034 312.941C600.515 313.161 600.1 313.477 599.787 313.889C599.475 314.301 599.308 314.784 599.286 315.338H594.865C594.887 314.081 595.245 312.973 595.941 312.014C596.637 311.055 597.575 310.306 598.754 309.766C599.94 309.219 601.279 308.946 602.77 308.946C604.276 308.946 605.593 309.219 606.722 309.766C607.852 310.313 608.729 311.052 609.354 311.982C609.986 312.906 610.298 313.942 610.291 315.093C610.298 316.315 609.919 317.334 609.151 318.151C608.392 318.967 607.401 319.486 606.179 319.706V319.876C607.784 320.082 609.006 320.64 609.844 321.549C610.689 322.451 611.108 323.58 611.101 324.937C611.108 326.18 610.749 327.284 610.025 328.25C609.308 329.216 608.317 329.976 607.053 330.53C605.789 331.084 604.34 331.361 602.706 331.361ZM621.03 327.227V323.594L630.139 309.244H633.271V314.273H631.417L625.675 323.36V323.531H638.619V327.227H621.03ZM631.502 331.062V326.119L631.588 324.511V309.244H635.913V331.062H631.502ZM650.247 331.542C648.415 331.535 646.838 331.084 645.517 330.189C644.203 329.294 643.191 327.998 642.481 326.3C641.778 324.603 641.43 322.561 641.437 320.175C641.437 317.795 641.788 315.768 642.491 314.092C643.202 312.415 644.214 311.141 645.528 310.267C646.849 309.386 648.422 308.946 650.247 308.946C652.072 308.946 653.642 309.386 654.956 310.267C656.277 311.148 657.292 312.426 658.003 314.102C658.713 315.771 659.064 317.795 659.057 320.175C659.057 322.568 658.702 324.614 657.992 326.311C657.289 328.009 656.28 329.305 654.966 330.2C653.653 331.094 652.079 331.542 650.247 331.542ZM650.247 327.717C651.497 327.717 652.495 327.089 653.241 325.832C653.986 324.575 654.356 322.689 654.349 320.175C654.349 318.52 654.178 317.142 653.837 316.041C653.503 314.94 653.028 314.113 652.41 313.559C651.799 313.005 651.078 312.728 650.247 312.728C649.004 312.728 648.01 313.349 647.264 314.592C646.518 315.835 646.142 317.696 646.135 320.175C646.135 321.851 646.302 323.25 646.635 324.372C646.976 325.487 647.456 326.325 648.074 326.886C648.692 327.44 649.416 327.717 650.247 327.717ZM670.901 331.542C669.069 331.535 667.492 331.084 666.171 330.189C664.857 329.294 663.845 327.998 663.135 326.3C662.432 324.603 662.084 322.561 662.091 320.175C662.091 317.795 662.442 315.768 663.146 314.092C663.856 312.415 664.868 311.141 666.182 310.267C667.503 309.386 669.076 308.946 670.901 308.946C672.727 308.946 674.296 309.386 675.61 310.267C676.931 311.148 677.947 312.426 678.657 314.102C679.367 315.771 679.719 317.795 679.712 320.175C679.712 322.568 679.357 324.614 678.646 326.311C677.943 328.009 676.935 329.305 675.621 330.2C674.307 331.094 672.734 331.542 670.901 331.542ZM670.901 327.717C672.151 327.717 673.149 327.089 673.895 325.832C674.641 324.575 675.01 322.689 675.003 320.175C675.003 318.52 674.832 317.142 674.491 316.041C674.158 314.94 673.682 314.113 673.064 313.559C672.453 313.005 671.732 312.728 670.901 312.728C669.658 312.728 668.664 313.349 667.918 314.592C667.173 315.835 666.796 317.696 666.789 320.175C666.789 321.851 666.956 323.25 667.29 324.372C667.631 325.487 668.11 326.325 668.728 326.886C669.346 327.44 670.07 327.717 670.901 327.717ZM698.499 331.542C696.667 331.535 695.09 331.084 693.769 330.189C692.455 329.294 691.443 327.998 690.733 326.3C690.029 324.603 689.681 322.561 689.689 320.175C689.689 317.795 690.04 315.768 690.743 314.092C691.453 312.415 692.466 311.141 693.779 310.267C695.1 309.386 696.674 308.946 698.499 308.946C700.324 308.946 701.894 309.386 703.208 310.267C704.529 311.148 705.544 312.426 706.255 314.102C706.965 315.771 707.316 317.795 707.309 320.175C707.309 322.568 706.954 324.614 706.244 326.311C705.541 328.009 704.532 329.305 703.218 330.2C701.904 331.094 700.331 331.542 698.499 331.542ZM698.499 327.717C699.749 327.717 700.747 327.089 701.493 325.832C702.238 324.575 702.608 322.689 702.6 320.175C702.6 318.52 702.43 317.142 702.089 316.041C701.755 314.94 701.279 314.113 700.662 313.559C700.051 313.005 699.33 312.728 698.499 312.728C697.256 312.728 696.262 313.349 695.516 314.592C694.77 315.835 694.394 317.696 694.387 320.175C694.387 321.851 694.554 323.25 694.887 324.372C695.228 325.487 695.708 326.325 696.326 326.886C696.944 327.44 697.668 327.717 698.499 327.717ZM719.153 331.542C717.321 331.535 715.744 331.084 714.423 330.189C713.109 329.294 712.097 327.998 711.387 326.3C710.684 324.603 710.336 322.561 710.343 320.175C710.343 317.795 710.694 315.768 711.398 314.092C712.108 312.415 713.12 311.141 714.434 310.267C715.755 309.386 717.328 308.946 719.153 308.946C720.979 308.946 722.548 309.386 723.862 310.267C725.183 311.148 726.199 312.426 726.909 314.102C727.619 315.771 727.971 317.795 727.964 320.175C727.964 322.568 727.608 324.614 726.898 326.311C726.195 328.009 725.187 329.305 723.873 330.2C722.559 331.094 720.986 331.542 719.153 331.542ZM719.153 327.717C720.403 327.717 721.401 327.089 722.147 325.832C722.893 324.575 723.262 322.689 723.255 320.175C723.255 318.52 723.084 317.142 722.743 316.041C722.41 314.94 721.934 314.113 721.316 313.559C720.705 313.005 719.984 312.728 719.153 312.728C717.91 312.728 716.916 313.349 716.17 314.592C715.425 315.835 715.048 317.696 715.041 320.175C715.041 321.851 715.208 323.25 715.542 324.372C715.883 325.487 716.362 326.325 716.98 326.886C717.598 327.44 718.322 327.717 719.153 327.717ZM739.808 331.542C737.975 331.535 736.398 331.084 735.077 330.189C733.763 329.294 732.751 327.998 732.041 326.3C731.338 324.603 730.99 322.561 730.997 320.175C730.997 317.795 731.349 315.768 732.052 314.092C732.762 312.415 733.774 311.141 735.088 310.267C736.409 309.386 737.982 308.946 739.808 308.946C741.633 308.946 743.202 309.386 744.516 310.267C745.837 311.148 746.853 312.426 747.563 314.102C748.273 315.771 748.625 317.795 748.618 320.175C748.618 322.568 748.263 324.614 747.553 326.311C746.849 328.009 745.841 329.305 744.527 330.2C743.213 331.094 741.64 331.542 739.808 331.542ZM739.808 327.717C741.058 327.717 742.055 327.089 742.801 325.832C743.547 324.575 743.916 322.689 743.909 320.175C743.909 318.52 743.739 317.142 743.398 316.041C743.064 314.94 742.588 314.113 741.97 313.559C741.359 313.005 740.638 312.728 739.808 312.728C738.565 312.728 737.57 313.349 736.825 314.592C736.079 315.835 735.702 317.696 735.695 320.175C735.695 321.851 735.862 323.25 736.196 324.372C736.537 325.487 737.016 326.325 737.634 326.886C738.252 327.44 738.977 327.717 739.808 327.717Z" fill="white"/>
<path d="M1134 393.5H1312C1327.74 393.5 1340.5 406.26 1340.5 422V453C1340.5 468.74 1327.74 481.5 1312 481.5H1134C1118.26 481.5 1105.5 468.74 1105.5 453V422C1105.5 406.26 1118.26 393.5 1134 393.5Z" fill="url(#paint6_linear_3691_22493)" stroke="url(#paint7_linear_3691_22493)" stroke-width="3"/>
<path d="M1135.34 446.801V431.716H1139.15V446.801H1135.34ZM1129.7 441.165V437.352H1144.79V441.165H1129.7ZM1164.52 450.423C1163.4 450.416 1162.32 450.228 1161.28 449.859C1160.24 449.489 1159.31 448.889 1158.48 448.058C1157.66 447.227 1157.01 446.126 1156.52 444.756C1156.05 443.385 1155.81 441.702 1155.81 439.706C1155.82 437.874 1156.03 436.237 1156.44 434.795C1156.86 433.346 1157.45 432.117 1158.23 431.109C1159.01 430.1 1159.94 429.333 1161.03 428.808C1162.12 428.275 1163.34 428.009 1164.68 428.009C1166.14 428.009 1167.43 428.293 1168.54 428.861C1169.66 429.422 1170.55 430.185 1171.23 431.151C1171.91 432.117 1172.32 433.2 1172.46 434.401H1167.91C1167.74 433.641 1167.36 433.044 1166.79 432.611C1166.23 432.178 1165.52 431.961 1164.68 431.961C1163.26 431.961 1162.18 432.579 1161.45 433.815C1160.71 435.05 1160.34 436.73 1160.33 438.854H1160.48C1160.8 438.207 1161.24 437.657 1161.8 437.202C1162.36 436.741 1162.99 436.389 1163.7 436.148C1164.42 435.899 1165.18 435.775 1165.97 435.775C1167.27 435.775 1168.42 436.08 1169.43 436.691C1170.43 437.295 1171.23 438.126 1171.81 439.184C1172.39 440.242 1172.69 441.453 1172.69 442.817C1172.69 444.294 1172.34 445.608 1171.65 446.759C1170.97 447.909 1170.01 448.811 1168.79 449.464C1167.56 450.111 1166.14 450.43 1164.52 450.423ZM1164.5 446.801C1165.21 446.801 1165.85 446.631 1166.41 446.29C1166.97 445.949 1167.41 445.487 1167.73 444.905C1168.05 444.322 1168.21 443.669 1168.21 442.945C1168.21 442.22 1168.05 441.57 1167.73 440.995C1167.42 440.42 1166.99 439.962 1166.43 439.621C1165.88 439.28 1165.25 439.109 1164.54 439.109C1164 439.109 1163.51 439.209 1163.05 439.408C1162.61 439.607 1162.21 439.884 1161.87 440.239C1161.54 440.594 1161.28 441.006 1161.08 441.474C1160.89 441.936 1160.8 442.43 1160.8 442.955C1160.8 443.658 1160.96 444.301 1161.28 444.884C1161.6 445.466 1162.04 445.931 1162.6 446.279C1163.16 446.627 1163.79 446.801 1164.5 446.801ZM1191.45 450.604C1189.62 450.597 1188.04 450.146 1186.72 449.251C1185.41 448.357 1184.4 447.06 1183.69 445.363C1182.98 443.665 1182.64 441.624 1182.64 439.237C1182.64 436.858 1183 434.83 1183.7 433.154C1184.41 431.478 1185.42 430.203 1186.73 429.33C1188.06 428.449 1189.63 428.009 1191.45 428.009C1193.28 428.009 1194.85 428.449 1196.16 429.33C1197.48 430.21 1198.5 431.489 1199.21 433.165C1199.92 434.834 1200.27 436.858 1200.26 439.237C1200.26 441.631 1199.91 443.676 1199.2 445.374C1198.5 447.071 1197.49 448.367 1196.17 449.262C1194.86 450.157 1193.29 450.604 1191.45 450.604ZM1191.45 446.78C1192.7 446.78 1193.7 446.151 1194.45 444.894C1195.19 443.637 1195.56 441.751 1195.56 439.237C1195.56 437.582 1195.39 436.205 1195.04 435.104C1194.71 434.003 1194.23 433.175 1193.62 432.621C1193.01 432.067 1192.28 431.79 1191.45 431.79C1190.21 431.79 1189.22 432.412 1188.47 433.655C1187.73 434.898 1187.35 436.759 1187.34 439.237C1187.34 440.913 1187.51 442.312 1187.84 443.435C1188.18 444.55 1188.66 445.388 1189.28 445.949C1189.9 446.503 1190.62 446.78 1191.45 446.78ZM1212.11 450.604C1210.28 450.597 1208.7 450.146 1207.38 449.251C1206.06 448.357 1205.05 447.06 1204.34 445.363C1203.64 443.665 1203.29 441.624 1203.3 439.237C1203.3 436.858 1203.65 434.83 1204.35 433.154C1205.06 431.478 1206.07 430.203 1207.39 429.33C1208.71 428.449 1210.28 428.009 1212.11 428.009C1213.93 428.009 1215.5 428.449 1216.82 429.33C1218.14 430.21 1219.15 431.489 1219.86 433.165C1220.57 434.834 1220.93 436.858 1220.92 439.237C1220.92 441.631 1220.56 443.676 1219.85 445.374C1219.15 447.071 1218.14 448.367 1216.83 449.262C1215.51 450.157 1213.94 450.604 1212.11 450.604ZM1212.11 446.78C1213.36 446.78 1214.36 446.151 1215.1 444.894C1215.85 443.637 1216.22 441.751 1216.21 439.237C1216.21 437.582 1216.04 436.205 1215.7 435.104C1215.36 434.003 1214.89 433.175 1214.27 432.621C1213.66 432.067 1212.94 431.79 1212.11 431.79C1210.87 431.79 1209.87 432.412 1209.13 433.655C1208.38 434.898 1208 436.759 1208 439.237C1208 440.913 1208.16 442.312 1208.5 443.435C1208.84 444.55 1209.32 445.388 1209.94 445.949C1210.55 446.503 1211.28 446.78 1212.11 446.78ZM1232.76 450.604C1230.93 450.597 1229.35 450.146 1228.03 449.251C1226.72 448.357 1225.71 447.06 1225 445.363C1224.29 443.665 1223.95 441.624 1223.95 439.237C1223.95 436.858 1224.3 434.83 1225.01 433.154C1225.72 431.478 1226.73 430.203 1228.04 429.33C1229.36 428.449 1230.94 428.009 1232.76 428.009C1234.59 428.009 1236.16 428.449 1237.47 429.33C1238.79 430.21 1239.81 431.489 1240.52 433.165C1241.23 434.834 1241.58 436.858 1241.57 439.237C1241.57 441.631 1241.22 443.676 1240.51 445.374C1239.8 447.071 1238.8 448.367 1237.48 449.262C1236.17 450.157 1234.59 450.604 1232.76 450.604ZM1232.76 446.78C1234.01 446.78 1235.01 446.151 1235.76 444.894C1236.5 443.637 1236.87 441.751 1236.86 439.237C1236.86 437.582 1236.69 436.205 1236.35 435.104C1236.02 434.003 1235.54 433.175 1234.93 432.621C1234.31 432.067 1233.59 431.79 1232.76 431.79C1231.52 431.79 1230.53 432.412 1229.78 433.655C1229.03 434.898 1228.66 436.759 1228.65 439.237C1228.65 440.913 1228.82 442.312 1229.15 443.435C1229.49 444.55 1229.97 445.388 1230.59 445.949C1231.21 446.503 1231.93 446.78 1232.76 446.78ZM1260.36 450.604C1258.53 450.597 1256.95 450.146 1255.63 449.251C1254.32 448.357 1253.3 447.06 1252.59 445.363C1251.89 443.665 1251.54 441.624 1251.55 439.237C1251.55 436.858 1251.9 434.83 1252.6 433.154C1253.31 431.478 1254.33 430.203 1255.64 429.33C1256.96 428.449 1258.53 428.009 1260.36 428.009C1262.19 428.009 1263.76 428.449 1265.07 429.33C1266.39 430.21 1267.41 431.489 1268.12 433.165C1268.83 434.834 1269.18 436.858 1269.17 439.237C1269.17 441.631 1268.82 443.676 1268.11 445.374C1267.4 447.071 1266.39 448.367 1265.08 449.262C1263.77 450.157 1262.19 450.604 1260.36 450.604ZM1260.36 446.78C1261.61 446.78 1262.61 446.151 1263.35 444.894C1264.1 443.637 1264.47 441.751 1264.46 439.237C1264.46 437.582 1264.29 436.205 1263.95 435.104C1263.62 434.003 1263.14 433.175 1262.52 432.621C1261.91 432.067 1261.19 431.79 1260.36 431.79C1259.12 431.79 1258.12 432.412 1257.38 433.655C1256.63 434.898 1256.26 436.759 1256.25 439.237C1256.25 440.913 1256.41 442.312 1256.75 443.435C1257.09 444.55 1257.57 445.388 1258.19 445.949C1258.8 446.503 1259.53 446.78 1260.36 446.78ZM1281.01 450.604C1279.18 450.597 1277.61 450.146 1276.28 449.251C1274.97 448.357 1273.96 447.06 1273.25 445.363C1272.55 443.665 1272.2 441.624 1272.2 439.237C1272.2 436.858 1272.56 434.83 1273.26 433.154C1273.97 431.478 1274.98 430.203 1276.3 429.33C1277.62 428.449 1279.19 428.009 1281.01 428.009C1282.84 428.009 1284.41 428.449 1285.72 429.33C1287.04 430.21 1288.06 431.489 1288.77 433.165C1289.48 434.834 1289.83 436.858 1289.82 439.237C1289.82 441.631 1289.47 443.676 1288.76 445.374C1288.06 447.071 1287.05 448.367 1285.73 449.262C1284.42 450.157 1282.85 450.604 1281.01 450.604ZM1281.01 446.78C1282.26 446.78 1283.26 446.151 1284.01 444.894C1284.75 443.637 1285.12 441.751 1285.12 439.237C1285.12 437.582 1284.95 436.205 1284.6 435.104C1284.27 434.003 1283.8 433.175 1283.18 432.621C1282.57 432.067 1281.85 431.79 1281.01 431.79C1279.77 431.79 1278.78 432.412 1278.03 433.655C1277.29 434.898 1276.91 436.759 1276.9 439.237C1276.9 440.913 1277.07 442.312 1277.4 443.435C1277.74 444.55 1278.22 445.388 1278.84 445.949C1279.46 446.503 1280.18 446.78 1281.01 446.78ZM1301.67 450.604C1299.84 450.597 1298.26 450.146 1296.94 449.251C1295.62 448.357 1294.61 447.06 1293.9 445.363C1293.2 443.665 1292.85 441.624 1292.86 439.237C1292.86 436.858 1293.21 434.83 1293.91 433.154C1294.62 431.478 1295.64 430.203 1296.95 429.33C1298.27 428.449 1299.84 428.009 1301.67 428.009C1303.49 428.009 1305.06 428.449 1306.38 429.33C1307.7 430.21 1308.71 431.489 1309.42 433.165C1310.13 434.834 1310.49 436.858 1310.48 439.237C1310.48 441.631 1310.12 443.676 1309.41 445.374C1308.71 447.071 1307.7 448.367 1306.39 449.262C1305.07 450.157 1303.5 450.604 1301.67 450.604ZM1301.67 446.78C1302.92 446.78 1303.92 446.151 1304.66 444.894C1305.41 443.637 1305.78 441.751 1305.77 439.237C1305.77 437.582 1305.6 436.205 1305.26 435.104C1304.93 434.003 1304.45 433.175 1303.83 432.621C1303.22 432.067 1302.5 431.79 1301.67 431.79C1300.43 431.79 1299.43 432.412 1298.69 433.655C1297.94 434.898 1297.56 436.759 1297.56 439.237C1297.56 440.913 1297.72 442.312 1298.06 443.435C1298.4 444.55 1298.88 445.388 1299.5 445.949C1300.11 446.503 1300.84 446.78 1301.67 446.78Z" fill="white"/>
<path opacity="0.2" d="M818 155.688H1067V548.688H818V155.688Z" fill="#459F63"/>
<path d="M1067 155.688H818V548.688H1067" stroke="#459F63" stroke-width="2"/>
<path opacity="0.2" d="M1363 391.938H1624V548.69H1363V391.938Z" fill="#459F63"/>
<path d="M1624 391.938H1363V548.69H1624" stroke="#459F63" stroke-width="2"/>
<path d="M380.051 555.711H473.949C495.792 555.711 513.5 573.418 513.5 595.262V734.711H340.5V595.262C340.5 573.418 358.208 555.711 380.051 555.711Z" fill="#459F63"/>
<path d="M380.051 555.711H473.949C495.792 555.711 513.5 573.418 513.5 595.262V734.711H340.5V595.262C340.5 573.418 358.208 555.711 380.051 555.711Z" fill="url(#paint8_linear_3691_22493)"/>
<path d="M380.051 555.711H473.949C495.792 555.711 513.5 573.418 513.5 595.262V734.711H340.5V595.262C340.5 573.418 358.208 555.711 380.051 555.711Z" stroke="url(#paint9_linear_3691_22493)" stroke-width="3"/>
<path d="M178.5 529.5C188.982 529.5 197.5 538.218 197.5 549C197.5 559.782 188.982 568.5 178.5 568.5C168.018 568.5 159.5 559.782 159.5 549C159.5 538.218 168.018 529.5 178.5 529.5Z" fill="#459F63" stroke="white"/>
<defs>
<linearGradient id="paint0_linear_3691_22493" x1="1502" y1="895.701" x2="1502" y2="394.211" gradientUnits="userSpaceOnUse">
<stop stop-color="#E2E6EB"/>
<stop offset="1" stop-color="#656669"/>
</linearGradient>
<linearGradient id="paint1_linear_3691_22493" x1="1424.44" y1="819.626" x2="1424.44" y2="373.303" gradientUnits="userSpaceOnUse">
<stop stop-color="#BCB0D4"/>
<stop offset="1" stop-color="#F3EDFF"/>
</linearGradient>
<linearGradient id="paint2_linear_3691_22493" x1="951" y1="1212.14" x2="951" y2="200.668" gradientUnits="userSpaceOnUse">
<stop stop-color="white"/>
<stop offset="1" stop-color="#A5B8BF"/>
</linearGradient>
<linearGradient id="paint3_linear_3691_22493" x1="877.499" y1="1088.2" x2="866.408" y2="115.527" gradientUnits="userSpaceOnUse">
<stop stop-color="#F3EDFF"/>
<stop offset="1" stop-color="#A3A3A3"/>
</linearGradient>
<linearGradient id="paint4_linear_3691_22493" x1="654" y1="445.089" x2="654" y2="298.377" gradientUnits="userSpaceOnUse">
<stop stop-color="white"/>
<stop offset="1" stop-color="#A5B8BF"/>
</linearGradient>
<linearGradient id="paint5_linear_3691_22493" x1="537.902" y1="414.144" x2="537.753" y2="272.797" gradientUnits="userSpaceOnUse">
<stop stop-color="#F3EDFF"/>
<stop offset="1" stop-color="#A3A3A3"/>
</linearGradient>
<linearGradient id="paint6_linear_3691_22493" x1="1223" y1="542.836" x2="1223" y2="392" gradientUnits="userSpaceOnUse">
<stop stop-color="#E2E6EB"/>
<stop offset="1" stop-color="#656669"/>
</linearGradient>
<linearGradient id="paint7_linear_3691_22493" x1="1118.12" y1="505.195" x2="1118.12" y2="386.437" gradientUnits="userSpaceOnUse">
<stop stop-color="#BCB0D4"/>
<stop offset="1" stop-color="#F3EDFF"/>
</linearGradient>
<linearGradient id="paint8_linear_3691_22493" x1="404" y1="527.977" x2="259.914" y2="819.243" gradientUnits="userSpaceOnUse">
<stop offset="0.243638" stop-color="white" stop-opacity="0"/>
<stop offset="1" stop-color="white" stop-opacity="0.75"/>
</linearGradient>
<linearGradient id="paint9_linear_3691_22493" x1="349.438" y1="780.601" x2="350.937" y2="428.254" gradientUnits="userSpaceOnUse">
<stop stop-color="#B2A6CA"/>
<stop offset="1" stop-color="#F3EDFF"/>
</linearGradient>
</defs>
</svg>
